<svg width="1004" height="745" viewBox="0 0 1004 745" fill="none" xmlns="http://www.w3.org/2000/svg">
<path d="M0 507.298L401.595 744.166L1003.2 390.266L599.4 157.399L0 507.298Z" fill="#F88949"/>
<path opacity="0.32" d="M696.302 524.94L594.422 587.504L510.783 535.871L640.92 464.423" fill="url(#paint0_linear_11_454)"/>
<path opacity="0.32" d="M279.334 471.449L119.3 566.838L28.0374 512.874L171.248 423.848" fill="url(#paint1_linear_11_454)"/>
<path opacity="0.32" d="M443.997 608.516L319.94 685.036L253.123 643.799L383.261 572.351" fill="url(#paint2_linear_11_454)"/>
<path d="M566.826 62.3875L495.567 24.7734C493.897 23.4303 491.982 22.4246 489.928 21.8121C487.838 21.1887 485.642 20.9985 483.475 21.2531C481.308 21.5077 479.216 22.2017 477.327 23.2928L159.97 204.275C157.46 205.706 155.375 207.779 153.93 210.281C152.485 212.783 151.732 215.625 151.748 218.514L153.292 434.591C153.292 436.812 153.755 439.01 154.649 441.043C155.544 443.077 156.852 444.902 158.489 446.404C160.522 448.275 162.992 449.608 165.672 450.279L235.765 488.082C235.765 488.082 262.448 424.762 248.02 411.436C247.115 410.619 246.039 410.016 244.87 409.672L493.74 265.327C496.204 263.894 498.248 261.839 499.669 259.368C501.09 256.897 501.837 254.096 501.836 251.246V89.1647L504.041 101.766L566.826 62.3875Z" fill="#68E1FD"/>
<path opacity="0.22" d="M566.826 62.3875L495.567 24.7734C493.897 23.4303 491.982 22.4246 489.928 21.8121C487.838 21.1887 485.642 20.9985 483.475 21.2531C481.308 21.5077 479.216 22.2017 477.327 23.2928L159.97 204.275C157.46 205.706 155.375 207.779 153.93 210.281C152.485 212.783 151.732 215.625 151.748 218.514L153.292 434.591C153.292 436.812 153.755 439.01 154.649 441.043C155.544 443.077 156.852 444.902 158.489 446.404C160.522 448.275 162.992 449.608 165.672 450.279L235.765 488.082C235.765 488.082 262.448 424.762 248.02 411.436C247.115 410.619 246.039 410.016 244.87 409.672L493.74 265.327C496.204 263.894 498.248 261.839 499.669 259.368C501.09 256.897 501.837 254.096 501.836 251.246V89.1647L504.041 101.766L566.826 62.3875Z" fill="#272322"/>
<path d="M232.521 243.653L549.059 61.2849C551.527 59.8707 554.323 59.1277 557.168 59.1299C560.012 59.132 562.807 59.8792 565.273 61.2972C567.739 62.7151 569.791 64.7542 571.224 67.2116C572.657 69.669 573.422 72.4589 573.442 75.3036L574.355 289.143C574.368 291.993 573.633 294.796 572.223 297.272C570.814 299.749 568.779 301.812 566.322 303.256L251.296 487.83C248.836 489.269 246.042 490.037 243.192 490.058C240.342 490.079 237.536 489.351 235.055 487.948C232.574 486.545 230.505 484.516 229.054 482.063C227.604 479.61 226.822 476.819 226.787 473.969L224.33 257.924C224.305 255.032 225.051 252.186 226.491 249.678C227.93 247.17 230.012 245.091 232.521 243.653Z" fill="#68E1FD"/>
<path opacity="0.37" d="M232.521 243.653L549.059 61.2849C551.527 59.8707 554.323 59.1277 557.168 59.1299C560.012 59.132 562.807 59.8792 565.273 61.2972C567.739 62.7151 569.791 64.7542 571.224 67.2116C572.657 69.669 573.422 72.4589 573.442 75.3036L574.355 289.143C574.368 291.993 573.633 294.796 572.223 297.272C570.814 299.749 568.779 301.812 566.322 303.256L251.296 487.83C248.836 489.269 246.042 490.037 243.192 490.058C240.342 490.079 237.536 489.351 235.055 487.948C232.574 486.545 230.505 484.516 229.054 482.063C227.604 479.61 226.822 476.819 226.787 473.969L224.33 257.924C224.305 255.032 225.051 252.186 226.491 249.678C227.93 247.17 230.012 245.091 232.521 243.653Z" fill="white"/>
<path d="M290.139 176.049C300.108 176.049 308.19 172.537 308.19 168.205C308.19 163.872 300.108 160.36 290.139 160.36C280.17 160.36 272.088 163.872 272.088 168.205C272.088 172.537 280.17 176.049 290.139 176.049Z" fill="#272322"/>
<path d="M414.511 115.469C424.48 115.469 432.562 111.957 432.562 107.625C432.562 103.293 424.48 99.7808 414.511 99.7808C404.542 99.7808 396.46 103.293 396.46 107.625C396.46 111.957 404.542 115.469 414.511 115.469Z" fill="#272322"/>
<path d="M396.555 103.214C396.472 105.408 396.694 107.603 397.216 109.735C401.627 110.838 406.667 107.656 410.983 107.058C416.779 106.27 429.884 112.602 432.562 107.625C432.562 99.9696 429.853 84.5963 423.71 79.2724C411.109 68.467 392.617 75.8701 380.205 82.4227C372.14 86.6125 364.139 90.9914 356.168 95.3387C346.382 100.715 336.626 106.134 326.902 111.594C317.893 116.634 309.324 122.273 299.873 126.526C295.82 128.305 291.992 130.557 288.469 133.236C283.07 137.278 278.753 142.59 275.901 148.701C273.049 154.812 271.75 161.533 272.119 168.267H308.221V152.012C307.867 149.379 308.272 146.7 309.388 144.289C310.504 141.878 312.285 139.836 314.522 138.403C322.366 133.173 389.183 97.4494 392.774 98.5835C396.366 99.7176 396.051 99.1505 396.555 103.214Z" fill="#272322"/>
<path d="M373.715 457.177V473.874C373.077 476.915 371.553 479.699 369.336 481.875C365.934 484.742 352.136 490.665 352.388 504.274C352.609 516.497 352.136 599.475 352.136 599.475H451.968V504.274C451.968 504.274 448.817 490.035 438.863 483.167C436.535 481.92 434.411 480.327 432.562 478.442C429.664 474.724 431.144 470.251 431.586 463.919C431.63 461.121 431.515 458.324 431.239 455.539" fill="#603316"/>
<path d="M369.368 439.253V456.453H437.414V439.253" fill="#DBDBDB"/>
<path d="M403.391 471.417C422.181 471.417 437.414 464.717 437.414 456.453C437.414 448.189 422.181 441.489 403.391 441.489C384.6 441.489 369.368 448.189 369.368 456.453C369.368 464.717 384.6 471.417 403.391 471.417Z" fill="#DBDBDB"/>
<path d="M403.391 454.217C422.181 454.217 437.414 447.517 437.414 439.253C437.414 430.989 422.181 424.289 403.391 424.289C384.6 424.289 369.368 430.989 369.368 439.253C369.368 447.517 384.6 454.217 403.391 454.217Z" fill="#EDEDED"/>
<path d="M402.099 617.243C429.693 617.243 452.062 608.667 452.062 598.089C452.062 587.511 429.693 578.936 402.099 578.936C374.505 578.936 352.136 587.511 352.136 598.089C352.136 608.667 374.505 617.243 402.099 617.243Z" fill="#603316"/>
<path d="M451.968 508.338C450.676 508.59 411.676 522.671 375.07 513.221V578.935C375.07 578.935 417.693 594.434 451.968 573.264V508.338Z" fill="white"/>
<path d="M615.592 220.561C615.592 220.561 617.545 129.96 621.452 119.564C625.358 109.168 633.045 75.618 636.857 71.6171C640.668 67.6163 643.661 53.0936 656.735 56.5589C663.848 58.7252 670.771 61.4752 677.432 64.7811L661.145 157.399L654.277 223.334L615.592 220.561Z" fill="#EEF3F7"/>
<path d="M599.053 178.726C583.302 179.923 554.54 133.961 554.54 133.961C570.543 125.487 571.268 106.963 571.268 106.963L610.678 143.254" fill="#DBDBDB"/>
<path d="M554.572 134.087C554.572 134.087 547.105 132.512 552.902 118.588C558.698 104.664 567.11 103.215 571.331 107.089C575.552 110.964 568.874 135.032 554.572 134.087Z" fill="#9E9E9E"/>
<path d="M559.675 133.646C565.397 130.282 569.622 124.863 571.489 118.493C570.866 117.723 570.327 116.888 569.882 116.004C570.165 113.799 570.449 111.625 570.638 109.42C571.529 103.421 573.169 97.5579 575.521 91.9677C577.033 87.6518 570.197 85.6672 568.685 90.0775C567.019 94.3185 565.599 98.652 564.432 103.057L562.069 77.8545C561.66 73.3496 554.572 73.3181 554.981 77.8545L556.651 95.6535C555.737 89.353 554.95 82.7689 554.414 76.3109C554.036 71.806 546.948 71.7745 547.326 76.3109C547.326 77.4765 547.547 78.6421 547.673 79.8077C545.467 78.7051 542.317 79.6187 542.632 82.7059C542.821 84.5331 543.042 86.3917 543.262 88.2189C542.69 88.1679 542.114 88.2514 541.58 88.4626C541.046 88.6738 540.568 89.0069 540.186 89.4353C539.803 89.8638 539.526 90.3757 539.377 90.9302C539.227 91.4847 539.209 92.0665 539.324 92.6292C542.664 108.16 548.681 122.588 559.675 133.646Z" fill="#F0B387"/>
<path d="M629.863 431.912C629.863 431.912 627.909 458.28 623.342 462.155C618.774 466.03 600.628 479.954 597.509 482.222C594.391 484.49 597.352 492.019 608.063 492.019C618.774 492.019 639.25 479.418 639.25 479.418L654.372 473.811C654.372 473.811 656.482 448.262 653.238 432.542C649.993 416.823 629.863 431.912 629.863 431.912Z" fill="#4A2B0F"/>
<path d="M680.992 474.536C680.992 474.536 670.344 525.948 677.337 529.917C684.331 533.887 700.145 525.349 702.539 516.529C704.933 507.708 704.051 455.382 702.539 455.067" fill="#4A2B0F"/>
<path d="M615.592 251.15L618.238 441.93C618.238 441.93 641.771 449.932 664.075 441.93L659.664 261.263L672.486 483.23C678.808 485.87 685.591 487.23 692.443 487.23C699.294 487.23 706.078 485.87 712.4 483.23L708.399 234.895L618.238 209.914L615.592 251.15Z" fill="#68E1FD"/>
<path d="M648.512 56.1809C648.512 56.1809 623.751 49.0298 611.654 77.3822C595.241 115.658 594.422 334.601 594.422 334.601C601.926 341.901 611.284 347.011 621.483 349.376C621.483 349.376 623.594 123.407 625.389 109.137C628.382 85.5729 648.512 56.1809 648.512 56.1809Z" fill="#DBDBDB"/>
<path d="M629.611 57.914C629.611 57.914 615.655 74.5158 616.695 74.5158C617.734 74.5158 621.704 79.5247 621.704 79.5247L613.796 87.1484L623.909 194.257C623.909 194.257 616.569 116.54 648.544 56.4963C648.575 56.3703 634.872 54.7322 629.611 57.914Z" fill="#EEF3F7"/>
<path d="M672.297 62.5444C672.297 62.5444 697.089 71.1761 703.547 94.047C710.194 117.516 711.234 353.786 711.234 356.275C711.234 358.763 695.483 368.624 682.157 370.577C668.831 372.53 649.268 364.969 649.268 364.969L645.708 227.177C645.708 227.177 647.41 147.979 649.268 132.89C651.127 117.8 672.297 62.5444 672.297 62.5444Z" fill="#DBDBDB"/>
<path d="M683.575 253.136C682.818 214.073 682.472 175.009 682.535 135.946C682.535 135.403 682.319 134.882 681.935 134.498C681.551 134.114 681.03 133.898 680.487 133.898C679.944 133.898 679.423 134.114 679.039 134.498C678.655 134.882 678.44 135.403 678.44 135.946C678.314 175.366 678.671 214.787 679.511 254.207L683.575 253.136Z" fill="#9E9E9E"/>
<path d="M674.974 327.041C674.974 327.041 728.938 275.849 732.719 278.054C736.499 280.259 736.121 357.945 735.365 360.213C734.609 362.481 697.562 400.536 693.088 401.67C688.615 402.804 671.32 401.67 671.32 401.67L674.974 327.041Z" fill="#4A2B0F"/>
<path d="M691.387 318.881C691.387 318.881 685.087 284.48 703.453 277.928C721.819 271.375 717.03 298.026 717.03 298.026L723.488 290.403C723.488 290.403 721.976 263.972 702.476 270.997C682.976 278.022 680.078 303.791 683.291 322.976" fill="#4A2B0F"/>
<path d="M710.289 245.165C703.734 249.099 696.444 251.65 688.867 252.662C687.482 258.019 685.484 263.199 682.913 268.099C681.558 274.084 681.401 279.912 687.544 279.282C687.915 279.247 688.27 279.111 688.57 278.889C688.87 278.667 689.103 278.367 689.245 278.022C689.434 279.66 689.623 281.172 689.844 282.936C689.91 283.253 690.075 283.54 690.316 283.755C690.547 284.465 691.021 285.07 691.656 285.462C692.291 285.854 693.044 286.009 693.782 285.898C694.284 285.852 694.765 285.666 695.168 285.362C695.241 286.039 695.513 286.679 695.951 287.201C696.388 287.722 696.971 288.102 697.625 288.292C698.32 288.519 699.076 288.481 699.745 288.184C700.414 287.887 700.949 287.353 701.248 286.685C701.726 287.466 702.475 288.045 703.351 288.312C704.228 288.579 705.172 288.516 706.005 288.134C707.093 287.541 707.907 286.546 708.273 285.362C708.615 285.198 708.901 284.935 709.092 284.606C713.849 276.352 712.935 267.374 710.541 258.585C710.478 254.143 710.289 249.638 710.289 245.165Z" fill="#F0B387"/>
<path d="M672.297 61.6309L682.157 67.3958L678.44 88.1875L666.343 89.7942L670.281 101.387C670.281 101.387 657.333 129.96 655.096 134.811C652.86 139.663 646.685 187.106 646.685 187.106C646.685 187.106 648.134 135.725 649.836 129.204C651.537 122.683 660.452 81.2885 672.297 61.6309Z" fill="#EEF3F7"/>
<path d="M627.765 108.88C631.659 107.691 633.741 103.206 632.415 98.8633C631.088 94.5203 626.857 91.9634 622.963 93.1524C619.069 94.3413 616.988 98.8259 618.314 103.169C619.64 107.512 623.872 110.069 627.765 108.88Z" fill="#9E9E9E"/>
<path d="M627.217 95.9374C626.524 95.4648 627.784 51.6132 653.112 54.2595C678.44 56.9057 676.361 75.6812 675.416 85.3525L679.48 85.9196C679.48 85.9196 684.236 52.4008 651.883 52.3063C619.53 52.2118 624.791 98.6466 624.791 98.6466" fill="#9E9E9E"/>
<path d="M632.446 32.0502C630.111 30.7333 628.195 28.784 626.919 26.4267C625.643 24.0693 625.058 21.3996 625.232 18.7246C625.232 8.67524 640.794 1.11462 647.284 0.201044C655.537 -0.964552 683.071 2.46923 684.74 23.0089C685.937 37.3111 676.14 62.7022 668.989 62.8912" fill="#4A2B0F"/>
<path d="M670.312 48.8098C669.608 45.6155 668.735 42.4608 667.697 39.359C667.34 38.2879 666.962 37.2378 666.563 36.2087C664.61 31.1368 661.617 32.649 657.112 32.649C653.574 32.7269 650.04 32.3671 646.591 31.5779C641.315 30.2092 636.265 28.0872 631.595 25.2773C630.902 36.3033 630.461 68.6564 648.386 71.4286C659.286 73.1298 665.24 68.8139 668.579 63.6475C669.178 58.4811 669.745 53.6927 670.312 48.8098Z" fill="#F0B387"/>
<path d="M666.374 47.4865C666.374 47.4865 670.722 36.4921 674.029 41.942C677.684 48.022 669.84 52.2748 669.84 52.2748" fill="#F0B387"/>
<path d="M637.421 51.8718C641.215 50.7134 643.17 46.1051 641.788 41.5791C640.406 37.053 636.21 34.323 632.416 35.4815C628.622 36.64 626.667 41.2482 628.049 45.7743C629.431 50.3003 633.627 53.0303 637.421 51.8718Z" stroke="#42210B" stroke-width="0.787565" stroke-miterlimit="10"/>
<path d="M656.786 56.5628C660.58 55.4043 662.535 50.7961 661.153 46.27C659.771 41.7439 655.575 39.014 651.781 40.1724C647.987 41.3309 646.032 45.9391 647.414 50.4652C648.796 54.9913 652.992 57.7212 656.786 56.5628Z" stroke="#42210B" stroke-width="0.787565" stroke-miterlimit="10"/>
<path d="M661.145 46.2577L675.415 36.5864" stroke="#42210B" stroke-width="0.787565" stroke-miterlimit="10"/>
<path d="M642.621 45.8794C642.621 45.8794 646.055 45.8794 647 47.0765" stroke="#42210B" stroke-width="0.787565" stroke-miterlimit="10"/>
<path d="M675.384 126.464C679.29 126.464 685.528 126.464 688.867 124.259C692.207 122.053 691.671 119.124 691.324 115.249C690.537 106.239 689.812 89.5427 679.479 85.8884C670.47 82.7382 662.878 89.2907 659.664 97.1663C657.585 102.301 654.183 110.681 655.474 116.446C656.483 120.982 661.397 123.408 665.366 125.141C666.122 125.456 666.752 124.385 665.996 124.038C661.365 122.022 656.546 119.313 656.735 113.642C657.174 108.709 658.341 103.868 660.2 99.277C663.35 90.8343 671.509 82.9902 680.677 87.9361C688.174 91.9684 689.025 106.271 689.875 113.642C690.442 118.462 691.041 121.581 685.685 123.944C682.339 124.951 678.842 125.367 675.353 125.172C674.534 125.172 674.534 126.464 675.353 126.432L675.384 126.464Z" fill="#4D4D4D"/>
<path d="M663.035 123.345C663.035 124.038 662.09 125.172 663.035 125.644C663.98 126.117 667.067 127.472 667.351 126.463C667.634 125.455 668.107 123.912 667.351 123.313C666.595 122.715 663.035 121.076 663.035 123.345Z" fill="#4A2B0F"/>
<path d="M673.714 125.55C673.714 126.212 673.179 127.535 674.218 127.787C675.258 128.039 678.534 128.701 678.597 127.787C678.66 126.873 678.786 125.141 677.936 124.637C677.085 124.133 673.21 123.314 673.714 125.55Z" fill="#4A2B0F"/>
<path d="M547.767 102.805C549.47 101.393 551.557 100.524 553.758 100.311C555.959 100.098 558.174 100.549 560.116 101.608C560.199 101.657 560.291 101.69 560.386 101.704C560.481 101.718 560.579 101.714 560.672 101.69C560.766 101.667 560.854 101.625 560.932 101.568C561.009 101.51 561.075 101.438 561.124 101.356C561.174 101.273 561.207 101.181 561.221 101.086C561.235 100.99 561.23 100.893 561.207 100.799C561.184 100.706 561.142 100.618 561.085 100.54C561.027 100.463 560.955 100.397 560.872 100.347C558.649 99.1398 556.114 98.6291 553.597 98.8819C551.08 99.1348 548.697 100.139 546.759 101.765C546.003 102.364 547.074 103.372 547.799 102.805H547.767Z" fill="#42210B"/>
<path d="M562.731 104.222C560.245 105.294 558.17 107.138 556.814 109.482C555.458 111.825 554.892 114.543 555.202 117.233C555.202 118.178 556.714 118.178 556.682 117.233C556.382 114.883 556.83 112.499 557.96 110.419C559.091 108.338 560.848 106.666 562.983 105.64C563.865 105.293 563.487 103.876 562.605 104.222H562.731Z" fill="#42210B"/>
<path d="M554.635 80.0281L556.304 97.9846C556.304 98.9297 557.879 98.9297 557.785 97.9846L556.115 80.0281C556.115 79.0831 554.54 79.0831 554.635 80.0281Z" fill="#42210B"/>
<path d="M547.295 82.1703L549.689 96.945C549.689 97.89 551.264 97.4805 551.107 96.5669L548.712 81.7922C548.712 80.8472 547.137 81.2567 547.295 82.1703Z" fill="#42210B"/>
<path d="M542.821 90.6447L545.562 98.1738C545.877 99.0559 547.295 98.6779 546.98 97.7958L544.239 90.2667C543.924 89.3846 542.506 89.7627 542.821 90.6447Z" fill="#42210B"/>
<path d="M707.58 242.803C699.436 247.549 690.486 250.753 681.181 252.254C678.597 252.663 679.7 256.601 682.252 256.191C691.902 254.62 701.181 251.288 709.627 246.363C710.1 246.091 710.444 245.643 710.586 245.117C710.728 244.591 710.655 244.031 710.383 243.559C710.112 243.087 709.664 242.742 709.138 242.6C708.612 242.458 708.052 242.531 707.58 242.803Z" fill="#9E9E9E"/>
<path d="M375.196 205.629V357.724L428.309 325.15V176.332L375.196 205.629Z" fill="#F15A24"/>
<path d="M338.905 275.219V326.788L464.6 253.104V202.385L338.905 275.219Z" fill="#F15A24"/>
<defs>
<linearGradient id="paint0_linear_11_454" x1="585.507" y1="549.102" x2="667.256" y2="464.486" gradientUnits="userSpaceOnUse">
<stop stop-opacity="0"/>
<stop offset="0.99" stop-color="#1A1A1A"/>
</linearGradient>
<linearGradient id="paint1_linear_11_454" x1="96.146" y1="542.014" x2="231.765" y2="424.478" gradientUnits="userSpaceOnUse">
<stop stop-opacity="0"/>
<stop offset="0.99" stop-color="#1A1A1A"/>
</linearGradient>
<linearGradient id="paint2_linear_11_454" x1="304.189" y1="664.622" x2="408.746" y2="573.989" gradientUnits="userSpaceOnUse">
<stop stop-opacity="0"/>
<stop offset="0.99" stop-color="#1A1A1A"/>
</linearGradient>
</defs>
</svg>
