<svg width="1004" height="786" viewBox="0 0 1004 786" fill="none" xmlns="http://www.w3.org/2000/svg">
<path d="M1001.45 724.044H1.74579C1.28278 724.044 0.838727 723.86 0.511328 723.532C0.183929 723.205 0 722.761 0 722.298C0 721.835 0.183929 721.391 0.511328 721.063C0.838727 720.736 1.28278 720.552 1.74579 720.552H1001.45C1001.92 720.552 1002.36 720.736 1002.69 721.063C1003.02 721.391 1003.2 721.835 1003.2 722.298C1003.2 722.761 1003.02 723.205 1002.69 723.532C1002.36 723.86 1001.92 724.044 1001.45 724.044Z" fill="#D1D3D4"/>
<path d="M501.6 113.227C505.476 107.431 508.932 101.984 512.633 96.7116C537.633 61.5514 568.987 33.8632 608.861 16.6497C639.067 3.5281 672.073 -1.83688 704.88 1.04237C754.425 5.0926 797.232 24.0519 832.078 59.7707C860.978 89.3998 879.532 127.573 884.975 168.603C888.921 195.174 887.384 221.78 884.975 248.386C882.772 274.271 877.353 299.781 868.844 324.328C855.122 363.468 832.602 397.232 805.262 428.027C777.33 459.452 746.394 487.384 715.005 514.968C660.49 563.012 605.963 611.044 551.425 659.065C535.433 673.031 520.001 688.115 504.428 702.675L501.565 705.328L490.008 694.435C437.145 644.505 382.398 596.67 327.475 549.15C291.582 518.11 255.549 487.279 222.029 453.621C197.588 429.18 175.103 403.132 157.33 373.314C138.714 341.799 126.382 306.974 121.018 270.767C116.731 243.945 115.117 216.763 116.2 189.622C119.691 106.837 170.703 37.1104 246.645 12.0758C328.627 -14.984 400.798 3.97529 462.669 63.5067C476.836 77.4193 489.2 93.0559 499.47 110.049C499.994 110.957 500.587 111.83 501.6 113.227Z" fill="#68E1FD"/>
<path d="M487.11 478.62H486.726C485.228 478.534 483.798 477.968 482.648 477.006C481.497 476.044 480.686 474.737 480.336 473.278L408.899 175.831L362.426 348.384C362.031 349.849 361.171 351.146 359.974 352.079C358.777 353.011 357.309 353.528 355.792 353.552C354.5 353.552 224.474 355.786 148.776 355.542C146.924 355.542 145.148 354.806 143.838 353.497C142.529 352.187 141.793 350.411 141.793 348.559C141.793 346.707 142.529 344.931 143.838 343.621C145.148 342.311 146.924 341.576 148.776 341.576C215.64 341.82 325.101 340.074 350.275 339.655L402.649 145.698C403.058 144.175 403.971 142.835 405.239 141.896C406.507 140.958 408.055 140.477 409.632 140.531C411.189 140.551 412.694 141.092 413.909 142.066C415.124 143.04 415.978 144.392 416.336 145.908L488.681 447.301L525.762 344.194C526.25 342.845 527.142 341.678 528.316 340.854C529.491 340.029 530.891 339.586 532.326 339.586H564.379L591.822 286.479C592.396 285.371 593.255 284.437 594.311 283.774C595.367 283.111 596.581 282.743 597.828 282.708C599.082 282.678 600.321 282.986 601.415 283.601C602.508 284.215 603.416 285.113 604.043 286.199L636.584 340.773H859.487C861.339 340.773 863.115 341.508 864.425 342.818C865.734 344.128 866.47 345.904 866.47 347.756C866.47 349.608 865.734 351.384 864.425 352.694C863.115 354.003 861.339 354.739 859.487 354.739H632.534C631.316 354.732 630.12 354.405 629.066 353.793C628.013 353.18 627.138 352.303 626.529 351.247L598.352 304.076L574.749 349.781C574.159 350.919 573.267 351.874 572.17 352.539C571.074 353.204 569.816 353.554 568.534 353.552H537.109L493.814 474.011C493.318 475.384 492.405 476.566 491.202 477.393C490 478.219 488.569 478.649 487.11 478.62Z" fill="#231F20"/>
<path d="M155.899 779.28H65.118L51.5358 595.414H169.481L155.899 779.28Z" fill="white"/>
<path d="M155.934 781.026H65.153C64.7132 781.027 64.289 780.863 63.9654 780.565C63.6417 780.267 63.4424 779.858 63.4072 779.42L49.79 595.553C49.7707 595.313 49.8015 595.071 49.8806 594.842C49.9596 594.614 50.0851 594.405 50.2492 594.228C50.4133 594.05 50.6124 593.909 50.8338 593.813C51.0553 593.717 51.2943 593.667 51.5358 593.668H169.481C169.718 593.667 169.953 593.716 170.17 593.812C170.386 593.909 170.58 594.05 170.738 594.227C170.91 594.4 171.042 594.608 171.126 594.837C171.21 595.066 171.245 595.31 171.227 595.553L157.61 779.42C157.584 779.849 157.397 780.253 157.086 780.551C156.775 780.848 156.364 781.018 155.934 781.026ZM66.794 777.534H154.293L167.631 597.16H53.4213L66.794 777.534Z" fill="#231F20"/>
<path d="M68.8538 649.952L76.8495 765.977H144.167L152.128 649.952H68.8538Z" fill="#68E1FD"/>
<path d="M93.3646 764.266C92.0802 764.273 90.8394 763.801 89.884 762.942C88.9287 762.084 88.3273 760.9 88.1971 759.622L64.2798 546.811L12.9187 553.794C11.5297 553.979 10.1239 553.605 9.01079 552.754C7.89763 551.902 7.16822 550.644 6.98302 549.255C6.79781 547.866 7.17198 546.46 8.02321 545.347C8.87445 544.234 10.133 543.504 11.5221 543.319L68.1554 535.707C68.8494 535.61 69.5558 535.652 70.233 535.833C70.9101 536.013 71.5443 536.327 72.0978 536.757C72.6512 537.187 73.1129 537.723 73.4553 538.334C73.7977 538.946 74.0139 539.62 74.0911 540.316L98.5322 758.435C98.6199 759.119 98.5707 759.814 98.3876 760.479C98.2044 761.143 97.8909 761.765 97.4653 762.308C97.0397 762.85 96.5105 763.303 95.9084 763.639C95.3063 763.975 94.6434 764.188 93.9582 764.266H93.3646Z" fill="#231F20"/>
<path d="M273.914 543.075V518.634C273.914 515.167 273.231 511.735 271.905 508.532C270.578 505.33 268.634 502.42 266.183 499.969C263.732 497.518 260.822 495.573 257.619 494.247C254.417 492.92 250.984 492.237 247.518 492.237H184.355C180.89 492.237 177.46 492.92 174.259 494.247C171.058 495.574 168.151 497.519 165.702 499.971C163.254 502.422 161.313 505.333 159.99 508.535C158.668 511.737 157.989 515.169 157.994 518.634V543.075C157.987 547.586 159.139 552.023 161.34 555.96C163.541 559.897 166.717 563.203 170.563 565.56C171.135 565.853 171.615 566.299 171.95 566.847C172.286 567.395 172.463 568.025 172.463 568.668C172.463 569.311 172.286 569.941 171.95 570.489C171.615 571.037 171.135 571.482 170.563 571.775C166.649 574.384 163.44 577.919 161.222 582.068C159.005 586.217 157.848 590.849 157.854 595.553V765.069C157.854 766.938 158.223 768.789 158.939 770.515C159.655 772.242 160.705 773.81 162.029 775.13C163.352 776.45 164.923 777.496 166.651 778.208C168.379 778.92 170.231 779.284 172.1 779.28H259.389C263.158 779.28 266.773 777.783 269.438 775.118C272.103 772.453 273.6 768.838 273.6 765.069V595.553C273.606 590.849 272.449 586.217 270.231 582.068C268.014 577.919 264.805 574.384 260.89 571.775C260.319 571.482 259.839 571.037 259.503 570.489C259.168 569.941 258.991 569.311 258.991 568.668C258.991 568.025 259.168 567.395 259.503 566.847C259.839 566.299 260.319 565.853 260.89 565.56C264.819 563.257 268.083 559.974 270.365 556.034C272.648 552.093 273.87 547.628 273.914 543.075Z" fill="white"/>
<path d="M247.518 492.377C254.519 492.377 261.233 495.158 266.183 500.109C271.133 505.059 273.914 511.773 273.914 518.774V543.215C273.914 547.728 272.755 552.166 270.548 556.103C268.341 560.04 265.16 563.345 261.31 565.7C260.738 565.993 260.258 566.439 259.923 566.987C259.588 567.535 259.41 568.165 259.41 568.808C259.41 569.451 259.588 570.081 259.923 570.629C260.258 571.177 260.738 571.622 261.31 571.915C265.224 574.524 268.433 578.059 270.651 582.208C272.868 586.357 274.025 590.989 274.019 595.693V765.209C274.019 768.978 272.522 772.593 269.857 775.258C267.192 777.923 263.577 779.42 259.808 779.42H172.519C170.65 779.424 168.798 779.06 167.07 778.348C165.342 777.636 163.771 776.59 162.448 775.27C161.125 773.95 160.075 772.382 159.358 770.655C158.642 768.929 158.273 767.078 158.273 765.209V595.553C158.267 590.849 159.424 586.217 161.642 582.068C163.859 577.92 167.068 574.384 170.983 571.776C171.555 571.483 172.035 571.038 172.37 570.489C172.705 569.941 172.882 569.311 172.882 568.668C172.882 568.026 172.705 567.396 172.37 566.847C172.035 566.299 171.555 565.854 170.983 565.561C167.137 563.204 163.961 559.898 161.76 555.96C159.559 552.023 158.406 547.586 158.413 543.075V518.634C158.408 515.169 159.087 511.738 160.41 508.535C161.732 505.333 163.673 502.423 166.122 499.971C168.57 497.519 171.478 495.575 174.678 494.248C177.879 492.921 181.31 492.238 184.774 492.238H247.937M247.937 489.025H184.355C176.512 489.044 168.995 492.17 163.452 497.72C157.909 503.27 154.791 510.79 154.782 518.634V543.075C154.75 548.122 156.018 553.093 158.464 557.508C160.91 561.924 164.452 565.635 168.748 568.284C168.834 568.314 168.907 568.371 168.958 568.447C169.008 568.523 169.033 568.613 169.027 568.703C169.038 568.786 169.024 568.87 168.987 568.945C168.949 569.019 168.891 569.081 168.818 569.122C164.459 572.018 160.884 575.946 158.411 580.558C155.938 585.169 154.643 590.321 154.642 595.553V765.069C154.642 769.7 156.481 774.14 159.755 777.414C163.029 780.688 167.47 782.527 172.1 782.527H259.389C264.02 782.527 268.46 780.688 271.734 777.414C275.008 774.14 276.847 769.7 276.847 765.069V595.553C276.86 590.341 275.594 585.205 273.159 580.597C270.724 575.989 267.194 572.048 262.881 569.122C262.802 569.086 262.736 569.027 262.692 568.952C262.648 568.877 262.629 568.79 262.637 568.703C262.641 568.615 262.669 568.529 262.718 568.455C262.767 568.381 262.836 568.322 262.916 568.284C267.212 565.635 270.754 561.924 273.2 557.508C275.646 553.093 276.914 548.122 276.882 543.075V518.634C276.873 510.79 273.755 503.27 268.212 497.72C262.669 492.17 255.152 489.044 247.309 489.025H247.937Z" fill="#231F20"/>
<path d="M254.676 554.772C256.689 553.557 258.352 551.84 259.502 549.79C260.653 547.74 261.252 545.426 261.24 543.075V542.726H170.633V543.075C170.622 545.426 171.22 547.74 172.371 549.79C173.522 551.84 175.185 553.557 177.198 554.772C179.54 556.204 181.485 558.204 182.85 560.586C184.216 562.969 184.959 565.657 185.011 568.402C185.064 571.148 184.423 573.862 183.149 576.295C181.875 578.727 180.008 580.8 177.721 582.32C175.56 583.783 173.792 585.755 172.574 588.063C171.356 590.371 170.726 592.943 170.738 595.553V765.069C170.738 765.279 170.78 765.486 170.861 765.679C170.942 765.872 171.061 766.046 171.211 766.193C171.36 766.339 171.538 766.454 171.732 766.531C171.927 766.608 172.135 766.645 172.344 766.64H259.634C260.05 766.64 260.45 766.475 260.745 766.18C261.039 765.886 261.205 765.486 261.205 765.069V595.553C261.217 592.943 260.587 590.371 259.369 588.063C258.151 585.755 256.383 583.783 254.222 582.32C251.935 580.8 250.068 578.727 248.794 576.295C247.52 573.862 246.88 571.148 246.932 568.402C246.984 565.657 247.727 562.969 249.093 560.586C250.459 558.204 252.403 556.204 254.746 554.772H254.676Z" fill="#68E1FD"/>
<path d="M157.994 633.926H273.914V704.246H157.994V633.926Z" fill="white"/>
<path d="M273.914 633.926V704.246H157.994V633.926H273.914ZM273.914 630.434H157.994C157.068 630.434 156.18 630.802 155.525 631.457C154.87 632.112 154.502 633 154.502 633.926V704.246C154.502 705.172 154.87 706.06 155.525 706.715C156.18 707.37 157.068 707.738 157.994 707.738H273.914C274.84 707.738 275.728 707.37 276.383 706.715C277.038 706.06 277.406 705.172 277.406 704.246V633.926C277.406 633 277.038 632.112 276.383 631.457C275.728 630.802 274.84 630.434 273.914 630.434Z" fill="#231F20"/>
<path d="M190.361 460.778H241.512V492.377H190.361V460.778Z" fill="#231F20"/>
<path d="M651.738 664.757C651.752 691.074 642.707 716.595 626.122 737.029C609.538 757.464 586.425 771.568 560.668 776.97C534.911 782.373 508.08 778.745 484.682 766.696C461.284 754.648 442.747 734.913 432.185 710.808C421.622 686.703 419.679 659.697 426.681 634.328C433.684 608.959 449.205 586.773 470.636 571.499C492.068 556.224 518.104 548.792 544.369 550.451C570.634 552.111 595.528 562.76 614.867 580.61C626.514 591.31 635.806 604.318 642.154 618.804C648.502 633.291 651.766 648.94 651.738 664.757Z" fill="white"/>
<path d="M537.354 781.026C510.243 781.007 483.99 771.518 463.132 754.198C442.275 736.877 428.124 712.815 423.124 686.168C418.125 659.522 422.592 631.966 435.752 608.264C448.913 584.561 469.941 566.201 495.202 556.356C520.462 546.511 548.369 545.801 574.098 554.347C599.826 562.894 621.761 580.16 636.111 603.162C650.461 626.164 656.324 653.457 652.688 680.323C649.051 707.189 636.143 731.941 616.194 750.3C594.735 770.128 566.571 781.105 537.354 781.026ZM537.354 551.979C511.049 551.962 485.565 561.135 465.305 577.913C445.045 594.691 431.283 618.019 426.397 643.866C421.511 669.713 425.809 696.455 438.546 719.471C451.284 742.486 471.662 760.328 496.158 769.914C520.654 779.5 547.729 780.227 572.705 771.97C597.68 763.713 618.986 746.99 632.941 724.692C646.896 702.393 652.622 675.921 649.131 649.848C645.639 623.776 633.149 599.743 613.82 581.901C593.019 562.637 565.705 551.949 537.354 551.979Z" fill="#231F20"/>
<path d="M459.701 750.649C459.263 750.653 458.839 750.49 458.514 750.195C446.715 739.314 437.297 726.106 430.856 711.404C424.415 696.702 421.09 680.825 421.09 664.774C421.09 648.723 424.415 632.846 430.856 618.144C437.297 603.442 446.715 590.234 458.514 579.352C458.837 579.053 459.261 578.887 459.701 578.887C460.142 578.887 460.566 579.053 460.888 579.352C472.688 590.234 482.105 603.442 488.546 618.144C494.987 632.846 498.313 648.723 498.313 664.774C498.313 680.825 494.987 696.702 488.546 711.404C482.105 726.106 472.688 739.314 460.888 750.195C460.564 750.49 460.14 750.653 459.701 750.649ZM459.701 583.054C448.605 593.584 439.768 606.263 433.729 620.318C427.691 634.374 424.577 649.511 424.577 664.809C424.577 680.107 427.691 695.244 433.729 709.299C439.768 723.355 448.605 736.034 459.701 746.564C470.798 736.034 479.634 723.355 485.673 709.299C491.712 695.244 494.826 680.107 494.826 664.809C494.826 649.511 491.712 634.374 485.673 620.318C479.634 606.263 470.798 593.584 459.701 583.054Z" fill="#231F20"/>
<path d="M615.007 750.649C614.568 750.653 614.144 750.49 613.819 750.195C602.02 739.314 592.603 726.106 586.162 711.404C579.72 696.702 576.395 680.825 576.395 664.774C576.395 648.723 579.72 632.846 586.162 618.144C592.603 603.442 602.02 590.234 613.819 579.352C614.142 579.053 614.566 578.887 615.007 578.887C615.447 578.887 615.871 579.053 616.194 579.352C627.993 590.234 637.41 603.442 643.852 618.144C650.293 632.846 653.618 648.723 653.618 664.774C653.618 680.825 650.293 696.702 643.852 711.404C637.41 726.106 627.993 739.314 616.194 750.195C615.873 750.497 615.446 750.66 615.007 750.649ZM615.007 583.054C603.91 593.584 595.073 606.263 589.035 620.318C582.996 634.374 579.882 649.511 579.882 664.809C579.882 680.107 582.996 695.244 589.035 709.299C595.073 723.355 603.91 736.034 615.007 746.564C626.103 736.034 634.94 723.355 640.978 709.299C647.017 695.244 650.131 680.107 650.131 664.809C650.131 649.511 647.017 634.374 640.978 620.318C634.94 606.263 626.103 593.584 615.007 583.054Z" fill="#231F20"/>
<path d="M537.354 781.025C536.891 781.025 536.447 780.841 536.119 780.514C535.792 780.187 535.608 779.743 535.608 779.28V550.232C535.608 549.769 535.792 549.325 536.119 548.998C536.447 548.67 536.891 548.486 537.354 548.486C537.817 548.486 538.261 548.67 538.588 548.998C538.916 549.325 539.1 549.769 539.1 550.232V779.28C539.1 779.743 538.916 780.187 538.588 780.514C538.261 780.841 537.817 781.025 537.354 781.025Z" fill="#231F20"/>
<path d="M537.354 684.204C460.19 684.204 422.446 666.537 422.132 666.327C421.723 666.124 421.411 665.769 421.261 665.339C421.111 664.908 421.135 664.436 421.329 664.023C421.426 663.813 421.564 663.625 421.735 663.469C421.906 663.313 422.106 663.193 422.323 663.115C422.541 663.037 422.772 663.003 423.003 663.015C423.234 663.027 423.46 663.085 423.668 663.185C424.017 663.185 461.168 680.643 537.424 680.643C613.68 680.643 650.83 663.185 651.179 663.185C651.388 663.085 651.614 663.027 651.845 663.015C652.076 663.003 652.306 663.037 652.524 663.115C652.742 663.193 652.942 663.313 653.112 663.469C653.283 663.625 653.421 663.813 653.519 664.023C653.619 664.227 653.678 664.448 653.692 664.675C653.706 664.902 653.675 665.129 653.6 665.343C653.525 665.558 653.409 665.755 653.257 665.924C653.105 666.093 652.921 666.23 652.716 666.327C652.262 666.502 614.518 684.204 537.354 684.204Z" fill="#231F20"/>
<path d="M413.612 698.939C411.594 698.939 409.658 698.137 408.23 696.709C406.803 695.282 406.001 693.346 406.001 691.327V586.196C406.001 573.981 401.149 562.267 392.512 553.631C383.875 544.994 372.161 540.142 359.947 540.142C347.733 540.142 336.019 544.994 327.382 553.631C318.745 562.267 313.893 573.981 313.893 586.196V691.397C313.762 693.331 312.901 695.143 311.485 696.467C310.069 697.791 308.202 698.527 306.264 698.527C304.325 698.527 302.459 697.791 301.043 696.467C299.626 695.143 298.766 693.331 298.635 691.397V586.196C298.635 569.93 305.096 554.33 316.598 542.829C328.099 531.327 343.699 524.866 359.964 524.866C376.23 524.866 391.829 531.327 403.331 542.829C414.832 554.33 421.294 569.93 421.294 586.196V691.397C421.285 692.396 421.079 693.384 420.688 694.304C420.297 695.224 419.729 696.058 419.015 696.759C418.302 697.459 417.458 698.012 416.531 698.386C415.604 698.76 414.612 698.948 413.612 698.939Z" fill="#231F20"/>
<path d="M359.947 601.07C329.835 601.097 300.965 613.074 279.676 634.369C258.387 655.665 246.419 684.539 246.401 714.651C246.35 740.309 255.087 765.212 271.156 785.215C271.329 785.44 271.551 785.623 271.805 785.75C272.059 785.877 272.338 785.945 272.622 785.949H447.481C447.764 785.945 448.044 785.877 448.298 785.75C448.552 785.623 448.774 785.44 448.947 785.215C465.004 765.207 473.727 740.305 473.667 714.651C473.64 684.511 461.645 655.617 440.32 634.318C418.995 613.019 390.086 601.06 359.947 601.07Z" fill="#231F20"/>
<path d="M327.232 699.108H314.187L314.049 705.562C314.477 705.41 315.011 705.303 315.652 705.242C316.323 705.181 316.948 705.15 317.528 705.15C319.115 705.15 320.565 705.41 321.877 705.928C323.22 706.417 324.364 707.134 325.31 708.08C326.256 709.026 326.988 710.155 327.507 711.467C328.056 712.779 328.331 714.259 328.331 715.907C328.331 717.647 328.026 719.218 327.416 720.622C326.836 721.995 326.012 723.17 324.944 724.147C323.906 725.093 322.67 725.825 321.236 726.344C319.802 726.863 318.261 727.122 316.613 727.122C314.019 727.122 311.806 726.512 309.975 725.291C308.175 724.07 306.893 722.209 306.13 719.707L311.898 718.15C312.264 719.31 312.89 720.225 313.775 720.897C314.66 721.568 315.804 721.904 317.208 721.904C318.032 721.904 318.779 721.766 319.451 721.492C320.153 721.217 320.748 720.836 321.236 720.347C321.755 719.829 322.152 719.234 322.426 718.562C322.701 717.891 322.838 717.158 322.838 716.365C322.838 715.236 322.625 714.275 322.197 713.481C321.801 712.688 321.251 712.047 320.549 711.559C319.848 711.04 319.039 710.674 318.123 710.46C317.208 710.216 316.247 710.094 315.24 710.094C314.049 710.094 312.859 710.231 311.669 710.506C310.51 710.781 309.441 711.162 308.465 711.65L308.785 694.164H327.232V699.108ZM348.366 694.164H354.134V707.897H354.409L367.821 694.164H375.602L360.451 709.133L376.609 726.573H368.507L354.454 710.643H354.134V726.573H348.366V694.164ZM408.495 724.192C404.497 726.329 400.026 727.397 395.083 727.397C392.58 727.397 390.276 727 388.171 726.207C386.095 725.383 384.295 724.238 382.769 722.773C381.274 721.278 380.099 719.493 379.245 717.418C378.39 715.343 377.963 713.039 377.963 710.506C377.963 707.912 378.39 705.562 379.245 703.457C380.099 701.32 381.274 699.505 382.769 698.009C384.295 696.514 386.095 695.37 388.171 694.576C390.276 693.752 392.58 693.34 395.083 693.34C397.554 693.34 399.874 693.646 402.04 694.256C404.207 694.836 406.145 695.889 407.854 697.414L403.597 701.717C402.559 700.71 401.293 699.932 399.797 699.383C398.333 698.833 396.776 698.559 395.128 698.559C393.45 698.559 391.924 698.864 390.551 699.474C389.208 700.054 388.049 700.878 387.072 701.946C386.095 702.984 385.333 704.204 384.783 705.608C384.265 707.012 384.005 708.522 384.005 710.14C384.005 711.879 384.265 713.481 384.783 714.946C385.333 716.411 386.095 717.677 387.072 718.745C388.049 719.813 389.208 720.653 390.551 721.263C391.924 721.873 393.45 722.178 395.128 722.178C396.593 722.178 397.966 722.041 399.248 721.766C400.56 721.492 401.72 721.065 402.727 720.485V712.84H396.09V707.622H408.495V724.192Z" fill="white"/>
<path d="M957.007 709.378C952.433 673.834 922.615 673.275 922.615 655.503C922.615 637.731 948.347 629.247 928.83 599.638C913.501 576.384 864.794 577.816 850.618 597.613C833.509 621.495 853.865 637.766 853.865 655.538C853.865 673.31 824.047 673.869 819.473 709.413C814.899 744.957 828.063 779.245 888.223 779.245C948.382 779.245 961.581 744.922 957.007 709.378Z" fill="white"/>
<path d="M888.222 781.026C861.337 781.026 841.714 774.043 829.843 760.74C819.159 748.554 814.969 730.712 817.727 709.169C820.486 687.626 831.694 678.967 840.702 671.6C847.057 666.397 852.119 662.277 852.119 655.504C851.676 649.441 850.088 643.518 847.441 638.046C842.727 626.314 837.385 612.976 849.186 596.461C856.344 586.475 872.545 580.33 890.387 580.609C908.229 580.889 923.103 587.592 930.261 598.521C943.564 618.702 936.65 629.945 930.505 639.757C927.363 644.854 924.36 649.673 924.36 655.399C924.36 662.173 929.388 666.293 935.778 671.495C944.786 678.862 956.029 688.045 958.752 709.064C961.476 730.084 957.321 748.449 946.636 760.635C934.765 774.217 915.142 781.026 888.222 781.026ZM888.921 584.206C872.72 584.206 858.369 589.792 852.049 598.591C841.33 613.57 846.079 625.406 850.688 636.998C853.499 642.844 855.169 649.172 855.611 655.643C855.611 664.093 849.71 668.876 842.902 674.428C834.347 681.411 823.733 690.105 821.184 709.728C818.565 730.293 822.441 747.158 832.497 758.61C843.635 771.284 862.385 777.709 888.362 777.709C914.339 777.709 932.984 771.284 944.227 758.61C954.283 747.192 958.193 730.328 955.505 709.728C952.991 690.105 942.342 681.411 933.822 674.428C926.839 668.876 921.113 663.953 921.113 655.643C921.629 649.302 923.956 643.242 927.817 638.185C933.892 628.339 939.653 619.052 927.607 600.721C921.078 590.805 907.216 584.729 890.562 584.38L888.921 584.206Z" fill="#231F20"/>
<path d="M888.152 594.576H887.873C887.419 594.498 887.012 594.248 886.738 593.876C886.465 593.505 886.346 593.042 886.407 592.585C886.581 591.398 890.841 563.92 898.976 554.562C899.128 554.388 899.312 554.245 899.518 554.142C899.725 554.039 899.949 553.978 900.18 553.961C900.41 553.945 900.641 553.974 900.86 554.048C901.079 554.121 901.281 554.236 901.455 554.387C901.63 554.539 901.772 554.723 901.875 554.929C901.978 555.136 902.04 555.361 902.056 555.591C902.072 555.821 902.043 556.052 901.97 556.271C901.897 556.49 901.781 556.692 901.63 556.867C894.123 565.456 889.898 592.83 889.863 593.109C889.804 593.519 889.598 593.894 889.283 594.164C888.969 594.433 888.567 594.58 888.152 594.576Z" fill="#231F20"/>
<path d="M892.657 577.292C892.657 577.292 891.26 546.776 854.249 547.683C854.249 547.788 851.281 577.711 892.657 577.292Z" fill="#68E1FD"/>
<path d="M923.697 624.603C923.265 624.597 922.849 624.435 922.528 624.146C922.207 623.857 922.002 623.461 921.951 623.031C920.24 604.282 908.683 598.067 908.194 597.822C907.973 597.73 907.772 597.593 907.606 597.42C907.44 597.247 907.311 597.041 907.228 596.816C907.145 596.591 907.109 596.351 907.122 596.111C907.136 595.871 907.199 595.637 907.307 595.423C907.416 595.209 907.567 595.019 907.752 594.866C907.937 594.713 908.151 594.6 908.382 594.533C908.613 594.467 908.855 594.448 909.093 594.48C909.331 594.511 909.56 594.591 909.765 594.715C910.324 594.994 923.522 601.942 925.443 622.647C925.467 622.875 925.445 623.105 925.378 623.324C925.312 623.543 925.202 623.746 925.056 623.922C924.909 624.098 924.729 624.243 924.525 624.348C924.322 624.452 924.1 624.515 923.871 624.533L923.697 624.603Z" fill="#D1D3D4"/>
<path d="M917.447 640.036C917.138 640.025 916.838 639.933 916.575 639.771C916.312 639.608 916.096 639.38 915.948 639.109C915.8 638.838 915.726 638.533 915.731 638.224C915.737 637.915 915.823 637.613 915.98 637.347C917.198 635.312 918.26 633.188 919.158 630.993C919.329 630.562 919.664 630.217 920.09 630.034C920.516 629.851 920.997 629.844 921.427 630.015C921.858 630.186 922.203 630.522 922.386 630.947C922.569 631.373 922.576 631.854 922.405 632.285C921.412 634.694 920.245 637.028 918.913 639.268C918.747 639.503 918.528 639.695 918.273 639.829C918.018 639.962 917.735 640.033 917.447 640.036Z" fill="#D1D3D4"/>
<path d="M714.516 522.894H849.92V779.315H714.516V522.894Z" fill="white"/>
<path d="M849.92 781.026H714.586C714.123 781.026 713.679 780.842 713.352 780.514C713.024 780.187 712.841 779.743 712.841 779.28V522.893C712.841 522.43 713.024 521.986 713.352 521.659C713.679 521.332 714.123 521.148 714.586 521.148H849.99C850.453 521.148 850.897 521.332 851.224 521.659C851.551 521.986 851.735 522.43 851.735 522.893V779.28C851.736 779.515 851.688 779.748 851.596 779.965C851.504 780.181 851.369 780.377 851.2 780.54C851.03 780.703 850.829 780.83 850.609 780.914C850.389 780.997 850.155 781.035 849.92 781.026ZM716.262 777.534H848.174V524.639H716.262V777.534Z" fill="#231F20"/>
<path d="M824.815 473.174H739.656L714.516 522.894H849.92L824.815 473.174Z" fill="white"/>
<path d="M849.92 524.64H714.586C714.29 524.639 714 524.561 713.743 524.414C713.485 524.267 713.271 524.056 713.12 523.802C712.973 523.54 712.896 523.246 712.896 522.946C712.896 522.647 712.973 522.352 713.12 522.091L738.224 472.406C738.367 472.121 738.587 471.882 738.858 471.716C739.13 471.549 739.442 471.461 739.761 471.463H824.955C825.274 471.457 825.589 471.543 825.861 471.71C826.133 471.877 826.352 472.118 826.491 472.406L851.631 522.091C851.768 522.355 851.84 522.648 851.84 522.946C851.84 523.244 851.768 523.538 851.631 523.802C851.451 524.086 851.196 524.315 850.894 524.463C850.592 524.611 850.255 524.672 849.92 524.64ZM717.24 521.148H847.266L823.908 474.954H740.703L717.24 521.148Z" fill="#231F20"/>
<path d="M739.167 459.452H825.269V473.174H739.167V459.452Z" fill="white"/>
<path d="M825.269 474.954H739.027C738.567 474.946 738.128 474.759 737.803 474.433C737.477 474.108 737.29 473.669 737.282 473.209V459.452C737.282 458.989 737.466 458.545 737.793 458.217C738.12 457.89 738.564 457.706 739.027 457.706H825.269C825.732 457.706 826.176 457.89 826.504 458.217C826.831 458.545 827.015 458.989 827.015 459.452V473.209C827.015 473.672 826.831 474.116 826.504 474.443C826.176 474.771 825.732 474.954 825.269 474.954ZM740.913 471.463H823.524V461.198H740.913V471.463Z" fill="#231F20"/>
<path d="M730.752 577.501H833.719V680.468H730.752V577.501Z" fill="#68E1FD"/>
<path d="M737.631 708.156C737.631 749.602 712.806 788.777 662.562 776.975C609.245 789.406 587.528 749.602 587.528 708.156C587.528 666.711 621.641 658.541 662.562 672.333C702.261 656.691 737.631 666.711 737.631 708.156Z" fill="white"/>
<path d="M643.707 781.061C631.594 781.371 619.748 777.472 610.188 770.028C594.686 757.702 585.747 735.112 585.747 708.157C585.747 691.642 590.949 679.526 601.25 672.159C614.762 662.417 636.515 661.684 662.492 670.483C686.514 661.16 708.371 661.3 722.512 670.902C733.511 678.409 739.342 691.292 739.342 708.157C739.342 733.96 729.844 757.039 713.958 769.469C700.445 780.188 682.534 783.435 662.527 778.791C656.357 780.243 650.045 781.004 643.707 781.061ZM629.147 667.864C620.016 667.428 610.978 669.871 603.31 674.847C593.987 681.516 589.343 692.689 589.343 708.017C589.343 733.96 597.758 755.503 612.423 767.164C625.097 777.22 641.857 779.909 662.247 775.16C662.511 775.091 662.787 775.091 663.051 775.16C682.254 779.664 699.153 776.696 711.933 766.606C726.981 754.665 735.99 732.772 735.99 708.017C735.99 692.34 730.682 680.469 720.662 673.66C707.394 664.617 686.479 664.687 663.33 673.66C662.934 673.798 662.503 673.798 662.108 673.66C651.5 669.983 640.373 668.026 629.147 667.864Z" fill="#231F20"/>
<path d="M662.562 674.079H662.212C661.758 674.001 661.351 673.751 661.078 673.379C660.804 673.008 660.685 672.545 660.746 672.088C660.746 670.901 665.25 642.864 673.56 633.332C673.708 633.148 673.891 632.997 674.099 632.886C674.307 632.775 674.536 632.708 674.771 632.688C675.005 632.667 675.242 632.695 675.466 632.769C675.69 632.842 675.896 632.961 676.073 633.116C676.25 633.272 676.394 633.462 676.495 633.675C676.597 633.887 676.654 634.118 676.664 634.354C676.674 634.589 676.636 634.824 676.553 635.045C676.469 635.265 676.342 635.466 676.179 635.636C668.567 644.4 664.238 672.333 664.203 672.612C664.133 673.005 663.933 673.363 663.636 673.629C663.338 673.895 662.96 674.053 662.562 674.079Z" fill="#231F20"/>
<path d="M667.275 656.481C667.275 656.481 665.844 625.371 628.17 626.279C628.17 626.279 624.992 656.9 667.275 656.481Z" fill="#68E1FD"/>
<path d="M722.128 727.255C721.9 727.246 721.676 727.192 721.47 727.095C721.263 726.999 721.078 726.862 720.925 726.693C720.773 726.524 720.655 726.326 720.58 726.11C720.504 725.895 720.473 725.667 720.487 725.439C721.43 707.144 718.148 693.352 710.955 685.531C707.842 681.812 703.415 679.436 698.595 678.897C698.366 678.888 698.14 678.834 697.932 678.737C697.723 678.641 697.536 678.505 697.38 678.336C697.225 678.168 697.104 677.97 697.025 677.755C696.945 677.539 696.91 677.31 696.919 677.081C696.918 676.852 696.965 676.625 697.056 676.415C697.146 676.204 697.279 676.014 697.446 675.857C697.613 675.7 697.81 675.579 698.026 675.501C698.242 675.424 698.471 675.391 698.7 675.405C704.413 675.96 709.691 678.7 713.434 683.052C721.43 691.676 724.991 705.991 723.909 725.614C723.874 726.062 723.671 726.479 723.34 726.784C723.01 727.088 722.577 727.256 722.128 727.255Z" fill="#D1D3D4"/>
</svg>
