<svg width="1004" height="1324" viewBox="0 0 1004 1324" fill="none" xmlns="http://www.w3.org/2000/svg">
<path d="M502.242 11.8933C538.436 7.34766 574.947 5.8541 611.391 7.42847C636.188 8.11538 663.801 10.6569 680.562 29.5467C697.322 48.4365 689.148 87.8646 664.351 87.6585L771.027 113.143C791.634 118.02 815.332 126.262 820.621 147.488C826.322 170.155 805.715 190.075 787.375 204.02C806.883 264.948 832.092 318.732 832.092 384.606V494.579H182.559V384.262C182.559 260.62 219.789 165.141 286.487 63.617C294.523 51.4588 308.33 37.6521 320.832 44.8646C329.762 50.085 330.723 62.8614 329.761 73.4397C327.638 97.9169 321.536 121.884 311.696 144.397C332.303 87.9333 382.996 47.4061 438.223 27.6234C458.987 20.2646 480.433 14.9952 502.242 11.8933Z" fill="#725858"/>
<path d="M832.092 501.447H182.559C180.737 501.447 178.99 500.724 177.702 499.435C176.413 498.147 175.69 496.4 175.69 494.578V384.262C175.69 268.863 207.15 171.872 280.786 59.9074C294.524 38.9569 310.734 31.1262 324.198 38.9569C333.952 44.5895 337.936 56.4042 336.562 73.9889C336.104 79.6215 335.417 85.1854 334.501 90.6806C361.327 58.6985 396.351 34.6206 435.819 21.0288C457.151 13.4796 479.202 8.13964 501.624 5.0927C538.206 0.509365 575.108 -0.984185 611.941 0.627858C639.829 1.38345 668.129 4.81796 685.988 24.9442C691.589 31.9345 695.144 40.3392 696.259 49.2265C697.375 58.1139 696.007 67.1365 692.308 75.294C690.608 79.0872 688.287 82.5698 685.439 85.5975L772.881 106.205C795.137 111.494 821.377 120.698 827.834 145.152C834.703 172.628 809.012 195.639 795.961 205.874C799.739 217.551 803.792 229.091 807.707 240.219C824.056 287.066 839.511 331.302 839.511 383.919V494.578C839.514 495.529 839.32 496.469 838.941 497.34C838.562 498.212 838.006 498.995 837.309 499.641C836.612 500.286 835.788 500.78 834.89 501.091C833.992 501.402 833.039 501.523 832.092 501.447ZM189.084 487.709H825.223V384.262C825.223 333.981 810.111 290.844 794.175 245.096C789.711 232.388 785.108 219.2 780.85 205.736C780.42 204.383 780.421 202.93 780.851 201.577C781.282 200.224 782.121 199.037 783.254 198.181C807.57 179.703 817.599 163.836 813.958 148.792C809.562 131.482 787.856 124.27 769.447 119.874L662.702 94.3899C661.053 93.9967 659.608 93.0075 658.644 91.6126C657.68 90.2177 657.266 88.5156 657.482 86.8339C657.685 85.1585 658.497 83.6162 659.764 82.5014C661.031 81.3865 662.664 80.777 664.351 80.7892C667.664 80.5777 670.845 79.4064 673.504 77.4182C676.163 75.4301 678.186 72.711 679.326 69.5927C681.929 63.8612 682.928 57.5301 682.214 51.2754C681.5 45.0208 679.101 39.0774 675.273 34.0799C660.161 17.0448 634.059 14.9841 611.048 14.2972C574.994 12.7933 538.878 14.2636 503.067 18.6933C481.575 21.6068 460.443 26.7402 440.009 34.0112C385.607 53.5192 342.332 91.2301 322 136.016C320.58 139.771 319.069 143.48 317.466 147.144C316.792 148.838 315.472 150.195 313.798 150.917C312.123 151.638 310.231 151.665 308.536 150.99C306.842 150.316 305.485 148.997 304.764 147.322C304.042 145.648 304.016 143.755 304.69 142.061C306.132 138.145 307.712 134.299 309.429 130.452C316.336 111.915 320.703 92.529 322.412 72.8211C322.961 65.9521 323.03 54.4122 316.848 50.8403C306.888 45.0016 293.287 65.1278 291.776 67.3946C219.72 176.955 188.741 271.748 188.741 384.262L189.084 487.709Z" fill="#093F68"/>
<path d="M455.533 848.538V756.218H556.508V848.538" fill="#FFC9B0"/>
<path d="M556.507 855.407C554.686 855.407 552.939 854.683 551.65 853.395C550.362 852.107 549.638 850.36 549.638 848.538V763.087H462.402V848.538C462.402 850.36 461.678 852.107 460.39 853.395C459.102 854.683 457.355 855.407 455.533 855.407C453.711 855.407 451.964 854.683 450.676 853.395C449.388 852.107 448.664 850.36 448.664 848.538V756.218C448.664 754.397 449.388 752.649 450.676 751.361C451.964 750.073 453.711 749.349 455.533 749.349H556.507C558.329 749.349 560.076 750.073 561.365 751.361C562.653 752.649 563.377 754.397 563.377 756.218V848.538C563.377 850.36 562.653 852.107 561.365 853.395C560.076 854.683 558.329 855.407 556.507 855.407Z" fill="#093F68"/>
<path d="M244.587 590.469C293.638 590.469 333.403 552.611 333.403 505.912C333.403 459.212 293.638 421.354 244.587 421.354C195.535 421.354 155.77 459.212 155.77 505.912C155.77 552.611 195.535 590.469 244.587 590.469Z" fill="#FFC9B0"/>
<path d="M244.38 597.271C191.626 597.271 148.695 556.057 148.695 505.913C148.695 455.769 191.832 414.212 244.38 414.212C296.928 414.212 340.546 455.426 340.546 505.913C340.546 556.4 297.34 597.271 244.38 597.271ZM244.38 427.95C199.182 427.95 162.433 462.776 162.433 505.638C162.433 548.501 199.182 583.258 244.38 583.258C289.578 583.258 326.808 548.707 326.808 505.913C326.808 463.119 289.785 427.95 244.38 427.95Z" fill="#093F68"/>
<path d="M762.236 590.469C811.288 590.469 851.052 552.611 851.052 505.912C851.052 459.212 811.288 421.354 762.236 421.354C713.184 421.354 673.42 459.212 673.42 505.912C673.42 552.611 713.184 590.469 762.236 590.469Z" fill="#FFC9B0"/>
<path d="M762.236 597.271C709.482 597.271 666.551 556.057 666.551 505.913C666.551 455.769 709.482 414.212 762.236 414.212C814.99 414.212 857.921 455.426 857.921 505.638C857.921 555.851 814.99 597.271 762.236 597.271ZM762.236 428.224C717.038 428.224 680.289 463.05 680.289 505.913C680.289 548.776 717.038 583.533 762.236 583.533C807.434 583.533 844.183 548.707 844.183 505.913C844.183 463.119 807.64 427.95 762.236 427.95V428.224Z" fill="#093F68"/>
<path d="M763.403 340.713C786.208 380.965 789.368 426.369 789.368 485.58C789.578 526.433 781.464 566.9 765.521 604.514C749.578 642.128 726.14 676.1 696.636 704.358C646.829 752.352 580.754 779.794 511.601 781.208C442.448 782.621 375.306 757.901 323.58 711.983C291.599 683.556 266.055 648.629 248.653 609.539C231.252 570.448 222.395 528.093 222.674 485.305C222.674 408.441 216.355 321.136 280.511 267.833C285.206 297.844 301.267 324.899 325.366 343.392C335.257 351.222 375.235 380.072 389.248 369.356C403.261 358.641 387.393 291.393 385.607 273.19C386.088 278.205 405.115 290.019 409.031 294.484C414.857 302.047 421.314 309.101 428.333 315.572C447.575 331.474 469.143 344.331 492.283 353.695C516.462 363.449 544.075 369.15 568.323 359.534C592.571 349.917 609.537 320.312 598.547 296.82C602.874 305.887 621.352 311.932 629.251 317.427C637.15 322.922 642.096 330.134 649.858 334.05C668.061 343.186 700.345 335.561 699.246 310.695C699.246 303.826 695.606 297.644 695.331 290.844C695.056 284.043 700.139 276.075 706.39 277.861C729.522 294.659 748.932 316.058 763.403 340.713Z" fill="#FFC9B0"/>
<path d="M506.021 788.229C437.126 788.044 370.658 762.771 319.046 717.135C286.419 688.065 260.356 652.38 242.59 612.455C224.825 572.53 215.764 529.279 216.011 485.581C216.011 479.33 216.011 473.079 216.011 466.691C215.599 395.047 215.049 313.855 276.458 262.819C277.402 262.041 278.536 261.528 279.744 261.335C280.951 261.142 282.188 261.275 283.327 261.72C284.471 262.18 285.47 262.939 286.22 263.918C286.969 264.897 287.441 266.059 287.586 267.284C291.88 295.601 306.939 321.168 329.625 338.653C350.232 355.069 378.257 369.7 385.057 364.549C393.163 358.367 384.508 309.597 381.692 293.248C380.318 285.28 379.15 278.961 378.738 274.771C378.643 273.868 378.728 272.955 378.988 272.085C379.248 271.216 379.678 270.406 380.253 269.703C380.828 269.001 381.536 268.419 382.337 267.992C383.139 267.565 384.016 267.301 384.92 267.215C386.539 267.063 388.159 267.491 389.493 268.422C390.826 269.352 391.786 270.726 392.201 272.298C396.001 276.163 400.139 279.68 404.566 282.807C407.985 285.194 411.202 287.859 414.182 290.776C416.105 292.974 417.891 295.172 419.677 297.645C423.553 302.63 427.901 307.231 432.66 311.383C451.363 326.834 472.329 339.321 494.824 348.407C523.056 359.74 546.891 361.732 565.781 354.245C571.849 351.69 577.342 347.941 581.932 343.221C586.522 338.501 590.117 332.906 592.502 326.769C594.316 322.645 595.253 318.189 595.253 313.684C595.253 309.178 594.316 304.722 592.502 300.598C591.867 298.982 591.868 297.184 592.505 295.569C593.141 293.953 594.367 292.638 595.934 291.889C597.501 291.14 599.294 291.013 600.951 291.533C602.608 292.053 604.007 293.181 604.866 294.691C606.858 298.744 615.856 303.277 622.45 306.574C626.203 308.338 629.829 310.357 633.303 312.619C636.552 314.984 639.628 317.578 642.508 320.381C645.655 323.679 649.264 326.502 653.224 328.761C658.215 330.995 663.667 332.004 669.127 331.705C674.587 331.406 679.897 329.808 684.615 327.044C687.242 325.503 689.387 323.259 690.807 320.565C692.227 317.87 692.866 314.833 692.652 311.795C692.377 308.948 691.801 306.139 690.935 303.415C689.788 299.705 689.051 295.882 688.736 292.012C688.605 288.743 689.217 285.487 690.526 282.489C691.835 279.491 693.806 276.828 696.292 274.702C697.986 273.32 699.986 272.362 702.124 271.908C704.263 271.454 706.479 271.517 708.588 272.092C709.402 272.356 710.167 272.75 710.855 273.26C734.58 290.42 754.543 312.254 769.516 337.416C792.115 377.256 796.374 420.256 796.374 485.649C796.507 527.459 788.156 568.862 771.828 607.352C755.499 645.842 731.532 680.619 701.375 709.579C648.819 759.98 578.839 788.155 506.021 788.229ZM276.046 281.434C228.513 328.486 228.994 398.619 229.406 466.897V485.855C229.17 527.611 237.839 568.937 254.837 607.077C271.834 645.217 296.768 679.295 327.976 707.038C378.418 751.913 443.945 776.088 511.446 774.725C578.947 773.362 643.444 746.563 692.034 699.688C720.8 672.017 743.66 638.802 759.232 602.05C774.804 565.297 782.766 525.77 782.636 485.855C782.636 422.798 778.652 381.584 757.564 344.422C744.037 321.447 726.026 301.427 704.604 285.555C703.342 287.212 702.665 289.242 702.681 291.325C702.962 294.148 703.538 296.933 704.398 299.637C705.557 303.366 706.294 307.214 706.596 311.108C706.921 316.552 705.765 321.982 703.249 326.82C700.733 331.658 696.952 335.724 692.308 338.584C685.573 342.651 677.942 345.004 670.086 345.435C662.23 345.866 654.388 344.363 647.248 341.057C642.19 338.172 637.565 334.588 633.51 330.41C631.12 327.957 628.573 325.663 625.885 323.541C622.925 321.658 619.851 319.96 616.681 318.458C614.299 317.313 611.895 316.076 609.468 314.748C609.206 320.493 608 326.156 605.896 331.509C602.764 339.308 598.115 346.407 592.22 352.397C586.324 358.387 579.299 363.147 571.551 366.403C549.296 375.264 522.026 373.272 490.497 360.565C466.675 350.954 444.479 337.724 424.692 321.343C419.033 316.75 413.855 311.594 409.236 305.956C407.519 303.895 405.871 301.835 404.016 299.774C401.584 297.603 399.039 295.562 396.391 293.66L395.773 293.18C402.642 332.264 406.901 365.236 393.506 375.608C374.96 389.758 333.471 359.26 321.244 349.574C299.098 332.446 283.213 308.498 276.046 281.434Z" fill="#093F68"/>
<path d="M520.102 584.769C511.265 584.741 502.445 584.006 493.725 582.571C492.83 582.421 491.974 582.096 491.206 581.614C490.437 581.132 489.772 580.502 489.248 579.761C488.724 579.02 488.353 578.183 488.154 577.298C487.956 576.412 487.935 575.496 488.093 574.603C488.25 573.714 488.581 572.865 489.067 572.105C489.553 571.344 490.184 570.686 490.924 570.17C491.664 569.653 492.498 569.287 493.38 569.093C494.261 568.899 495.172 568.881 496.061 569.039C510.155 571.441 524.554 571.441 538.649 569.039C541.74 563.887 530.887 531.878 515.431 502.135C514.937 501.331 514.614 500.434 514.481 499.5C514.349 498.565 514.411 497.614 514.662 496.704C514.914 495.795 515.351 494.947 515.945 494.214C516.539 493.48 517.277 492.877 518.115 492.442C518.952 492.007 519.87 491.749 520.811 491.684C521.753 491.619 522.698 491.749 523.587 492.066C524.476 492.382 525.29 492.879 525.978 493.524C526.667 494.169 527.216 494.949 527.589 495.815C535.008 509.966 558.5 557.637 550.738 574.878C549.95 576.72 548.746 578.354 547.22 579.653C545.695 580.952 543.89 581.88 541.946 582.365C534.786 584.031 527.453 584.838 520.102 584.769Z" fill="#093F68"/>
<path d="M630.418 530.298C644.53 530.298 655.971 518.858 655.971 504.745C655.971 490.633 644.53 479.193 630.418 479.193C616.306 479.193 604.865 490.633 604.865 504.745C604.865 518.858 616.306 530.298 630.418 530.298Z" fill="#093F68"/>
<path d="M389.661 520.132C403.773 520.132 415.213 508.692 415.213 494.579C415.213 480.467 403.773 469.027 389.661 469.027C375.548 469.027 364.108 480.467 364.108 494.579C364.108 508.692 375.548 520.132 389.661 520.132Z" fill="#093F68"/>
<path d="M431.903 426.919H309.223C305.579 426.919 302.085 425.471 299.509 422.895C296.932 420.319 295.485 416.824 295.485 413.181C295.485 409.537 296.932 406.043 299.509 403.466C302.085 400.89 305.579 399.443 309.223 399.443H431.903C435.547 399.443 439.041 400.89 441.618 403.466C444.194 406.043 445.641 409.537 445.641 413.181C445.641 416.824 444.194 420.319 441.618 422.895C439.041 425.471 435.547 426.919 431.903 426.919Z" fill="#093F68"/>
<path d="M705.084 426.919H582.472C578.829 426.919 575.335 425.471 572.758 422.895C570.182 420.319 568.734 416.824 568.734 413.181C568.734 409.537 570.182 406.043 572.758 403.466C575.335 400.89 578.829 399.443 582.472 399.443H705.084C708.728 399.443 712.222 400.89 714.798 403.466C717.375 406.043 718.822 409.537 718.822 413.181C718.822 416.824 717.375 420.319 714.798 422.895C712.222 425.471 708.728 426.919 705.084 426.919Z" fill="#093F68"/>
<path d="M391.171 629.83C391.171 669.395 440.079 701.405 500.389 701.405C560.699 701.405 609.606 669.395 609.606 629.83H391.171Z" fill="#093F68"/>
<path d="M500.389 708.274C436.369 708.274 384.371 673.104 384.371 629.829C384.371 628.008 385.095 626.261 386.383 624.972C387.671 623.684 389.418 622.96 391.24 622.96H609.606C611.428 622.96 613.175 623.684 614.463 624.972C615.751 626.261 616.475 628.008 616.475 629.829C616.475 673.104 564.408 708.274 500.389 708.274ZM398.659 636.698C404.085 669.189 447.635 694.536 500.389 694.536C553.143 694.536 596.555 669.189 602.119 636.698H398.659Z" fill="#093F68"/>
<path d="M805.854 218.924H205.915C192.827 218.924 182.217 229.534 182.217 242.622V259.039C182.217 272.127 192.827 282.737 205.915 282.737H805.854C818.942 282.737 829.552 272.127 829.552 259.039V242.622C829.552 229.534 818.942 218.924 805.854 218.924Z" fill="#68E1FD"/>
<path d="M805.853 289.606H205.982C197.917 289.516 190.212 286.248 184.541 280.513C178.87 274.777 175.689 267.037 175.69 258.971V242.485C175.708 234.372 178.944 226.597 184.687 220.867C190.43 215.136 198.212 211.918 206.326 211.918H806.196C814.25 212.008 821.944 215.266 827.613 220.987C833.282 226.708 836.471 234.431 836.488 242.485V258.971C836.488 267.096 833.261 274.888 827.515 280.633C821.77 286.379 813.978 289.606 805.853 289.606ZM205.982 225.793C201.596 225.882 197.416 227.674 194.326 230.789C191.237 233.904 189.48 238.098 189.428 242.485V258.971C189.428 263.452 191.208 267.75 194.377 270.919C197.546 274.088 201.844 275.868 206.326 275.868H806.196C810.678 275.868 814.976 274.088 818.145 270.919C821.314 267.75 823.094 263.452 823.094 258.971V242.485C823.076 238.015 821.287 233.735 818.12 230.581C814.953 227.427 810.666 225.656 806.196 225.656L205.982 225.793Z" fill="#093F68"/>
<path d="M505.952 327.729C551.703 327.729 588.792 290.64 588.792 244.889C588.792 199.138 551.703 162.049 505.952 162.049C460.2 162.049 423.112 199.138 423.112 244.889C423.112 290.64 460.2 327.729 505.952 327.729Z" fill="white"/>
<path d="M505.952 334.667C488.192 334.681 470.828 329.427 456.055 319.57C441.282 309.714 429.764 295.697 422.959 279.293C416.153 262.89 414.365 244.836 417.822 227.417C421.278 209.997 429.823 193.994 442.376 181.431C454.929 168.868 470.926 160.311 488.343 156.841C505.76 153.372 523.815 155.146 540.224 161.939C556.632 168.732 570.658 180.239 580.526 195.004C590.394 209.77 595.661 227.13 595.661 244.889C595.643 268.682 586.188 291.497 569.37 308.328C552.552 325.158 529.745 334.631 505.952 334.667ZM505.952 168.918C490.907 168.904 476.195 173.354 463.68 181.704C451.165 190.055 441.408 201.93 435.644 215.827C429.881 229.724 428.369 245.019 431.301 259.776C434.233 274.532 441.476 288.088 452.115 298.726C462.753 309.365 476.308 316.608 491.065 319.54C505.822 322.472 521.117 320.96 535.014 315.197C548.911 309.433 560.786 299.676 569.136 287.161C577.487 274.645 581.936 259.934 581.923 244.889C581.887 224.752 573.871 205.449 559.631 191.21C545.392 176.97 526.089 168.954 505.952 168.918Z" fill="#093F68"/>
<path d="M505.953 287.34C497.554 287.354 489.34 284.876 482.35 280.22C475.36 275.563 469.908 268.938 466.685 261.183C463.461 253.427 462.611 244.89 464.241 236.65C465.871 228.411 469.909 220.841 475.843 214.897C481.777 208.954 489.341 204.904 497.577 203.26C505.814 201.617 514.352 202.453 522.113 205.664C529.874 208.875 536.508 214.316 541.176 221.299C545.843 228.281 548.335 236.491 548.335 244.89C548.335 256.137 543.872 266.924 535.925 274.883C527.979 282.842 517.2 287.322 505.953 287.34ZM505.953 216.246C500.268 216.233 494.708 217.907 489.975 221.056C485.243 224.206 481.552 228.69 479.371 233.939C477.189 239.188 476.614 244.967 477.72 250.543C478.826 256.119 481.562 261.242 485.581 265.261C489.601 269.281 494.723 272.017 500.3 273.123C505.876 274.228 511.654 273.654 516.904 271.472C522.153 269.291 526.637 265.6 529.786 260.867C532.936 256.135 534.61 250.575 534.597 244.89C534.578 237.299 531.555 230.024 526.187 224.656C520.819 219.288 513.544 216.264 505.953 216.246Z" fill="#DFEAEF"/>
<path d="M433.003 818.314H599.301C642.532 818.314 683.992 835.488 714.561 866.056C745.13 896.625 762.303 938.085 762.303 981.316V1260.61H270.07V981.316C270.07 938.097 287.234 896.648 317.788 866.081C348.341 835.514 389.784 818.333 433.003 818.314Z" fill="#68E1FD"/>
<path d="M762.234 1267.48H270.07C268.248 1267.48 266.501 1266.76 265.213 1265.47C263.924 1264.18 263.201 1262.43 263.201 1260.61V981.316C263.237 936.286 281.136 893.111 312.971 861.264C344.805 829.417 387.973 811.5 433.003 811.445H599.301C644.331 811.5 687.499 829.417 719.333 861.264C751.168 893.111 769.067 936.286 769.103 981.316V1260.61C769.103 1262.43 768.38 1264.18 767.091 1265.47C765.803 1266.76 764.056 1267.48 762.234 1267.48ZM276.939 1253.74H755.365V981.316C755.329 939.93 738.877 900.249 709.619 870.978C680.361 841.707 640.687 825.238 599.301 825.183H433.003C391.617 825.238 351.943 841.707 322.685 870.978C293.427 900.249 276.975 939.93 276.939 981.316V1253.74Z" fill="#093F68"/>
<path d="M466.73 1107.98C465.611 1107.99 464.507 1107.73 463.513 1107.21C462.519 1106.7 461.667 1105.95 461.029 1105.03L378.051 983.378C377.203 982.117 376.797 980.61 376.896 979.094C376.996 977.578 377.595 976.137 378.601 974.998L398.658 952.33L368.022 915.649C367.081 914.442 366.57 912.956 366.57 911.425C366.57 909.894 367.081 908.408 368.022 907.201L436.713 814.538C437.806 813.071 439.437 812.099 441.246 811.835C443.056 811.571 444.897 812.036 446.363 813.129C447.83 814.222 448.802 815.853 449.066 817.663C449.33 819.473 448.865 821.314 447.772 822.78L382.241 911.047L412.946 948.14C414.01 949.384 414.595 950.967 414.595 952.605C414.595 954.242 414.01 955.825 412.946 957.07L392.339 980.149L472.294 1097.33C473.323 1098.84 473.713 1100.69 473.378 1102.48C473.043 1104.27 472.011 1105.85 470.508 1106.88C469.383 1107.61 468.07 1107.99 466.73 1107.98Z" fill="#093F68"/>
<path d="M730.225 1077.28C758.594 992.719 806.402 876.77 806.402 876.77L903.049 931.722C903.049 931.722 868.704 1246.53 762.235 1260.68C686.676 1270.71 661.878 1156 661.878 1009" fill="#68E1FD"/>
<path d="M753.168 1268.1C737.465 1268.21 722.292 1262.42 710.649 1251.89C673.762 1219.53 655.01 1137.79 655.01 1008.93C655.01 1007.11 655.733 1005.36 657.021 1004.07C658.31 1002.78 660.057 1002.06 661.879 1002.06C663.7 1002.06 665.447 1002.78 666.736 1004.07C668.024 1005.36 668.748 1007.11 668.748 1008.93C668.748 1131.88 686.401 1212.39 719.716 1241.58C725.288 1246.62 731.924 1250.34 739.132 1252.45C746.339 1254.57 753.931 1255.03 761.342 1253.81C801.938 1248.38 838.069 1191.44 865.957 1088.95C879.245 1038.44 889.181 987.113 895.7 935.294L809.837 886.524C798.984 913.175 760.655 1008.11 736.751 1079.34C736.467 1080.19 736.016 1080.99 735.426 1081.67C734.836 1082.35 734.116 1082.91 733.309 1083.32C732.503 1083.72 731.624 1083.96 730.723 1084.03C729.823 1084.1 728.918 1083.98 728.061 1083.7C727.204 1083.41 726.412 1082.96 725.729 1082.37C725.046 1081.78 724.486 1081.06 724.081 1080.26C723.676 1079.45 723.434 1078.57 723.368 1077.67C723.303 1076.77 723.415 1075.87 723.7 1075.01C751.794 991.207 799.602 875.327 800.083 874.434C800.453 873.531 801.012 872.716 801.721 872.046C802.431 871.375 803.276 870.863 804.199 870.545C805.122 870.226 806.102 870.108 807.074 870.199C808.047 870.289 808.988 870.585 809.837 871.068L906.484 926.02C907.676 926.693 908.639 927.706 909.251 928.93C909.863 930.154 910.095 931.533 909.919 932.889C908.476 945.941 873.719 1253.19 763.128 1267.89C759.815 1268.16 756.489 1268.23 753.168 1268.1Z" fill="#093F68"/>
<path d="M536.931 1112.38C535.694 1112.37 534.482 1112.03 533.422 1111.39C532.363 1110.75 531.495 1109.84 530.911 1108.75C530.327 1107.66 530.049 1106.43 530.105 1105.2C530.161 1103.96 530.55 1102.76 531.23 1101.73L611.666 979.873L591.059 956.725C589.995 955.481 589.41 953.897 589.41 952.26C589.41 950.623 589.995 949.039 591.059 947.795L621.695 910.702L556.233 822.436C555.14 820.978 554.671 819.146 554.928 817.343C555.186 815.539 556.15 813.912 557.607 812.819C559.064 811.726 560.896 811.257 562.7 811.514C564.503 811.772 566.13 812.735 567.224 814.193L635.914 906.856C636.855 908.063 637.366 909.55 637.366 911.08C637.366 912.611 636.855 914.098 635.914 915.305L605.553 952.054L625.679 974.722C626.668 975.856 627.258 977.283 627.357 978.785C627.456 980.286 627.06 981.779 626.228 983.033L542.839 1109.29C542.197 1110.26 541.319 1111.06 540.285 1111.6C539.252 1112.14 538.097 1112.41 536.931 1112.38Z" fill="#093F68"/>
<path d="M523.537 1260.61H480.537L442.345 818.314H561.729L523.537 1260.61Z" fill="white"/>
<path d="M523.536 1267.48H480.536C478.806 1267.48 477.137 1266.84 475.864 1265.67C474.59 1264.49 473.806 1262.88 473.667 1261.16L435.476 818.933C435.39 817.98 435.503 817.02 435.81 816.114C436.116 815.208 436.609 814.375 437.255 813.671C437.902 812.966 438.688 812.404 439.565 812.021C440.441 811.637 441.388 811.441 442.345 811.445H561.728C562.684 811.441 563.631 811.637 564.508 812.021C565.384 812.404 566.171 812.966 566.817 813.671C567.464 814.375 567.956 815.208 568.263 816.114C568.569 817.02 568.683 817.98 568.597 818.933L530.405 1261.16C530.267 1262.88 529.483 1264.49 528.209 1265.67C526.936 1266.84 525.267 1267.48 523.536 1267.48ZM486.787 1253.74H517.217L554.241 825.183H449.832L486.787 1253.74Z" fill="#093F68"/>
<path d="M814.508 805.264C759.556 823.604 729.951 895.042 701.376 964.076C677.609 1021.5 653.293 1080.85 618.398 1093.56C605.278 1098.36 590.922 1096.44 573.406 1087.58C466.043 1032.63 502.861 885.632 514.264 848.333C715.045 843.593 876.742 698.314 876.742 520.2C876.742 516.557 875.294 513.062 872.718 510.486C870.141 507.91 866.647 506.462 863.004 506.462H810.799C807.156 506.462 803.661 507.91 801.085 510.486C798.508 513.062 797.061 516.557 797.061 520.2C797.061 523.844 798.508 527.338 801.085 529.914C803.661 532.491 807.156 533.938 810.799 533.938H848.853C840.611 693.505 689.149 821.063 504.167 821.063C319.184 821.063 167.585 693.505 159.548 533.938H191.833C195.476 533.938 198.97 532.491 201.547 529.914C204.123 527.338 205.571 523.844 205.571 520.2C205.571 516.557 204.123 513.062 201.547 510.486C198.97 507.91 195.476 506.462 191.833 506.462H145.467C141.823 506.462 138.329 507.91 135.753 510.486C133.176 513.062 131.729 516.557 131.729 520.2C131.729 695.772 288.96 839.609 485.758 848.127C471.264 900.125 441.59 1050.69 560.836 1112.03C574.062 1119.27 588.832 1123.23 603.904 1123.57C612.087 1123.61 620.208 1122.17 627.877 1119.32C673.831 1102.49 699.521 1040.39 726.791 974.585C753.031 911.184 780.163 845.654 822.957 831.366C826.419 830.21 829.279 827.725 830.908 824.459C832.538 821.194 832.803 817.415 831.646 813.953C830.49 810.492 828.005 807.632 824.74 806.002C821.474 804.373 817.695 804.107 814.234 805.264H814.508Z" fill="#F56132"/>
<path d="M603.904 1130.44C587.735 1130.09 571.886 1125.87 557.676 1118.15C438.979 1057.08 462.884 910.085 476.965 854.515C278.863 842.082 124.86 696.528 124.86 520.2C124.86 514.735 127.031 509.493 130.895 505.629C134.76 501.764 140.001 499.593 145.467 499.593H191.901C197.366 499.593 202.608 501.764 206.473 505.629C210.337 509.493 212.508 514.735 212.508 520.2C212.508 525.665 210.337 530.907 206.473 534.771C202.608 538.636 197.366 540.807 191.901 540.807H166.898C179.193 694.673 325.778 814.194 504.235 814.194C682.692 814.194 829.345 694.673 841.572 540.807H810.799C805.334 540.807 800.092 538.636 796.228 534.771C792.363 530.907 790.192 525.665 790.192 520.2C790.192 514.735 792.363 509.493 796.228 505.629C800.092 501.764 805.334 499.593 810.799 499.593H863.003C868.469 499.593 873.71 501.764 877.575 505.629C881.439 509.493 883.61 514.735 883.61 520.2C883.61 608.192 845.213 691.307 775.424 754.365C704.518 817.061 613.761 852.722 519.141 855.064C509.055 889.381 504.579 925.102 505.884 960.847C509.181 1018.62 532.879 1059.21 576.291 1081.47C591.609 1089.37 604.523 1091.22 615.788 1087.1C647.591 1075.42 671.564 1017.52 694.781 961.465C723.975 890.989 754.13 818.109 811.555 798.738C816.737 796.999 822.399 797.389 827.294 799.824C832.19 802.258 835.917 806.538 837.657 811.721C839.396 816.904 839.006 822.566 836.571 827.461C834.137 832.356 829.857 836.083 824.674 837.823C784.903 851.561 758.32 915.237 732.698 977.195C704.879 1044.44 678.57 1107.71 629.663 1125.77C621.409 1128.8 612.695 1130.38 603.904 1130.44ZM145.467 513.331C143.645 513.331 141.898 514.055 140.61 515.343C139.321 516.631 138.598 518.378 138.598 520.2C138.598 691.925 291.227 832.809 486.101 841.258C487.126 841.307 488.127 841.586 489.031 842.073C489.934 842.561 490.717 843.244 491.321 844.074C491.94 844.911 492.361 845.878 492.551 846.901C492.741 847.924 492.697 848.978 492.42 849.981C444.337 1023.01 526.422 1086.62 563.995 1105.92C586.182 1117.32 606.927 1119.66 625.816 1112.79C668.885 1096.92 694.026 1036.2 720.677 971.837C747.329 907.475 775.286 840.021 820.965 824.703C821.822 824.419 822.615 823.969 823.298 823.378C823.981 822.788 824.541 822.069 824.946 821.262C825.351 820.455 825.593 819.576 825.658 818.676C825.724 817.775 825.611 816.871 825.327 816.014C825.043 815.157 824.593 814.364 824.002 813.681C823.412 812.998 822.693 812.438 821.886 812.033C821.079 811.628 820.2 811.386 819.299 811.321C818.399 811.255 817.495 811.368 816.638 811.652C764.983 828.962 735.995 898.957 708.039 966.548C683.654 1025.35 658.513 1086.14 621.077 1099.88C606.034 1105.37 589.479 1103.31 570.521 1093.56C522.438 1068.9 496.336 1024.45 492.695 961.534C491.303 922.504 496.481 883.517 508.013 846.203C508.431 844.823 509.273 843.608 510.419 842.733C511.566 841.858 512.959 841.365 514.401 841.326C607.352 840.033 696.763 805.477 766.425 743.924C833.261 683.476 870.078 603.933 870.078 519.925C870.078 518.104 869.355 516.356 868.067 515.068C866.778 513.78 865.031 513.056 863.209 513.056H811.005C810.103 513.056 809.21 513.234 808.376 513.579C807.543 513.924 806.786 514.43 806.148 515.068C805.51 515.706 805.004 516.463 804.659 517.297C804.314 518.13 804.136 519.023 804.136 519.925C804.136 520.827 804.314 521.721 804.659 522.554C805.004 523.387 805.51 524.145 806.148 524.782C806.786 525.42 807.543 525.926 808.376 526.271C809.21 526.617 810.103 526.794 811.005 526.794H848.853C849.79 526.789 850.718 526.974 851.581 527.341C852.443 527.707 853.221 528.246 853.868 528.924C854.505 529.601 854.998 530.401 855.317 531.275C855.635 532.149 855.773 533.078 855.722 534.007C847.205 698.863 692.789 827.657 504.166 827.657C315.543 827.657 161.197 698.657 152.679 534.007C152.628 533.078 152.766 532.149 153.085 531.275C153.404 530.401 153.897 529.601 154.534 528.924C155.18 528.246 155.958 527.707 156.821 527.341C157.683 526.974 158.611 526.789 159.548 526.794H191.832C193.654 526.794 195.401 526.071 196.69 524.782C197.978 523.494 198.701 521.747 198.701 519.925C198.701 518.104 197.978 516.356 196.69 515.068C195.401 513.78 193.654 513.056 191.832 513.056L145.467 513.331Z" fill="#093F68"/>
<path d="M773.706 807.53C775.149 774.834 781.125 738.085 804.754 725.102C846.793 702.022 833.467 833.839 838.412 832.602C869.392 824.497 892.678 798.876 909.919 771.812C921.665 753.334 935.884 730.941 958.002 731.491C974.007 731.903 986.989 745.572 992.347 760.546C1001.76 785.893 994.27 813.85 979.845 835.693C972.976 845.997 963.566 852.797 956.491 862.483C947.011 875.465 941.86 891.332 932.449 904.521C922.753 917.75 910.074 928.506 895.442 935.918C880.81 943.329 864.637 947.187 848.235 947.177C839.261 947.475 830.318 945.989 821.923 942.805C813.528 939.622 805.848 934.804 799.328 928.631C779.133 907.475 773.157 877.457 773.225 849.157C773.294 838.372 773.294 823.467 773.706 807.53Z" fill="#FFC9B0"/>
<path d="M849.197 954.046H848.235C838.347 954.382 828.493 952.731 819.255 949.192C810.017 945.652 801.582 940.296 794.451 933.439C775.767 913.862 766.356 885.356 766.425 849.225V840.089C766.425 830.816 766.425 819.482 766.837 807.255C768.142 776.826 773.225 734.581 801.182 719.126C804.386 716.953 808.127 715.707 811.993 715.526C815.86 715.344 819.701 716.233 823.094 718.096C841.366 728.811 843.22 770.506 843.701 812.27V823.604C865.339 815.498 885.534 796.883 903.805 768.102C916.375 748.388 931.762 723.866 957.658 724.621C977.441 725.102 992.415 741.794 998.529 758.142C1007.87 783.077 1003.06 813.094 985.34 839.471C981.45 845.096 977.009 850.319 972.083 855.064C968.359 858.617 964.914 862.452 961.78 866.535C957.44 872.96 953.604 879.712 950.308 886.73C946.836 894.385 942.771 901.757 938.15 908.779C927.89 922.749 914.499 934.121 899.052 941.982C883.604 949.843 866.529 953.975 849.197 954.046ZM780.506 807.874C780.163 819.482 780.163 830.816 780.163 840.089V849.294C780.163 881.99 788.268 907.131 804.411 924.029C816.337 935.066 832.13 940.964 848.372 940.446C863.687 940.485 878.792 936.896 892.452 929.97C906.111 923.045 917.934 912.982 926.954 900.605C931.248 894.272 935.037 887.612 938.287 880.685C941.884 872.963 946.136 865.563 950.995 858.567C954.519 853.963 958.376 849.624 962.535 845.585C966.841 841.373 970.75 836.774 974.212 831.847C989.462 808.767 993.72 783.763 985.958 763.156C981.425 751.136 970.915 738.909 957.589 738.565H956.971C939.318 738.565 926.816 758.211 915.757 775.658C893.433 810.69 867.674 832.121 840.198 839.402C839.14 839.668 838.037 839.695 836.968 839.481C835.898 839.267 834.89 838.818 834.016 838.166C830.375 835.35 830.307 831.847 830.169 812.613C830.169 790.22 829.551 737.81 816.431 730.185C815.676 729.704 813.409 728.399 808.051 731.353C791.428 740.489 782.43 765.698 780.575 808.08L780.506 807.874Z" fill="#093F68"/>
<path d="M878.802 876.77C912.073 876.77 939.044 849.799 939.044 816.528C939.044 783.258 912.073 756.287 878.802 756.287C845.532 756.287 818.561 783.258 818.561 816.528C818.561 849.799 845.532 876.77 878.802 876.77Z" fill="white"/>
<path d="M878.802 883.638C865.513 883.638 852.521 879.697 841.472 872.312C830.424 864.927 821.813 854.431 816.73 842.152C811.648 829.872 810.322 816.361 812.919 803.328C815.517 790.295 821.922 778.325 831.324 768.933C840.726 759.54 852.702 753.147 865.738 750.563C878.774 747.979 892.284 749.319 904.558 754.414C916.832 759.509 927.319 768.13 934.693 779.187C942.066 790.243 945.995 803.239 945.981 816.528C945.963 834.333 938.877 851.403 926.281 863.986C913.684 876.57 896.607 883.638 878.802 883.638ZM878.802 763.087C868.233 763.087 857.9 766.221 849.112 772.094C840.324 777.966 833.474 786.312 829.429 796.077C825.384 805.842 824.326 816.587 826.388 826.954C828.45 837.32 833.54 846.843 841.014 854.317C848.488 861.79 858.01 866.88 868.376 868.942C878.743 871.004 889.488 869.946 899.253 865.901C909.018 861.856 917.364 855.007 923.237 846.218C929.109 837.43 932.243 827.098 932.243 816.528C932.225 802.36 926.589 788.778 916.571 778.76C906.552 768.742 892.97 763.105 878.802 763.087Z" fill="#093F68"/>
<path d="M878.802 854.445C871.286 854.445 863.939 852.216 857.691 848.039C851.443 843.862 846.574 837.925 843.701 830.98C840.828 824.035 840.08 816.394 841.551 809.024C843.023 801.653 846.647 794.885 851.966 789.575C857.286 784.266 864.061 780.653 871.434 779.195C878.807 777.737 886.446 778.5 893.386 781.385C900.326 784.271 906.254 789.15 910.419 795.406C914.585 801.662 916.801 809.012 916.788 816.528C916.77 826.591 912.759 836.235 905.638 843.344C898.516 850.453 888.865 854.445 878.802 854.445ZM878.802 792.281C874.006 792.281 869.318 793.703 865.331 796.367C861.343 799.031 858.235 802.818 856.4 807.249C854.565 811.68 854.085 816.555 855.02 821.259C855.956 825.962 858.265 830.283 861.656 833.674C865.047 837.065 869.368 839.374 874.071 840.31C878.775 841.245 883.651 840.765 888.081 838.93C892.512 837.095 896.299 833.987 898.963 829.999C901.627 826.012 903.05 821.324 903.05 816.528C903.086 813.321 902.486 810.138 901.283 807.165C900.081 804.191 898.301 801.485 896.045 799.205C893.79 796.924 891.105 795.113 888.145 793.877C885.185 792.642 882.009 792.006 878.802 792.006V792.281Z" fill="#DFEAEF"/>
<path d="M70.8691 1120.41C55.823 1116.76 40.5684 1114.03 25.1901 1112.24C21.4599 1111.45 17.5841 1111.71 13.9937 1112.99C10.9447 1114.81 8.66647 1117.68 7.59043 1121.06C6.51439 1124.44 6.71524 1128.09 8.15495 1131.34C11.2702 1137.75 16.2821 1143.05 22.5112 1146.52C43.0068 1160.46 67.9469 1166.31 92.5064 1162.93C97.2266 1162.45 101.72 1160.66 105.489 1157.78C112.014 1152.01 117.99 1128.45 109.542 1122.34C105.764 1119.59 100.474 1123.16 96.4218 1123.16C87.8217 1123.34 79.2338 1122.42 70.8691 1120.41Z" fill="#FFC9B0"/>
<path d="M78.8372 1171.25C57.3821 1170.86 36.5011 1164.25 18.7334 1152.22C11.2885 1148.01 5.35365 1141.57 1.76694 1133.81C-0.361635 1128.94 -0.574893 1123.45 1.16977 1118.43C2.91444 1113.42 6.4885 1109.24 11.1775 1106.75C15.8964 1104.9 21.038 1104.43 26.0146 1105.37C41.6618 1107.25 57.1883 1110.03 72.5177 1113.68C80.2772 1115.69 88.2695 1116.66 96.2845 1116.57C97.2408 1116.45 98.1838 1116.24 99.1009 1115.95C101.42 1114.98 103.938 1114.57 106.446 1114.76C108.954 1114.95 111.381 1115.74 113.526 1117.05C115.782 1118.89 117.578 1121.24 118.77 1123.9C119.962 1126.56 120.519 1129.46 120.395 1132.37C120.957 1143.61 117.197 1154.65 109.885 1163.21C105.17 1167 99.4788 1169.38 93.4682 1170.08C88.6319 1170.87 83.7381 1171.26 78.8372 1171.25ZM20.0385 1118.7C18.9355 1118.65 17.8349 1118.84 16.81 1119.25C15.411 1120.35 14.4258 1121.89 14.0143 1123.63C13.6028 1125.36 13.7891 1127.18 14.5433 1128.79C17.1931 1133.85 21.2802 1138.01 26.2893 1140.75C45.2885 1153.84 68.4575 1159.44 91.3388 1156.48C94.7942 1156.12 98.1022 1154.89 100.955 1152.9C104.96 1147.05 107.005 1140.08 106.794 1132.98C106.794 1129.69 105.832 1128.38 105.489 1128.18C105.146 1127.97 103.909 1128.86 102.81 1129.14C100.772 1129.84 98.6429 1130.23 96.4906 1130.31C87.2299 1130.44 77.9917 1129.36 69.0146 1127.08C54.2124 1123.51 39.2115 1120.83 24.0912 1119.04C22.7486 1118.84 21.3951 1118.73 20.0385 1118.7Z" fill="#093F68"/>
<path d="M185.444 959.886C200.05 959.886 211.89 948.046 211.89 933.44C211.89 918.834 200.05 906.994 185.444 906.994C170.839 906.994 158.999 918.834 158.999 933.44C158.999 948.046 170.839 959.886 185.444 959.886Z" fill="#093F68"/>
<path d="M185.375 966.755C176.854 966.766 168.651 963.519 162.447 957.678C156.243 951.837 152.507 943.845 152.005 935.339C151.503 926.833 154.272 918.456 159.746 911.926C165.22 905.396 172.984 901.206 181.447 900.215C189.91 899.223 198.432 901.506 205.267 906.595C212.101 911.683 216.731 919.193 218.208 927.585C219.685 935.977 217.897 944.616 213.21 951.733C208.524 958.849 201.293 963.904 193 965.862C190.498 966.43 187.942 966.729 185.375 966.755ZM185.375 913.863C181.124 913.871 176.991 915.263 173.601 917.828C170.21 920.393 167.747 923.992 166.583 928.081C165.42 932.17 165.618 936.526 167.15 940.492C168.681 944.458 171.462 947.817 175.072 950.063C177.646 951.664 180.557 952.646 183.575 952.93C186.593 953.215 189.636 952.794 192.464 951.702C195.292 950.61 197.828 948.876 199.872 946.637C201.915 944.398 203.411 941.715 204.241 938.799C205.071 935.884 205.212 932.815 204.654 929.835C204.096 926.855 202.853 924.046 201.024 921.628C199.195 919.211 196.83 917.251 194.114 915.904C191.398 914.556 188.407 913.858 185.375 913.863Z" fill="#093F68"/>
<path d="M115.051 950.021L255.634 917.1L268.571 972.343L127.988 1005.27L115.051 950.021Z" fill="#093F68"/>
<path d="M128.089 1011.81C126.501 1011.85 124.949 1011.34 123.696 1010.36C122.444 1009.39 121.569 1008.01 121.22 1006.46L108.306 951.505C108.086 950.587 108.057 949.634 108.222 948.704C108.386 947.775 108.741 946.889 109.263 946.103C109.785 945.317 110.464 944.646 111.256 944.134C112.049 943.622 112.939 943.278 113.87 943.125L254.41 910.222C255.291 910.008 256.207 909.971 257.103 910.112C257.999 910.254 258.858 910.571 259.63 911.046C260.4 911.518 261.069 912.137 261.6 912.868C262.13 913.599 262.511 914.427 262.721 915.305L275.635 970.257C275.839 971.137 275.867 972.048 275.718 972.938C275.569 973.829 275.246 974.681 274.768 975.447C274.289 976.212 273.665 976.876 272.93 977.4C272.194 977.924 271.363 978.298 270.483 978.5L129.669 1011.81H128.089ZM123.418 954.802L133.172 996.634L260.386 966.823L250.632 924.991L123.418 954.802Z" fill="#093F68"/>
<path d="M323.666 923.067L56.6783 985.59C46.5206 987.969 40.2145 998.132 42.5932 1008.29L111.428 1302.23C113.807 1312.39 123.97 1318.69 134.127 1316.32L401.115 1253.79C411.273 1251.41 417.579 1241.25 415.2 1231.09L346.365 937.152C343.987 926.994 333.824 920.688 323.666 923.067Z" fill="white"/>
<path d="M129.942 1323.6C124.132 1323.58 118.496 1321.61 113.947 1317.99C109.397 1314.38 106.2 1309.34 104.871 1303.68L36.1804 1009.69C35.4055 1006.4 35.2867 1002.99 35.8308 999.655C36.3749 996.321 37.5712 993.126 39.3513 990.255C41.1315 987.384 43.4604 984.892 46.2048 982.922C48.9492 980.952 52.0552 979.543 55.3449 978.775L322.412 916.198C329.052 914.652 336.033 915.801 341.827 919.394C347.621 922.986 351.755 928.728 353.323 935.363L422.013 1229.43C423.557 1236.07 422.398 1243.06 418.792 1248.86C415.186 1254.66 409.427 1258.78 402.779 1260.34L135.712 1322.91C133.818 1323.34 131.884 1323.57 129.942 1323.6ZM328.113 929.387C327.188 929.404 326.267 929.519 325.366 929.73L58.2987 992.307C56.7621 992.647 55.3114 993.298 54.0356 994.219C52.7598 995.141 51.686 996.313 50.8801 997.665C50.0443 998.99 49.4803 1000.47 49.2208 1002.01C48.9614 1003.56 49.0117 1005.14 49.3689 1006.66L118.059 1300.73C118.794 1303.82 120.724 1306.5 123.427 1308.17C126.131 1309.84 129.387 1310.38 132.484 1309.66L399.551 1247.08C401.082 1246.72 402.526 1246.07 403.8 1245.15C405.074 1244.23 406.151 1243.06 406.97 1241.72C407.822 1240.39 408.395 1238.9 408.655 1237.34C408.915 1235.78 408.855 1234.19 408.481 1232.65L339.791 938.66C339.161 936.031 337.669 933.69 335.552 932.009C333.435 930.328 330.816 929.405 328.113 929.387Z" fill="#093F68"/>
<path d="M104.61 1121.9L35.1117 1157.83C27.7317 1161.65 24.8422 1170.73 28.6579 1178.11L28.6894 1178.17C32.5051 1185.55 41.5809 1188.44 48.961 1184.62L118.46 1148.69C125.84 1144.87 128.729 1135.8 124.913 1128.42L124.882 1128.36C121.066 1120.98 111.99 1118.09 104.61 1121.9Z" fill="#FFC9B0"/>
<path d="M42.0886 1193.23C39.7595 1193.24 37.4423 1192.89 35.2196 1192.19C32.4862 1191.32 29.9509 1189.92 27.7587 1188.07C25.5665 1186.22 23.7604 1183.96 22.4432 1181.41C21.0923 1178.86 20.2684 1176.06 20.0206 1173.18C19.7728 1170.3 20.1061 1167.4 21.0007 1164.65C21.8714 1161.9 23.2788 1159.35 25.1417 1157.14C27.0045 1154.94 29.2858 1153.12 31.8538 1151.8L101.299 1115.95C105.149 1113.95 109.506 1113.14 113.819 1113.61C118.131 1114.09 122.204 1115.84 125.522 1118.64C128.839 1121.43 131.253 1125.15 132.456 1129.32C133.659 1133.49 133.597 1137.92 132.279 1142.05C131.418 1144.81 130.015 1147.36 128.151 1149.57C126.287 1151.78 124 1153.59 121.426 1154.9L52.0487 1190.82C48.9582 1192.38 45.5495 1193.2 42.0886 1193.23ZM111.466 1127.21C110.153 1127.21 108.858 1127.51 107.688 1128.11L38.3106 1164.03C37.3459 1164.52 36.4873 1165.19 35.7847 1166.01C35.082 1166.84 34.5492 1167.79 34.217 1168.82C33.8848 1169.84 33.7598 1170.93 33.8494 1172.01C33.939 1173.08 34.2412 1174.13 34.7387 1175.09C35.7659 1177.01 37.486 1178.46 39.547 1179.14C41.6216 1179.79 43.8682 1179.59 45.7978 1178.59L115.244 1142.67C117.168 1141.69 118.625 1139.98 119.296 1137.93C119.927 1135.84 119.721 1133.59 118.721 1131.66C117.72 1129.72 116.005 1128.25 113.938 1127.56C113.131 1127.34 112.301 1127.23 111.466 1127.21Z" fill="#093F68"/>
<path d="M118.524 1148.67L49.0259 1184.6C41.6458 1188.42 38.7563 1197.49 42.572 1204.87L42.6035 1204.93C46.4191 1212.31 55.4951 1215.2 62.8751 1211.39L132.374 1175.45C139.754 1171.64 142.643 1162.56 138.828 1155.18L138.796 1155.12C134.98 1147.74 125.905 1144.85 118.524 1148.67Z" fill="#FFC9B0"/>
<path d="M55.8951 1220.01C51.0376 1219.95 46.3378 1218.28 42.5344 1215.26C38.7311 1212.24 36.0398 1208.04 34.8838 1203.32C33.7278 1198.6 34.1726 1193.63 36.1482 1189.19C38.1238 1184.76 41.5181 1181.1 45.7977 1178.8L115.243 1142.88C120.375 1140.56 126.2 1140.3 131.517 1142.16C136.833 1144.01 141.236 1147.83 143.817 1152.84C146.398 1157.84 146.96 1163.64 145.389 1169.05C143.817 1174.45 140.231 1179.05 135.37 1181.89L65.7865 1217.89C62.7084 1219.38 59.3154 1220.11 55.8951 1220.01ZM125.341 1154C124.027 1153.99 122.73 1154.29 121.563 1154.9L52.0485 1190.82C50.1174 1191.82 48.6635 1193.55 48.0065 1195.63C47.3495 1197.7 47.5434 1199.95 48.5453 1201.88C49.5473 1203.81 51.2753 1205.27 53.3493 1205.92C55.4233 1206.58 57.6734 1206.39 59.6044 1205.38L129.119 1169.8C131.042 1168.79 132.489 1167.06 133.145 1164.99C133.801 1162.92 133.613 1160.68 132.622 1158.74C131.977 1157.35 130.951 1156.16 129.663 1155.33C128.375 1154.49 126.877 1154.03 125.341 1154Z" fill="#093F68"/>
<path d="M132.308 1175.47L62.8092 1211.4C55.4292 1215.21 52.5397 1224.29 56.3553 1231.67L56.3869 1231.73C60.2026 1239.11 69.2784 1242 76.6585 1238.18L146.157 1202.25C153.537 1198.44 156.427 1189.36 152.611 1181.98L152.579 1181.92C148.764 1174.54 139.688 1171.65 132.308 1175.47Z" fill="#FFC9B0"/>
<path d="M69.7709 1246.8C64.9133 1246.74 60.2134 1245.07 56.4101 1242.05C52.6067 1239.03 49.9156 1234.83 48.7596 1230.11C47.6036 1225.39 48.0483 1220.42 50.0238 1215.98C51.9994 1211.54 55.3938 1207.89 59.6734 1205.59L129.119 1169.8C134.251 1167.49 140.076 1167.23 145.392 1169.08C150.709 1170.94 155.111 1174.76 157.692 1179.76C160.274 1184.76 160.836 1190.57 159.265 1195.97C157.693 1201.38 154.107 1205.98 149.245 1208.82L79.5249 1244.33C76.5188 1245.92 73.1734 1246.77 69.7709 1246.8ZM139.148 1180.79C137.835 1180.78 136.54 1181.09 135.37 1181.69L65.7868 1217.88C63.8515 1218.88 62.3896 1220.61 61.7203 1222.68C61.0511 1224.75 61.2289 1227 62.2149 1228.94C62.7028 1229.91 63.3801 1230.76 64.2063 1231.46C65.0324 1232.16 65.9905 1232.68 67.0232 1233C68.0455 1233.33 69.124 1233.46 70.1966 1233.38C71.2693 1233.3 72.315 1233 73.274 1232.52L142.72 1196.59C144.147 1195.83 145.32 1194.67 146.092 1193.25C146.864 1191.83 147.202 1190.21 147.062 1188.6C146.923 1186.99 146.314 1185.46 145.31 1184.19C144.305 1182.93 142.951 1181.98 141.415 1181.48C140.701 1181.13 139.935 1180.9 139.148 1180.79Z" fill="#093F68"/>
<path d="M146.222 1202.23L76.7234 1238.16C69.3433 1241.98 66.4538 1251.05 70.2695 1258.43L70.301 1258.5C74.1166 1265.88 83.1926 1268.77 90.5726 1264.95L160.071 1229.02C167.451 1225.2 170.341 1216.13 166.525 1208.75L166.494 1208.68C162.678 1201.3 153.602 1198.41 146.222 1202.23Z" fill="#FFC9B0"/>
<path d="M83.576 1273.59C81.2467 1273.61 78.9293 1273.26 76.707 1272.56C72.587 1271.23 68.952 1268.71 66.2582 1265.32C63.5643 1261.93 61.9315 1257.82 61.5647 1253.51C61.1978 1249.19 62.1132 1244.87 64.1961 1241.07C66.2789 1237.28 69.4365 1234.18 73.2724 1232.17L142.718 1196.25C146.574 1194.24 150.941 1193.42 155.263 1193.9C159.585 1194.38 163.667 1196.13 166.988 1198.94C170.31 1201.75 172.722 1205.48 173.917 1209.66C175.112 1213.84 175.035 1218.28 173.697 1222.42C171.922 1227.95 168.05 1232.56 162.913 1235.26L93.4674 1271.12C90.4133 1272.72 87.0227 1273.57 83.576 1273.59ZM153.022 1207.51C151.703 1207.52 150.406 1207.85 149.244 1208.47L79.5233 1244.33C77.6085 1245.36 76.1587 1247.08 75.4706 1249.14C75.1303 1250.16 75.0035 1251.25 75.098 1252.32C75.1925 1253.4 75.5064 1254.44 76.0201 1255.39C76.498 1256.36 77.1719 1257.22 77.9995 1257.92C78.8271 1258.62 79.7904 1259.14 80.8284 1259.44C82.894 1260.11 85.1403 1259.94 87.0792 1258.96L156.525 1223.04C157.484 1222.54 158.336 1221.87 159.031 1221.04C159.727 1220.22 160.253 1219.26 160.578 1218.24C160.904 1217.21 161.023 1216.13 160.929 1215.05C160.834 1213.98 160.528 1212.93 160.028 1211.98C159.001 1210.06 157.281 1208.61 155.22 1207.92C154.511 1207.68 153.77 1207.54 153.022 1207.51Z" fill="#093F68"/>
</svg>
