<svg xmlns="http://www.w3.org/2000/svg" xmlns:xlink="http://www.w3.org/1999/xlink" viewBox="0 0 390 516"><g fill="#861D57"><path d="M64.5 392.3v5.3l-25.7 53.7h-8.3l25.6-52.2v-.1H27.3v-6.6h37.2zM132 429c0 16.2-11.2 23.3-21.9 23.3-11.9 0-21-8.7-21-22.6 0-14.7 9.6-23.3 21.8-23.3 12.6 0 21.1 9.2 21.1 22.6zm-34.8.4c0 9.6 5.5 16.9 13.3 16.9 7.6 0 13.3-7.2 13.3-17.1 0-7.4-3.7-16.9-13.2-16.9-9.4.1-13.4 8.8-13.4 17.1zM190.2 449.7c-2.1 1.1-6.7 2.5-12.6 2.5-13.2 0-21.9-9-21.9-22.4 0-13.5 9.3-23.3 23.6-23.3 4.7 0 8.9 1.2 11.1 2.3l-1.8 6.2c-1.9-1.1-4.9-2.1-9.3-2.1-10.1 0-15.5 7.4-15.5 16.6 0 10.2 6.5 16.4 15.2 16.4 4.5 0 7.5-1.2 9.8-2.2l1.4 6zM211.5 446.7l19.9-25.9c1.9-2.4 3.7-4.4 5.7-6.8v-.2h-23.8v-6.4h33.5l-.1 5-19.6 25.5c-1.8 2.4-3.6 4.6-5.6 6.9v.2h25.7v6.3h-35.7v-4.6zM276.1 430.8c.2 10.8 7.1 15.2 15.1 15.2 5.7 0 9.2-1 12.2-2.3l1.4 5.7c-2.8 1.3-7.6 2.7-14.6 2.7-13.5 0-21.6-8.9-21.6-22.1s7.8-23.7 20.6-23.7c14.3 0 18.1 12.6 18.1 20.7 0 1.6-.2 2.9-.3 3.7h-30.9zm23.4-5.7c.1-5.1-2.1-13-11.1-13-8.1 0-11.6 7.4-12.2 13h23.3zM342 427.5h.2c1.1-1.5 2.6-3.4 3.9-5l12.9-15.1h9.6l-17 18.1 19.3 25.9h-9.7l-15.1-21-4.1 4.5v16.5h-7.9V387h7.9v40.5z"/></g><defs><path id="prefix__a" d="M.2 197.9c0 107.7 87.3 195 195 195s195-87.3 195-195-87.3-195-195-195C87.6 2.9.2 90.2.2 197.9"/></defs><clipPath id="prefix__b"><use xlink:href="#prefix__a" overflow="visible"/></clipPath><path clip-path="url(#prefix__b)" fill="none" stroke="#F0A5C8" stroke-width="4.351" stroke-linecap="round" stroke-miterlimit="10" d="M187.9 58.3l-12.8 41.4M160.4 99.7l-12.8-41.4"/><path clip-path="url(#prefix__b)" fill="none" stroke="#F7C1D8" stroke-width="4.351" stroke-linecap="round" stroke-miterlimit="10" d="M140.3 65.6c28.3 0 20.1-24.2 20.1-24.2M195.2 65.6c-28.3 0-20.1-24.2-20.1-24.2M187.9 0l-12.8 41.3M160.4 41.3L147.6 0"/><path clip-path="url(#prefix__b)" fill="none" stroke="#F0A5C8" stroke-width="4.351" stroke-linecap="round" stroke-miterlimit="10" d="M167.8 34.1c28.3 0 20.1 24.2 20.1 24.2M167.8 34.1c-28.3 0-20.1 24.2-20.1 24.2"/><path clip-path="url(#prefix__b)" fill="none" stroke="#E77CB0" stroke-width="4.351" stroke-linecap="round" stroke-miterlimit="10" d="M187.9 116.7l-12.8 41.4M160.4 158.1l-12.8-41.4M167.8 92.5c28.3 0 20.1 24.2 20.1 24.2M167.8 92.5c-28.3 0-20.1 24.2-20.1 24.2"/><path clip-path="url(#prefix__b)" fill="none" stroke="#DD569E" stroke-width="4.351" stroke-linecap="round" stroke-miterlimit="10" d="M187.9 175.1l-12.8 41.3M160.4 216.4l-12.8-41.3M167.8 150.8c28.3 0 20.1 24.2 20.1 24.2M167.8 150.8c-28.3 0-20.1 24.2-20.1 24.2"/><path clip-path="url(#prefix__b)" fill="none" stroke="#C8187F" stroke-width="4.351" stroke-linecap="round" stroke-miterlimit="10" d="M187.9 233.4l-12.8 41.4M160.4 274.8l-12.8-41.4M167.8 209.2c28.3 0 20.1 24.2 20.1 24.2M167.8 209.2c-28.3 0-20.1 24.2-20.1 24.2"/><path clip-path="url(#prefix__b)" fill="none" stroke="#A8206F" stroke-width="4.351" stroke-linecap="round" stroke-miterlimit="10" d="M187.9 291.8l-12.8 41.4M160.4 333.2l-12.8-41.4M167.8 267.5c28.3 0 20.1 24.2 20.1 24.2M167.8 267.5c-28.3 0-20.1 24.2-20.1 24.2"/><path clip-path="url(#prefix__b)" fill="none" stroke="#861C57" stroke-width="4.351" stroke-linecap="round" stroke-miterlimit="10" d="M140.3 415.7c28.3 0 20.1-24.2 20.1-24.2M195.2 415.7c-28.3 0-20.1-24.2-20.1-24.2M187.9 350.1l-12.8 41.4M160.4 391.5l-12.8-41.4M167.8 325.9c28.3 0 20.1 24.2 20.1 24.2M167.8 325.9c-28.3 0-20.1 24.2-20.1 24.2"/><path clip-path="url(#prefix__b)" fill="none" stroke="#F0A5C8" stroke-width="4.351" stroke-linecap="round" stroke-miterlimit="10" d="M140.3 123.9c28.3 0 20.1-24.2 20.1-24.2M195.2 123.9c-28.3 0-20.1-24.2-20.1-24.2"/><path clip-path="url(#prefix__b)" fill="none" stroke="#E77CB0" stroke-width="4.351" stroke-linecap="round" stroke-miterlimit="10" d="M140.3 182.3c28.3 0 20.1-24.2 20.1-24.2M195.2 182.3c-28.3 0-20.1-24.2-20.1-24.2"/><path clip-path="url(#prefix__b)" fill="none" stroke="#DD569E" stroke-width="4.351" stroke-linecap="round" stroke-miterlimit="10" d="M140.3 240.7c28.3 0 20.1-24.2 20.1-24.2M195.2 240.7c-28.3 0-20.1-24.2-20.1-24.2"/><path clip-path="url(#prefix__b)" fill="none" stroke="#C8187F" stroke-width="4.351" stroke-linecap="round" stroke-miterlimit="10" d="M140.3 299c28.3 0 20.1-24.2 20.1-24.2M195.2 299c-28.3 0-20.1-24.2-20.1-24.2"/><path clip-path="url(#prefix__b)" fill="none" stroke="#A8206F" stroke-width="4.351" stroke-linecap="round" stroke-miterlimit="10" d="M140.3 357.4c28.3 0 20.1-24.2 20.1-24.2M195.2 357.4c-28.3 0-20.1-24.2-20.1-24.2"/><path clip-path="url(#prefix__b)" fill="none" stroke="#F0A5C8" stroke-width="4.351" stroke-linecap="round" stroke-miterlimit="10" d="M133 58.3l-12.9 41.4M105.5 99.7L92.7 58.3"/><path clip-path="url(#prefix__b)" fill="none" stroke="#F7C1D8" stroke-width="4.351" stroke-linecap="round" stroke-miterlimit="10" d="M85.3 65.6c28.3 0 20.1-24.2 20.1-24.2M140.3 65.6c-28.3 0-20.1-24.2-20.1-24.2M133 0l-12.9 41.3M105.5 41.3L92.7 0"/><path clip-path="url(#prefix__b)" fill="none" stroke="#F0A5C8" stroke-width="4.351" stroke-linecap="round" stroke-miterlimit="10" d="M112.8 34.1c28.3 0 20.1 24.2 20.1 24.2M112.8 34.1c-28.3 0-20.1 24.2-20.1 24.2"/><path clip-path="url(#prefix__b)" fill="none" stroke="#E77CB0" stroke-width="4.351" stroke-linecap="round" stroke-miterlimit="10" d="M133 116.7l-12.9 41.4M105.5 158.1l-12.8-41.4M112.8 92.5c28.3 0 20.1 24.2 20.1 24.2M112.8 92.5c-28.3 0-20.1 24.2-20.1 24.2"/><path clip-path="url(#prefix__b)" fill="none" stroke="#DD569E" stroke-width="4.351" stroke-linecap="round" stroke-miterlimit="10" d="M133 175.1l-12.9 41.3M105.5 216.4l-12.8-41.3M112.8 150.8c28.3 0 20.1 24.2 20.1 24.2M112.8 150.8c-28.3 0-20.1 24.2-20.1 24.2"/><path clip-path="url(#prefix__b)" fill="none" stroke="#C8187F" stroke-width="4.351" stroke-linecap="round" stroke-miterlimit="10" d="M133 233.4l-12.9 41.4M105.5 274.8l-12.8-41.4M112.8 209.2c28.3 0 20.1 24.2 20.1 24.2M112.8 209.2c-28.3 0-20.1 24.2-20.1 24.2"/><path clip-path="url(#prefix__b)" fill="none" stroke="#A8206F" stroke-width="4.351" stroke-linecap="round" stroke-miterlimit="10" d="M133 291.8l-12.9 41.4M105.5 333.2l-12.8-41.4M112.8 267.5c28.3 0 20.1 24.2 20.1 24.2M112.8 267.5c-28.3 0-20.1 24.2-20.1 24.2"/><path clip-path="url(#prefix__b)" fill="none" stroke="#861C57" stroke-width="4.351" stroke-linecap="round" stroke-miterlimit="10" d="M85.3 415.7c28.3 0 20.1-24.2 20.1-24.2M140.3 415.7c-28.3 0-20.1-24.2-20.1-24.2M133 350.1l-12.9 41.4M105.5 391.5l-12.8-41.4M112.8 325.9c28.3 0 20.1 24.2 20.1 24.2M112.8 325.9c-28.3 0-20.1 24.2-20.1 24.2"/><path clip-path="url(#prefix__b)" fill="none" stroke="#F0A5C8" stroke-width="4.351" stroke-linecap="round" stroke-miterlimit="10" d="M85.3 123.9c28.3 0 20.1-24.2 20.1-24.2M140.3 123.9c-28.3 0-20.1-24.2-20.1-24.2"/><path clip-path="url(#prefix__b)" fill="none" stroke="#E77CB0" stroke-width="4.351" stroke-linecap="round" stroke-miterlimit="10" d="M85.3 182.3c28.3 0 20.1-24.2 20.1-24.2M140.3 182.3c-28.3 0-20.1-24.2-20.1-24.2"/><path clip-path="url(#prefix__b)" fill="none" stroke="#DD569E" stroke-width="4.351" stroke-linecap="round" stroke-miterlimit="10" d="M85.3 240.7c28.3 0 20.1-24.2 20.1-24.2M140.3 240.7c-28.3 0-20.1-24.2-20.1-24.2"/><path clip-path="url(#prefix__b)" fill="none" stroke="#C8187F" stroke-width="4.351" stroke-linecap="round" stroke-miterlimit="10" d="M85.3 299c28.3 0 20.1-24.2 20.1-24.2M140.3 299c-28.3 0-20.1-24.2-20.1-24.2"/><path clip-path="url(#prefix__b)" fill="none" stroke="#A8206F" stroke-width="4.351" stroke-linecap="round" stroke-miterlimit="10" d="M85.3 357.4c28.3 0 20.1-24.2 20.1-24.2M140.3 357.4c-28.3 0-20.1-24.2-20.1-24.2"/><path clip-path="url(#prefix__b)" fill="none" stroke="#F0A5C8" stroke-width="4.351" stroke-linecap="round" stroke-miterlimit="10" d="M78 58.3L65.2 99.7M50.5 99.7L37.7 58.3"/><path clip-path="url(#prefix__b)" fill="none" stroke="#F7C1D8" stroke-width="4.351" stroke-linecap="round" stroke-miterlimit="10" d="M30.4 65.6c28.3 0 20.1-24.2 20.1-24.2M85.3 65.6c-28.3 0-20.1-24.2-20.1-24.2M78 0L65.2 41.3M50.5 41.3L37.7 0"/><path clip-path="url(#prefix__b)" fill="none" stroke="#F0A5C8" stroke-width="4.351" stroke-linecap="round" stroke-miterlimit="10" d="M57.9 34.1C86.2 34.1 78 58.3 78 58.3M57.9 34.1c-28.3 0-20.1 24.2-20.1 24.2"/><path clip-path="url(#prefix__b)" fill="none" stroke="#E77CB0" stroke-width="4.351" stroke-linecap="round" stroke-miterlimit="10" d="M78 116.7l-12.8 41.4M50.5 158.1l-12.8-41.4M57.9 92.5c28.3 0 20.1 24.2 20.1 24.2M57.9 92.5c-28.3 0-20.1 24.2-20.1 24.2"/><path clip-path="url(#prefix__b)" fill="none" stroke="#DD569E" stroke-width="4.351" stroke-linecap="round" stroke-miterlimit="10" d="M78 175.1l-12.8 41.3M50.5 216.4l-12.8-41.3M57.9 150.8C86.2 150.8 78 175 78 175M57.9 150.8c-28.3 0-20.1 24.2-20.1 24.2"/><path clip-path="url(#prefix__b)" fill="none" stroke="#C8187F" stroke-width="4.351" stroke-linecap="round" stroke-miterlimit="10" d="M78 233.4l-12.8 41.4M50.5 274.8l-12.8-41.4M57.9 209.2c28.3 0 20.1 24.2 20.1 24.2M57.9 209.2c-28.3 0-20.1 24.2-20.1 24.2"/><path clip-path="url(#prefix__b)" fill="none" stroke="#A8206F" stroke-width="4.351" stroke-linecap="round" stroke-miterlimit="10" d="M78 291.8l-12.8 41.4M50.5 333.2l-12.8-41.4M57.9 267.5c28.3 0 20.1 24.2 20.1 24.2M57.9 267.5c-28.3 0-20.1 24.2-20.1 24.2"/><path clip-path="url(#prefix__b)" fill="none" stroke="#861C57" stroke-width="4.351" stroke-linecap="round" stroke-miterlimit="10" d="M30.4 415.7c28.3 0 20.1-24.2 20.1-24.2M85.3 415.7c-28.3 0-20.1-24.2-20.1-24.2M78 350.1l-12.8 41.4M50.5 391.5l-12.8-41.4M57.9 325.9c28.3 0 20.1 24.2 20.1 24.2M57.9 325.9c-28.3 0-20.1 24.2-20.1 24.2"/><path clip-path="url(#prefix__b)" fill="none" stroke="#F0A5C8" stroke-width="4.351" stroke-linecap="round" stroke-miterlimit="10" d="M30.4 123.9c28.3 0 20.1-24.2 20.1-24.2M85.3 123.9c-28.3 0-20.1-24.2-20.1-24.2"/><path clip-path="url(#prefix__b)" fill="none" stroke="#E77CB0" stroke-width="4.351" stroke-linecap="round" stroke-miterlimit="10" d="M30.4 182.3c28.3 0 20.1-24.2 20.1-24.2M85.3 182.3c-28.3 0-20.1-24.2-20.1-24.2"/><path clip-path="url(#prefix__b)" fill="none" stroke="#DD569E" stroke-width="4.351" stroke-linecap="round" stroke-miterlimit="10" d="M30.4 240.7c28.3 0 20.1-24.2 20.1-24.2M85.3 240.7c-28.3 0-20.1-24.2-20.1-24.2"/><path clip-path="url(#prefix__b)" fill="none" stroke="#C8187F" stroke-width="4.351" stroke-linecap="round" stroke-miterlimit="10" d="M30.4 299c28.3 0 20.1-24.2 20.1-24.2M85.3 299c-28.3 0-20.1-24.2-20.1-24.2"/><path clip-path="url(#prefix__b)" fill="none" stroke="#A8206F" stroke-width="4.351" stroke-linecap="round" stroke-miterlimit="10" d="M30.4 357.4c28.3 0 20.1-24.2 20.1-24.2M85.3 357.4c-28.3 0-20.1-24.2-20.1-24.2"/><path clip-path="url(#prefix__b)" fill="none" stroke="#F0A5C8" stroke-width="4.351" stroke-linecap="round" stroke-miterlimit="10" d="M23.1 58.3L10.2 99.7M-4.4 99.7l-12.8-41.4"/><path clip-path="url(#prefix__b)" fill="none" stroke="#F7C1D8" stroke-width="4.351" stroke-linecap="round" stroke-miterlimit="10" d="M-24.6 65.6c28.3 0 20.1-24.2 20.1-24.2M30.4 65.6c-28.3 0-20.1-24.2-20.1-24.2M23.1 0L10.2 41.3M-4.4 41.3L-17.2 0"/><path clip-path="url(#prefix__b)" fill="none" stroke="#F0A5C8" stroke-width="4.351" stroke-linecap="round" stroke-miterlimit="10" d="M2.9 34.1C31.2 34.1 23 58.3 23 58.3M2.9 34.1c-28.3 0-20.1 24.2-20.1 24.2"/><path clip-path="url(#prefix__b)" fill="none" stroke="#E77CB0" stroke-width="4.351" stroke-linecap="round" stroke-miterlimit="10" d="M23.1 116.7l-12.9 41.4M-4.4 158.1l-12.8-41.4M2.9 92.5c28.3 0 20.1 24.2 20.1 24.2M2.9 92.5c-28.3 0-20.1 24.2-20.1 24.2"/><path clip-path="url(#prefix__b)" fill="none" stroke="#DD569E" stroke-width="4.351" stroke-linecap="round" stroke-miterlimit="10" d="M23.1 175.1l-12.9 41.3M-4.4 216.4l-12.8-41.3M2.9 150.8C31.2 150.8 23 175 23 175M2.9 150.8c-28.3 0-20.1 24.2-20.1 24.2"/><path clip-path="url(#prefix__b)" fill="none" stroke="#C8187F" stroke-width="4.351" stroke-linecap="round" stroke-miterlimit="10" d="M23.1 233.4l-12.9 41.4M-4.4 274.8l-12.8-41.4M2.9 209.2c28.3 0 20.1 24.2 20.1 24.2M2.9 209.2c-28.3 0-20.1 24.2-20.1 24.2"/><path clip-path="url(#prefix__b)" fill="none" stroke="#A8206F" stroke-width="4.351" stroke-linecap="round" stroke-miterlimit="10" d="M23.1 291.8l-12.9 41.4M-4.4 333.2l-12.8-41.4M2.9 267.5c28.3 0 20.1 24.2 20.1 24.2M2.9 267.5c-28.3 0-20.1 24.2-20.1 24.2"/><path clip-path="url(#prefix__b)" fill="none" stroke="#861C57" stroke-width="4.351" stroke-linecap="round" stroke-miterlimit="10" d="M-24.6 415.7c28.3 0 20.1-24.2 20.1-24.2M30.4 415.7c-28.3 0-20.1-24.2-20.1-24.2M23.1 350.1l-12.9 41.4M-4.4 391.5l-12.8-41.4M2.9 325.9c28.3 0 20.1 24.2 20.1 24.2M2.9 325.9c-28.3 0-20.1 24.2-20.1 24.2"/><path clip-path="url(#prefix__b)" fill="none" stroke="#F0A5C8" stroke-width="4.351" stroke-linecap="round" stroke-miterlimit="10" d="M-24.6 123.9c28.3 0 20.1-24.2 20.1-24.2M30.4 123.9c-28.3 0-20.1-24.2-20.1-24.2"/><path clip-path="url(#prefix__b)" fill="none" stroke="#E77CB0" stroke-width="4.351" stroke-linecap="round" stroke-miterlimit="10" d="M-24.6 182.3c28.3 0 20.1-24.2 20.1-24.2M30.4 182.3c-28.3 0-20.1-24.2-20.1-24.2"/><path clip-path="url(#prefix__b)" fill="none" stroke="#DD569E" stroke-width="4.351" stroke-linecap="round" stroke-miterlimit="10" d="M-24.6 240.7c28.3 0 20.1-24.2 20.1-24.2M30.4 240.7c-28.3 0-20.1-24.2-20.1-24.2"/><path clip-path="url(#prefix__b)" fill="none" stroke="#C8187F" stroke-width="4.351" stroke-linecap="round" stroke-miterlimit="10" d="M-24.6 299c28.3 0 20.1-24.2 20.1-24.2M30.4 299c-28.3 0-20.1-24.2-20.1-24.2"/><path clip-path="url(#prefix__b)" fill="none" stroke="#A8206F" stroke-width="4.351" stroke-linecap="round" stroke-miterlimit="10" d="M-24.6 357.4c28.3 0 20.1-24.2 20.1-24.2M30.4 357.4c-28.3 0-20.1-24.2-20.1-24.2"/><path clip-path="url(#prefix__b)" fill="none" stroke="#F0A5C8" stroke-width="4.351" stroke-linecap="round" stroke-miterlimit="10" d="M242.9 58.3l-12.8 41.4M215.4 99.7l-12.8-41.4"/><path clip-path="url(#prefix__b)" fill="none" stroke="#F7C1D8" stroke-width="4.351" stroke-linecap="round" stroke-miterlimit="10" d="M195.2 65.6c28.3 0 20.1-24.2 20.1-24.2M250.2 65.6c-28.3 0-20.1-24.2-20.1-24.2M242.9 0l-12.8 41.3M215.4 41.3L202.6 0"/><path clip-path="url(#prefix__b)" fill="none" stroke="#F0A5C8" stroke-width="4.351" stroke-linecap="round" stroke-miterlimit="10" d="M222.7 34.1c28.3 0 20.1 24.2 20.1 24.2M222.7 34.1c-28.3 0-20.1 24.2-20.1 24.2"/><path clip-path="url(#prefix__b)" fill="none" stroke="#E77CB0" stroke-width="4.351" stroke-linecap="round" stroke-miterlimit="10" d="M242.9 116.7l-12.8 41.4M215.4 158.1l-12.8-41.4M222.7 92.5c28.3 0 20.1 24.2 20.1 24.2M222.7 92.5c-28.3 0-20.1 24.2-20.1 24.2"/><path clip-path="url(#prefix__b)" fill="none" stroke="#DD569E" stroke-width="4.351" stroke-linecap="round" stroke-miterlimit="10" d="M242.9 175.1l-12.8 41.3M215.4 216.4l-12.8-41.3M222.7 150.8c28.3 0 20.1 24.2 20.1 24.2M222.7 150.8c-28.3 0-20.1 24.2-20.1 24.2"/><path clip-path="url(#prefix__b)" fill="none" stroke="#C8187F" stroke-width="4.351" stroke-linecap="round" stroke-miterlimit="10" d="M242.9 233.4l-12.8 41.4M215.4 274.8l-12.8-41.4M222.7 209.2c28.3 0 20.1 24.2 20.1 24.2M222.7 209.2c-28.3 0-20.1 24.2-20.1 24.2"/><path clip-path="url(#prefix__b)" fill="none" stroke="#A8206F" stroke-width="4.351" stroke-linecap="round" stroke-miterlimit="10" d="M242.9 291.8l-12.8 41.4M215.4 333.2l-12.8-41.4M222.7 267.5c28.3 0 20.1 24.2 20.1 24.2M222.7 267.5c-28.3 0-20.1 24.2-20.1 24.2"/><path clip-path="url(#prefix__b)" fill="none" stroke="#861C57" stroke-width="4.351" stroke-linecap="round" stroke-miterlimit="10" d="M195.2 415.7c28.3 0 20.1-24.2 20.1-24.2M250.2 415.7c-28.3 0-20.1-24.2-20.1-24.2M242.9 350.1l-12.8 41.4M215.4 391.5l-12.8-41.4M222.7 325.9c28.3 0 20.1 24.2 20.1 24.2M222.7 325.9c-28.3 0-20.1 24.2-20.1 24.2"/><path clip-path="url(#prefix__b)" fill="none" stroke="#F0A5C8" stroke-width="4.351" stroke-linecap="round" stroke-miterlimit="10" d="M195.2 123.9c28.3 0 20.1-24.2 20.1-24.2M250.2 123.9c-28.3 0-20.1-24.2-20.1-24.2"/><path clip-path="url(#prefix__b)" fill="none" stroke="#E77CB0" stroke-width="4.351" stroke-linecap="round" stroke-miterlimit="10" d="M195.2 182.3c28.3 0 20.1-24.2 20.1-24.2M250.2 182.3c-28.3 0-20.1-24.2-20.1-24.2"/><path clip-path="url(#prefix__b)" fill="none" stroke="#DD569E" stroke-width="4.351" stroke-linecap="round" stroke-miterlimit="10" d="M195.2 240.7c28.3 0 20.1-24.2 20.1-24.2M250.2 240.7c-28.3 0-20.1-24.2-20.1-24.2"/><path clip-path="url(#prefix__b)" fill="none" stroke="#C8187F" stroke-width="4.351" stroke-linecap="round" stroke-miterlimit="10" d="M195.2 299c28.3 0 20.1-24.2 20.1-24.2M250.2 299c-28.3 0-20.1-24.2-20.1-24.2"/><path clip-path="url(#prefix__b)" fill="none" stroke="#A8206F" stroke-width="4.351" stroke-linecap="round" stroke-miterlimit="10" d="M195.2 357.4c28.3 0 20.1-24.2 20.1-24.2M250.2 357.4c-28.3 0-20.1-24.2-20.1-24.2"/><path clip-path="url(#prefix__b)" fill="none" stroke="#F0A5C8" stroke-width="4.351" stroke-linecap="round" stroke-miterlimit="10" d="M297.8 58.3L285 99.7M270.3 99.7l-12.8-41.4"/><path clip-path="url(#prefix__b)" fill="none" stroke="#F7C1D8" stroke-width="4.351" stroke-linecap="round" stroke-miterlimit="10" d="M250.2 65.6c28.3 0 20.1-24.2 20.1-24.2M305.1 65.6c-28.3 0-20.1-24.2-20.1-24.2M297.8 0L285 41.3M270.3 41.3L257.5 0"/><path clip-path="url(#prefix__b)" fill="none" stroke="#F0A5C8" stroke-width="4.351" stroke-linecap="round" stroke-miterlimit="10" d="M277.7 34.1c28.3 0 20.1 24.2 20.1 24.2M277.7 34.1c-28.3 0-20.1 24.2-20.1 24.2"/><path clip-path="url(#prefix__b)" fill="none" stroke="#E77CB0" stroke-width="4.351" stroke-linecap="round" stroke-miterlimit="10" d="M297.8 116.7L285 158.1M270.3 158.1l-12.8-41.4M277.7 92.5c28.3 0 20.1 24.2 20.1 24.2M277.7 92.5c-28.3 0-20.1 24.2-20.1 24.2"/><path clip-path="url(#prefix__b)" fill="none" stroke="#DD569E" stroke-width="4.351" stroke-linecap="round" stroke-miterlimit="10" d="M297.8 175.1L285 216.4M270.3 216.4l-12.8-41.3M277.7 150.8c28.3 0 20.1 24.2 20.1 24.2M277.7 150.8c-28.3 0-20.1 24.2-20.1 24.2"/><path clip-path="url(#prefix__b)" fill="none" stroke="#C8187F" stroke-width="4.351" stroke-linecap="round" stroke-miterlimit="10" d="M297.8 233.4L285 274.8M270.3 274.8l-12.8-41.4M277.7 209.2c28.3 0 20.1 24.2 20.1 24.2M277.7 209.2c-28.3 0-20.1 24.2-20.1 24.2"/><path clip-path="url(#prefix__b)" fill="none" stroke="#A8206F" stroke-width="4.351" stroke-linecap="round" stroke-miterlimit="10" d="M297.8 291.8L285 333.2M270.3 333.2l-12.8-41.4M277.7 267.5c28.3 0 20.1 24.2 20.1 24.2M277.7 267.5c-28.3 0-20.1 24.2-20.1 24.2"/><path clip-path="url(#prefix__b)" fill="none" stroke="#861C57" stroke-width="4.351" stroke-linecap="round" stroke-miterlimit="10" d="M250.2 415.7c28.3 0 20.1-24.2 20.1-24.2M305.1 415.7c-28.3 0-20.1-24.2-20.1-24.2M297.8 350.1L285 391.5M270.3 391.5l-12.8-41.4M277.7 325.9c28.3 0 20.1 24.2 20.1 24.2M277.7 325.9c-28.3 0-20.1 24.2-20.1 24.2"/><path clip-path="url(#prefix__b)" fill="none" stroke="#F0A5C8" stroke-width="4.351" stroke-linecap="round" stroke-miterlimit="10" d="M250.2 123.9c28.3 0 20.1-24.2 20.1-24.2M305.1 123.9c-28.3 0-20.1-24.2-20.1-24.2"/><path clip-path="url(#prefix__b)" fill="none" stroke="#E77CB0" stroke-width="4.351" stroke-linecap="round" stroke-miterlimit="10" d="M250.2 182.3c28.3 0 20.1-24.2 20.1-24.2M305.1 182.3c-28.3 0-20.1-24.2-20.1-24.2"/><path clip-path="url(#prefix__b)" fill="none" stroke="#DD569E" stroke-width="4.351" stroke-linecap="round" stroke-miterlimit="10" d="M250.2 240.7c28.3 0 20.1-24.2 20.1-24.2M305.1 240.7c-28.3 0-20.1-24.2-20.1-24.2"/><path clip-path="url(#prefix__b)" fill="none" stroke="#C8187F" stroke-width="4.351" stroke-linecap="round" stroke-miterlimit="10" d="M250.2 299c28.3 0 20.1-24.2 20.1-24.2M305.1 299c-28.3 0-20.1-24.2-20.1-24.2"/><path clip-path="url(#prefix__b)" fill="none" stroke="#A8206F" stroke-width="4.351" stroke-linecap="round" stroke-miterlimit="10" d="M250.2 357.4c28.3 0 20.1-24.2 20.1-24.2M305.1 357.4c-28.3 0-20.1-24.2-20.1-24.2"/><path clip-path="url(#prefix__b)" fill="none" stroke="#F0A5C8" stroke-width="4.351" stroke-linecap="round" stroke-miterlimit="10" d="M352.8 58.3L340 99.7M325.3 99.7l-12.8-41.4"/><path clip-path="url(#prefix__b)" fill="none" stroke="#F7C1D8" stroke-width="4.351" stroke-linecap="round" stroke-miterlimit="10" d="M305.1 65.6c28.3 0 20.1-24.2 20.1-24.2M360.1 65.6c-28.3 0-20.1-24.2-20.1-24.2M352.8 0L340 41.3M325.3 41.3L312.5 0"/><path clip-path="url(#prefix__b)" fill="none" stroke="#F0A5C8" stroke-width="4.351" stroke-linecap="round" stroke-miterlimit="10" d="M332.6 34.1c28.3 0 20.1 24.2 20.1 24.2M332.6 34.1c-28.3 0-20.1 24.2-20.1 24.2"/><path clip-path="url(#prefix__b)" fill="none" stroke="#E77CB0" stroke-width="4.351" stroke-linecap="round" stroke-miterlimit="10" d="M352.8 116.7L340 158.1M325.3 158.1l-12.8-41.4M332.6 92.5c28.3 0 20.1 24.2 20.1 24.2M332.6 92.5c-28.3 0-20.1 24.2-20.1 24.2"/><path clip-path="url(#prefix__b)" fill="none" stroke="#DD569E" stroke-width="4.351" stroke-linecap="round" stroke-miterlimit="10" d="M352.8 175.1L340 216.4M325.3 216.4l-12.8-41.3M332.6 150.8c28.3 0 20.1 24.2 20.1 24.2M332.6 150.8c-28.3 0-20.1 24.2-20.1 24.2"/><path clip-path="url(#prefix__b)" fill="none" stroke="#C8187F" stroke-width="4.351" stroke-linecap="round" stroke-miterlimit="10" d="M352.8 233.4L340 274.8M325.3 274.8l-12.8-41.4M332.6 209.2c28.3 0 20.1 24.2 20.1 24.2M332.6 209.2c-28.3 0-20.1 24.2-20.1 24.2"/><path clip-path="url(#prefix__b)" fill="none" stroke="#A8206F" stroke-width="4.351" stroke-linecap="round" stroke-miterlimit="10" d="M352.8 291.8L340 333.2M325.3 333.2l-12.8-41.4M332.6 267.5c28.3 0 20.1 24.2 20.1 24.2M332.6 267.5c-28.3 0-20.1 24.2-20.1 24.2"/><path clip-path="url(#prefix__b)" fill="none" stroke="#861C57" stroke-width="4.351" stroke-linecap="round" stroke-miterlimit="10" d="M305.1 415.7c28.3 0 20.1-24.2 20.1-24.2M360.1 415.7c-28.3 0-20.1-24.2-20.1-24.2M352.8 350.1L340 391.5M325.3 391.5l-12.8-41.4M332.6 325.9c28.3 0 20.1 24.2 20.1 24.2M332.6 325.9c-28.3 0-20.1 24.2-20.1 24.2"/><path clip-path="url(#prefix__b)" fill="none" stroke="#F0A5C8" stroke-width="4.351" stroke-linecap="round" stroke-miterlimit="10" d="M305.1 123.9c28.3 0 20.1-24.2 20.1-24.2M360.1 123.9c-28.3 0-20.1-24.2-20.1-24.2"/><path clip-path="url(#prefix__b)" fill="none" stroke="#E77CB0" stroke-width="4.351" stroke-linecap="round" stroke-miterlimit="10" d="M305.1 182.3c28.3 0 20.1-24.2 20.1-24.2M360.1 182.3c-28.3 0-20.1-24.2-20.1-24.2"/><path clip-path="url(#prefix__b)" fill="none" stroke="#DD569E" stroke-width="4.351" stroke-linecap="round" stroke-miterlimit="10" d="M305.1 240.7c28.3 0 20.1-24.2 20.1-24.2M360.1 240.7c-28.3 0-20.1-24.2-20.1-24.2"/><path clip-path="url(#prefix__b)" fill="none" stroke="#C8187F" stroke-width="4.351" stroke-linecap="round" stroke-miterlimit="10" d="M305.1 299c28.3 0 20.1-24.2 20.1-24.2M360.1 299c-28.3 0-20.1-24.2-20.1-24.2"/><path clip-path="url(#prefix__b)" fill="none" stroke="#A8206F" stroke-width="4.351" stroke-linecap="round" stroke-miterlimit="10" d="M305.1 357.4c28.3 0 20.1-24.2 20.1-24.2M360.1 357.4c-28.3 0-20.1-24.2-20.1-24.2"/><path clip-path="url(#prefix__b)" fill="none" stroke="#F0A5C8" stroke-width="4.351" stroke-linecap="round" stroke-miterlimit="10" d="M407.7 58.3l-12.8 41.4M380.2 99.7l-12.8-41.4"/><path clip-path="url(#prefix__b)" fill="none" stroke="#F7C1D8" stroke-width="4.351" stroke-linecap="round" stroke-miterlimit="10" d="M360.1 65.6c28.3 0 20.1-24.2 20.1-24.2M415.1 65.6c-28.3 0-20.1-24.2-20.1-24.2M407.7 0l-12.8 41.3M380.2 41.3L367.4 0"/><path clip-path="url(#prefix__b)" fill="none" stroke="#F0A5C8" stroke-width="4.351" stroke-linecap="round" stroke-miterlimit="10" d="M387.6 34.1c28.3 0 20.1 24.2 20.1 24.2M387.6 34.1c-28.3 0-20.1 24.2-20.1 24.2"/><path clip-path="url(#prefix__b)" fill="none" stroke="#E77CB0" stroke-width="4.351" stroke-linecap="round" stroke-miterlimit="10" d="M407.7 116.7l-12.8 41.4M380.2 158.1l-12.8-41.4M387.6 92.5c28.3 0 20.1 24.2 20.1 24.2M387.6 92.5c-28.3 0-20.1 24.2-20.1 24.2"/><path clip-path="url(#prefix__b)" fill="none" stroke="#DD569E" stroke-width="4.351" stroke-linecap="round" stroke-miterlimit="10" d="M407.7 175.1l-12.8 41.3M380.2 216.4l-12.8-41.3M387.6 150.8c28.3 0 20.1 24.2 20.1 24.2M387.6 150.8c-28.3 0-20.1 24.2-20.1 24.2"/><path clip-path="url(#prefix__b)" fill="none" stroke="#C8187F" stroke-width="4.351" stroke-linecap="round" stroke-miterlimit="10" d="M407.7 233.4l-12.8 41.4M380.2 274.8l-12.8-41.4M387.6 209.2c28.3 0 20.1 24.2 20.1 24.2M387.6 209.2c-28.3 0-20.1 24.2-20.1 24.2"/><path clip-path="url(#prefix__b)" fill="none" stroke="#A8206F" stroke-width="4.351" stroke-linecap="round" stroke-miterlimit="10" d="M407.7 291.8l-12.8 41.4M380.2 333.2l-12.8-41.4M387.6 267.5c28.3 0 20.1 24.2 20.1 24.2M387.6 267.5c-28.3 0-20.1 24.2-20.1 24.2"/><path clip-path="url(#prefix__b)" fill="none" stroke="#861C57" stroke-width="4.351" stroke-linecap="round" stroke-miterlimit="10" d="M360.1 415.7c28.3 0 20.1-24.2 20.1-24.2M415.1 415.7c-28.3 0-20.1-24.2-20.1-24.2M407.7 350.1l-12.8 41.4M380.2 391.5l-12.8-41.4M387.6 325.9c28.3 0 20.1 24.2 20.1 24.2M387.6 325.9c-28.3 0-20.1 24.2-20.1 24.2"/><path clip-path="url(#prefix__b)" fill="none" stroke="#F0A5C8" stroke-width="4.351" stroke-linecap="round" stroke-miterlimit="10" d="M360.1 123.9c28.3 0 20.1-24.2 20.1-24.2M415.1 123.9c-28.3 0-20.1-24.2-20.1-24.2"/><path clip-path="url(#prefix__b)" fill="none" stroke="#E77CB0" stroke-width="4.351" stroke-linecap="round" stroke-miterlimit="10" d="M360.1 182.3c28.3 0 20.1-24.2 20.1-24.2M415.1 182.3c-28.3 0-20.1-24.2-20.1-24.2"/><path clip-path="url(#prefix__b)" fill="none" stroke="#DD569E" stroke-width="4.351" stroke-linecap="round" stroke-miterlimit="10" d="M360.1 240.7c28.3 0 20.1-24.2 20.1-24.2M415.1 240.7c-28.3 0-20.1-24.2-20.1-24.2"/><path clip-path="url(#prefix__b)" fill="none" stroke="#C8187F" stroke-width="4.351" stroke-linecap="round" stroke-miterlimit="10" d="M360.1 299c28.3 0 20.1-24.2 20.1-24.2M415.1 299c-28.3 0-20.1-24.2-20.1-24.2"/><path clip-path="url(#prefix__b)" fill="none" stroke="#A8206F" stroke-width="4.351" stroke-linecap="round" stroke-miterlimit="10" d="M360.1 357.4c28.3 0 20.1-24.2 20.1-24.2M415.1 357.4c-28.3 0-20.1-24.2-20.1-24.2"/><g fill="#861D57"><path d="M50.5 503c-.3.3-.6.4-1.1.4-.3 0-.6-.1-.9-.2-.2-.2-.4-.4-.4-.6l.1-3.5c.2-4.2.3-7.6.3-10.3 0-3.9-.3-6.6-.8-8.1s-1.2-2.3-1.9-2.3c-1.6 0-3.6 2.5-6 7.4s-4.7 10.3-7 16.2c-.2.5-.4.9-.7 1.4-.3.4-.6.7-.9.7-.7 0-1.1-.2-1.1-.7 0-2.1-.1-6-.3-11.7-.2-5.7-.3-9.4-.4-11.2-.3-6.1-.6-9.8-.9-11.3-.3-1.4-.4-2.2-.4-2.3 0-.3.2-.6.6-.8.4-.2.8-.3 1.4-.3.5 0 .8 1.1 1 3.2s.4 4.9.5 8.3l.1 1.4c.1 1.1.1 4.1.2 9.1 0 5 .1 8.6.1 11 1.6-3.9 3-7.4 4.4-10.5 1.4-3.1 3-5.9 4.8-8.6 1.8-2.7 3.5-4 5-4 1.3 0 2.4 1.1 3.3 3.2.9 2.2 1.3 5.4 1.3 9.7 0 1.9 0 4.6.1 8l.1 5.4c-.1.4-.2.7-.5 1zM78.7 498.7c.2.3.4.5.4.6 0 .4-.2.9-.5 1.4-.3.5-.7.8-1 .8-.6 0-1-.4-1.3-1.1s-.5-1.5-.5-2.5c0-.8.1-3.3.2-7.3l.1-1.9c0-.8-.2-1.3-.6-1.7-1.5 2.6-3 4.8-4.3 6.7-1.3 1.9-3 3.7-5 5.4-2 1.7-4.2 2.5-6.4 2.5-1.1 0-1.9-.3-2.5-1-.6-.7-.9-1.6-.9-2.7 0-1.4.6-3.2 1.8-5.6 1.2-2.4 2.8-4.8 4.7-7.2 1.9-2.4 3.8-4.4 5.7-6 1.3-1 2.3-1.7 3-2.1.7-.4 1.4-.5 2-.5.5 0 1.1.2 1.7.5.6.3 1.1.8 1.5 1.4.4.6.6 1.3.6 2.1 0 1.1-.3 2.1-.9 3l.9-.3c.4 0 .6.5.7 1.4 0 .5.1 1.6.1 3.3.1 1.7.1 3 .1 4.1 0 1.1.1 2.2.1 3.3 0 1.1.1 1.9.1 2.5-.1.4 0 .7.2.9zm-13.1-1.8c1.7-1.4 3.2-3 4.6-4.9 1.3-1.9 2.8-4.2 4.5-7 .4-1 .6-2.1.6-3.3 0-.7-.2-1.3-.6-1.9-.4-.5-1-.8-1.7-.8-.9 0-1.9.6-3.3 1.7-1.5 1.3-3.1 3-4.8 5.2-1.7 2.2-3.1 4.3-4.2 6.4-1.1 2.1-1.7 3.8-1.7 5 0 1 .5 1.5 1.4 1.5 1.8.1 3.5-.6 5.2-1.9zM101.2 502.6c-.3.3-.7.4-1.2.4-.3 0-.6-.1-.9-.2-.2-.2-.4-.4-.4-.6 0-1.4.1-3.6.3-6.5.2-3.1.3-5.7.3-7.8 0-2-.1-3.6-.2-4.9s-.4-1.9-.8-1.9c-1.2 0-2.4 1.4-3.8 4.3s-3 6.7-4.7 11.3l-.8 2c-.1.3-.4.6-.7.8-.3.2-.7.3-1 .3-.4 0-.7 0-.8-.1-.1-.1-.2-.3-.3-.6l-.4-4.2-.8-7.3c-.2-2.9-.5-5.5-.9-7.6-.1-.5-.2-.9-.2-1.2 0-.5.2-.9.7-1.3.4-.3 1-.5 1.5-.5.3 0 .6.8.7 2.4.2 1.6.3 4.3.5 7.9l.2 2.7c.3 3.4.4 5.6.5 6.5.1-.2.2-.4.3-.7.1-.3.2-.5.3-.8 1.8-4.8 3.6-8.7 5.2-11.9 1.6-3.2 3.2-4.8 4.7-4.8 1.1 0 1.8.9 2.2 2.7.4 1.8.6 4.1.7 6.9.1 3.1.2 7.6.2 13.6.1.5-.1.9-.4 1.1zM125.9 466.4c0 .7 0 2-.1 4s-.1 4-.1 6c0 3.9.1 7.8.3 11.9.2 4 .3 6.7.4 7.9 0 .2 0 .4.1.7 0 .2.1.5.1.7.1 1 .2 1.5.2 1.7 0 .3-.2.7-.7 1-.5.3-.9.5-1.1.5-.4 0-.6-.1-.7-.4-.1-.3-.2-.7-.2-1.2 0-1.9.1-3.8.2-5.9l.1-2.9c0-1 0-2.2-.1-3.7 0-1.5-.1-2.8-.2-3.9-1.7 5.6-3.7 10.2-5.9 13.8-2.2 3.7-4.6 5.5-7.1 5.5-1.2 0-2.1-.5-2.9-1.6-.8-1.1-1.2-2.7-1.2-4.7 0-2.7.9-5.6 2.7-8.8 1.8-3.2 3.9-5.9 6.2-8.2 2.3-2.3 4.1-3.4 5.2-3.4 1.1 0 1.6.4 1.6 1.1 0 .5-.2 1-.5 1.7-.3.6-.7 1.2-1.1 1.7-.4.5-.6.8-.7.8-.1 0-.1 0-.2-.1s-.1-.1-.1-.2c0-.2.1-.5.3-.9.2-.4.3-.7.3-.8 0-.2 0-.3-.1-.4 0-.1-.1-.1-.3-.1-.7 0-2 1-3.9 2.9-1.9 2-3.5 4.3-5 7s-2.2 5.2-2.2 7.5c0 .8.2 1.6.5 2.3.3.7.9 1.1 1.7 1.1 2.5 0 4.8-2.1 6.9-6.3 2.1-4.2 4-9 5.5-14.3l-.1-4.3c-.1-3.8-.2-5.8-.2-6 0-2 .1-3.5.3-4.4.1-.3.1-.6.2-.7.1-.1.3-.2.5-.2.3 0 .7.1 1 .3.3.2.5.5.5.9l-.1 2.4zM164.8 466.4c0 .7 0 2-.1 4s-.1 4-.1 6c0 3.9.1 7.8.3 11.9.2 4 .3 6.7.4 7.9 0 .2 0 .4.1.7 0 .2.1.5.1.7.1 1 .2 1.5.2 1.7 0 .3-.2.7-.7 1-.5.3-.9.5-1.1.5-.4 0-.6-.1-.7-.4-.1-.3-.2-.7-.2-1.2 0-1.9.1-3.8.2-5.9l.1-2.9c0-1 0-2.2-.1-3.7 0-1.5-.1-2.8-.2-3.9-1.7 5.6-3.7 10.2-5.9 13.8-2.2 3.7-4.6 5.5-7.1 5.5-1.2 0-2.1-.5-2.9-1.6-.8-1.1-1.2-2.7-1.2-4.7 0-2.7.9-5.6 2.7-8.8 1.8-3.2 3.9-5.9 6.2-8.2 2.3-2.3 4.1-3.4 5.2-3.4 1.1 0 1.6.4 1.6 1.1 0 .5-.2 1-.5 1.7-.3.6-.7 1.2-1.1 1.7-.4.5-.6.8-.7.8-.1 0-.1 0-.2-.1s-.1-.1-.1-.2c0-.2.1-.5.3-.9.2-.4.3-.7.3-.8 0-.2 0-.3-.1-.4 0-.1-.1-.1-.3-.1-.7 0-2 1-3.9 2.9-1.9 2-3.5 4.3-5 7s-2.2 5.2-2.2 7.5c0 .8.2 1.6.5 2.3.3.7.9 1.1 1.7 1.1 2.5 0 4.8-2.1 6.9-6.3 2.1-4.2 4-9 5.5-14.3l-.1-4.3c-.1-3.8-.2-5.8-.2-6 0-2 .1-3.5.3-4.4.1-.3.1-.6.2-.7.1-.1.3-.2.5-.2.3 0 .7.1 1 .3.3.2.5.5.5.9l-.1 2.4zM187.1 483.8c-.4 3-.6 4.7-.7 5-.4 4.2-.8 7.4-.9 9.6-.2 2.2-.3 4.2-.3 5.9 0 1.5.1 2.6.3 3.5.2.8.5 1.5.7 2 .3.5.4.8.4.9 0 .3-.3.6-.8.8-.5.2-1.1.4-1.7.4-.4 0-.8-.6-1-1.8-.3-1.2-.4-3-.4-5.6 0-1.9.2-4.5.6-7.7l.8-7c-.9 1.8-2 3.5-3.4 5.1-1.3 1.6-2.7 2.4-4.2 2.4-1.3 0-2.5-1.2-3.6-3.5s-1.9-4.9-2.5-7.9c-.6-2.9-.9-5.1-.9-6.4 0-.8.3-1.3.8-1.3.7 0 1.2.7 1.4 2.1 1.3 9.5 3.1 14.2 5.4 14.2.9 0 1.7-.4 2.4-1.1.7-.7 1.5-1.9 2.5-3.4.4-.7.9-1.7 1.4-2.9.5-1.2.9-2.2 1.2-3l.4-5.2c.1-.8.2-1.3.3-1.7.1-.3.4-.5.8-.5.3 0 .7.2 1 .6.3.4.5.8.5 1.1 0 1.1-.2 2.8-.5 5.4zM212.1 489c0 .6-.5 2-1.4 4-.9 2.1-2.3 4-4.1 5.8-1.8 1.8-4.1 2.7-6.7 2.7-2.2 0-4-.7-5.5-2-1.5-1.4-2.2-3.5-2.2-6.3 0-2.7.6-5.3 1.8-7.9 1.2-2.6 2.8-4.7 4.8-6.4 2-1.6 4-2.5 6.1-2.5 1.3 0 2.3.3 3.2.8.9.6 1.3 1.4 1.3 2.4 0 1.2-.7 2.3-2 3.5-1.3 1.1-3.1 2.1-5.2 3-2.1.9-4.4 1.5-6.6 1.8-.4 1.6-.6 3.1-.6 4.6 0 2 .5 3.5 1.4 4.6.9 1.1 2.3 1.6 4 1.6 2.6 0 4.7-.9 6.4-2.8 1.6-1.9 3-4 4.1-6.3.1-.1.2-.4.4-.8s.3-.6.5-.6c.1 0 .3.3.3.8zm-5.7-10c-.6-.3-1.2-.5-2-.5-1.3 0-2.5.4-3.7 1.3-1.2.8-2.2 1.9-3 3.1-.8 1.2-1.3 2.2-1.6 3.2 1.6-.2 3.2-.6 4.9-1.3 1.7-.7 3.2-1.5 4.4-2.3 1.2-.8 1.8-1.5 1.8-2.1s-.3-1.1-.8-1.4zM234.3 466.4c0 .7 0 2-.1 4s-.1 4-.1 6c0 3.9.1 7.8.3 11.9.2 4 .3 6.7.4 7.9 0 .2 0 .4.1.7 0 .2.1.5.1.7.1 1 .2 1.5.2 1.7 0 .3-.2.7-.7 1-.5.3-.9.5-1.1.5-.4 0-.6-.1-.7-.4-.1-.3-.2-.7-.2-1.2 0-1.9.1-3.8.2-5.9l.1-2.9c0-1 0-2.2-.1-3.7 0-1.5-.1-2.8-.2-3.9-1.7 5.6-3.7 10.2-5.9 13.8-2.2 3.7-4.6 5.5-7.1 5.5-1.2 0-2.1-.5-2.9-1.6-.8-1.1-1.2-2.7-1.2-4.7 0-2.7.9-5.6 2.7-8.8 1.8-3.2 3.9-5.9 6.2-8.2 2.3-2.3 4.1-3.4 5.2-3.4 1.1 0 1.6.4 1.6 1.1 0 .5-.2 1-.5 1.7-.3.6-.7 1.2-1.1 1.7-.4.5-.6.8-.7.8-.1 0-.1 0-.2-.1s-.1-.1-.1-.2c0-.2.1-.5.3-.9.2-.4.3-.7.3-.8 0-.2 0-.3-.1-.4s-.1-.1-.3-.1c-.7 0-2 1-3.9 2.9-1.9 2-3.5 4.3-5 7s-2.2 5.2-2.2 7.5c0 .8.2 1.6.5 2.3s.9 1.1 1.7 1.1c2.5 0 4.8-2.1 6.9-6.3 2.1-4.2 4-9 5.5-14.3l-.2-4.4c-.1-3.8-.2-5.8-.2-6 0-2 .1-3.5.3-4.4.1-.3.1-.6.2-.7.1-.1.3-.2.5-.2.3 0 .7.1 1 .3.3.2.5.5.5.9v2.5zM271.3 483.8c-.4 3-.6 4.7-.7 5-.4 4.2-.8 7.4-.9 9.6-.2 2.2-.3 4.2-.3 5.9 0 1.5.1 2.6.3 3.5.2.8.5 1.5.7 2 .3.5.4.8.4.9 0 .3-.3.6-.8.8-.5.2-1.1.4-1.7.4-.4 0-.8-.6-1-1.8-.3-1.2-.4-3-.4-5.6 0-1.9.2-4.5.6-7.7l.8-7c-.9 1.8-2 3.5-3.4 5.1-1.3 1.6-2.7 2.4-4.2 2.4-1.3 0-2.5-1.2-3.6-3.5s-1.9-4.9-2.5-7.9c-.6-2.9-.9-5.1-.9-6.4 0-.8.3-1.3.8-1.3.7 0 1.2.7 1.4 2.1 1.3 9.5 3.1 14.2 5.4 14.2.9 0 1.7-.4 2.4-1.1.7-.7 1.5-1.9 2.5-3.4.4-.7.9-1.7 1.4-2.9.5-1.2.9-2.2 1.2-3l.4-5.2c.1-.8.2-1.3.3-1.7s.4-.5.8-.5c.3 0 .7.2 1 .6.3.4.5.8.5 1.1 0 1.1-.2 2.8-.5 5.4zM298.1 498.7c.2.3.4.5.4.6 0 .4-.2.9-.5 1.4-.3.5-.7.8-1 .8-.6 0-1-.4-1.3-1.1s-.5-1.5-.5-2.5c0-.8.1-3.3.2-7.3l.1-1.9c0-.8-.2-1.3-.6-1.7-1.5 2.6-3 4.8-4.3 6.7-1.3 1.9-3 3.7-5 5.4-2 1.7-4.2 2.5-6.4 2.5-1.1 0-1.9-.3-2.5-1-.6-.7-.9-1.6-.9-2.7 0-1.4.6-3.2 1.8-5.6 1.2-2.4 2.8-4.8 4.7-7.2 1.9-2.4 3.8-4.4 5.7-6 1.3-1 2.3-1.7 3-2.1.7-.4 1.4-.5 2-.5.5 0 1.1.2 1.7.5s1.1.8 1.5 1.4c.4.6.6 1.3.6 2.1 0 1.1-.3 2.1-.9 3l.9-.3c.4 0 .6.5.7 1.4 0 .5.1 1.6.1 3.3.1 1.7.1 3 .1 4.1 0 1.1.1 2.2.1 3.3 0 1.1.1 1.9.1 2.5-.1.4 0 .7.2.9zm-13.1-1.8c1.7-1.4 3.2-3 4.6-4.9 1.3-1.9 2.8-4.2 4.5-7 .4-1 .6-2.1.6-3.3 0-.7-.2-1.3-.6-1.9-.4-.5-1-.8-1.7-.8-.8 0-1.9.6-3.3 1.7-1.5 1.3-3.1 3-4.8 5.2-1.7 2.2-3.1 4.3-4.2 6.4-1.1 2.1-1.7 3.8-1.7 5 0 1 .5 1.5 1.4 1.5 1.8.1 3.5-.6 5.2-1.9zM320.5 480.8c-.4.4-.8.6-1.1.6-.2 0-.5-.1-.7-.3-.2-.2-.5-.5-.7-.9-.2-.3-.6-.6-.9-.9-.4-.2-.8-.4-1.2-.4-1 0-2.3 1.3-4 3.9-1.7 2.6-3.3 5.9-4.9 9.8 0 .8.1 1.8.2 3s.1 2.1.2 2.7l.2 2c0 .5-.1.9-.3 1.3-.2.4-.6.5-1.1.5-.6 0-1-.8-1.1-2.3-.2-1.5-.3-3.8-.3-6.8 0-.7-.1-1.8-.1-3.2 0-1.4-.1-3.1-.1-5-.1-2.9-.2-5-.2-6.3 0-.8.5-1.2 1.4-1.2.6 0 .9.2 1 .7s.2 1.4.2 2.8v8.1c1-2.6 2.1-4.9 3.3-6.8s2.4-3.4 3.5-4.4c1.1-1 2.1-1.5 3-1.5.7 0 1.5.2 2.1.5.7.3 1.2.8 1.6 1.3.4.5.6 1 .6 1.5 0 .6-.2.9-.6 1.3zM341.7 502.6c-.3.3-.7.4-1.2.4-.3 0-.6-.1-.9-.2-.2-.2-.4-.4-.4-.6 0-1.4.1-3.6.3-6.5.2-3.1.3-5.7.3-7.8 0-2-.1-3.6-.2-4.9s-.4-1.9-.8-1.9c-1.2 0-2.4 1.4-3.8 4.3s-3 6.7-4.7 11.3l-.8 2c-.1.3-.4.6-.7.8-.3.2-.7.3-1 .3-.4 0-.7 0-.8-.1-.1-.1-.2-.3-.3-.6l-.4-4.2-.8-7.3c-.2-2.9-.5-5.5-.9-7.6-.1-.5-.2-.9-.2-1.2 0-.5.2-.9.7-1.3.4-.3 1-.5 1.5-.5.3 0 .6.8.7 2.4s.3 4.3.5 7.9l.2 2.7c.3 3.4.4 5.6.5 6.5.1-.2.2-.4.3-.7s.2-.5.3-.8c1.8-4.8 3.6-8.7 5.2-11.9 1.6-3.2 3.2-4.8 4.7-4.8 1.1 0 1.8.9 2.2 2.7s.6 4.1.7 6.9c.1 3.1.2 7.6.2 13.6.1.5-.1.9-.4 1.1zM364.7 498.4c-1.2 1.4-2.8 2.5-4.8 3.3s-4 1.3-6.2 1.3c-1.5 0-2.4-.1-3-.4-.5-.3-.8-.6-.8-1.1 0-.3.4-.8 1.2-1.6.8-.8 1.3-1.1 1.6-1.1.4 0 .6.1.6.3 0 .1-.1.3-.3.4s-.3.3-.3.4c0 .1.2.3.6.4.4.1.9.2 1.6.2 1.4 0 2.9-.3 4.3-.8s2.6-1.2 3.5-2.1c.9-.8 1.4-1.8 1.4-2.7 0-.9-.3-1.6-.9-2.2-.6-.5-1.3-.9-2.2-1.2s-2.3-.6-4.4-1.1c-2.2-.5-4-1-5.2-1.4-1.2-.4-2.2-.9-3-1.5-.7-.6-1.1-1.4-1.1-2.3 0-1.6.8-3.1 2.4-4.5 1.6-1.4 3.4-2.4 5.5-3.2 2.1-.8 3.7-1.2 4.8-1.2 1.2 0 1.7.3 1.7 1 0 .4-.1.9-.4 1.4-.3.5-.7.7-1.2.7-.2 0-.4-.1-.7-.2-.2-.2-.5-.2-.7-.2-.7 0-1.8.2-3.2.7-1.5.4-2.8 1.1-4 2-1.2.9-1.8 2-1.8 3.2 0 .8.5 1.4 1.4 1.8.9.4 2.7.9 5.2 1.5.3.1.6.2.9.2s.6.1.8.2c2.6.6 4.6 1.3 6 2.1 1.4.8 2.1 2 2.1 3.5.4 1.4-.2 2.8-1.4 4.2z"/></g></svg>