<?xml version="1.0" encoding="UTF-8"?>
<svg id="Warstwa_1" xmlns="http://www.w3.org/2000/svg" version="1.1" viewBox="0 0 379.56 70.5">
  <!-- Generator: Adobe Illustrator 29.3.1, SVG Export Plug-In . SVG Version: 2.1.0 Build 151)  -->
  <defs>
    <style>
      .st0 {
        fill: #f7c48f;
      }

      .st1 {
        fill: #68575f;
      }

      .st2 {
        fill: #e74c78;
      }

      .st3 {
        fill: #6da9a8;
      }

      .st4 {
        fill: #010101;
      }
    </style>
  </defs>
  <polygon class="st4" points="41.05 10.55 18.33 35.02 42.95 60.8 42.95 61.39 31.04 61.39 9.64 38.74 9.64 61.39 0 61.39 0 10.26 9.64 10.26 9.64 31.88 29.07 10.26 41.05 10.26 41.05 10.55"/>
  <polygon class="st4" points="173.05 10.55 150.33 35.02 174.95 60.8 174.95 61.39 163.04 61.39 141.64 38.74 141.64 61.39 132 61.39 132 10.26 141.64 10.26 141.64 31.88 161.07 10.26 173.05 10.26 173.05 10.55"/>
  <polygon class="st4" points="297.75 10.18 307.39 10.18 307.39 61.39 301.4 61.39 301.4 61.46 274.52 26.91 274.52 61.39 264.88 61.39 264.88 10.26 272.69 10.26 297.75 41.96 297.75 10.18"/>
  <polygon class="st4" points="360.2 10.55 337.49 35.02 362.1 60.8 362.1 61.39 350.2 61.39 328.79 38.74 328.79 61.39 319.15 61.39 319.15 10.26 328.79 10.26 328.79 31.88 348.22 10.26 360.2 10.26 360.2 10.55"/>
  <rect class="st4" x="369.99" y="10.26" width="9.57" height="51.13"/>
  <path class="st2" d="M86.28,70.41c-19.42,1.44-36.32-13.13-37.76-32.54C47.08,18.45,61.65,1.54,81.06.1c19.41-1.44,36.32,13.13,37.76,32.54,1.44,19.42-13.13,36.32-32.54,37.76"/>
  <path class="st1" d="M105.64,35.25c0,12.13-9.84,21.97-21.97,21.97s-21.97-9.84-21.97-21.97,9.84-21.97,21.97-21.97,21.97,9.84,21.97,21.97"/>
  <path class="st0" d="M99.3,35.25c0,8.63-7,15.62-15.62,15.62s-15.63-7-15.63-15.62,7-15.63,15.63-15.63,15.62,7,15.62,15.63"/>
  <path class="st1" d="M218.95,70.41c-19.41,1.44-36.32-13.13-37.76-32.54C179.74,18.45,194.31,1.54,213.73.1c19.41-1.44,36.32,13.13,37.76,32.54,1.44,19.42-13.13,36.32-32.54,37.76"/>
  <path class="st3" d="M238.31,35.25c0,12.13-9.84,21.97-21.97,21.97s-21.97-9.84-21.97-21.97,9.84-21.97,21.97-21.97,21.97,9.84,21.97,21.97"/>
  <path class="st0" d="M231.96,35.25c0,8.63-7,15.62-15.63,15.62s-15.62-7-15.62-15.62,7-15.63,15.62-15.63,15.63,7,15.63,15.63"/>
</svg>