<svg width="1004" height="788" viewBox="0 0 1004 788" fill="none" xmlns="http://www.w3.org/2000/svg">
<path opacity="0.24" d="M419.624 786.549C360.77 772.365 304.152 751.619 248.432 729.608C165.875 697.003 79.8007 657.482 35.9544 587.519C4.37926 537.14 -0.829326 477.212 0.0976247 419.579C0.745019 382.472 3.83486 344.732 18.8132 310.052C46.6217 245.622 117.202 197.332 194.684 189.71C239.413 185.296 285.231 193.433 329.371 185.649C454.245 163.579 519.911 26.2432 644.608 3.46668C676.61 -2.41872 709.804 0.0972884 742.144 4.30535C812.107 13.4277 1111.06 192.064 962.17 523.369C938.422 576.19 890.339 617.358 838.665 650.42C796.128 677.64 748.044 698.327 709.48 729.873C689.838 745.925 671.99 765.185 646.992 773.557C631.602 778.736 614.813 779.295 598.364 779.796L464.397 783.93" fill="#68E1FD"/>
<path d="M320.131 367.773V475.461H242.017V555.885H134.373V475.461H56.3179V367.773H134.373V292.072H242.017V367.773H320.131Z" fill="#68E1FD"/>
<path d="M408.721 681.568L426.819 787.167L512.01 783.386L514.747 708.494L527.783 784.651L599.732 782.12L625.819 663.059L408.721 681.568Z" fill="#606161"/>
<path d="M408.721 681.568L426.819 787.167L512.01 783.386L514.747 708.494L527.783 784.651L599.732 782.12L625.819 663.059L408.721 681.568Z" fill="url(#paint0_linear_11_267)"/>
<path d="M447.933 141.509C447.719 143.876 448.014 146.261 448.798 148.504C449.582 150.748 450.837 152.797 452.479 154.515C453.247 155.382 454.217 156.044 455.304 156.443C460.939 158.209 461.072 146.747 459.394 143.524C457.408 139.876 448.595 134.137 447.933 141.509Z" fill="url(#paint1_linear_11_267)"/>
<path d="M548.396 133.49C548.683 135.851 548.462 138.245 547.749 140.513C547.036 142.781 545.847 144.872 544.262 146.644C543.53 147.548 542.585 148.256 541.511 148.704C535.934 150.646 535.419 139.199 537.008 135.918C538.818 132.122 547.44 126.148 548.396 133.49Z" fill="url(#paint2_linear_11_267)"/>
<path d="M473.726 208.853C448.816 221.344 430.159 243.223 412.223 264.529C408.604 268.825 406.985 274.048 405.102 279.33C385.254 335.242 388.814 371.01 383.032 416.387C378.25 453.553 367.332 491.426 376.558 527.797C376.558 527.797 380.972 676.948 389.167 700.46L635.427 690.617C635.427 690.617 612.724 449.772 610.679 420.286C600.512 277.212 571.1 246.137 549.103 226.774C527.106 207.411 473.726 208.853 473.726 208.853Z" fill="#68E1FD"/>
<path d="M473.726 208.853C448.816 221.344 430.159 243.223 412.223 264.528C408.604 268.825 406.985 274.048 405.102 279.33C385.254 335.242 388.814 371.01 383.032 416.387C378.25 453.553 367.332 491.426 376.558 527.797C376.558 527.797 380.972 676.948 389.167 700.46L635.427 690.617C635.427 690.617 612.209 461.66 611.577 432.101C608.914 307.301 576.75 247.034 549.147 226.774C525.488 209.441 473.726 208.853 473.726 208.853Z" fill="url(#paint3_linear_11_267)"/>
<path d="M503.579 523.442C504.471 523.575 505.381 523.409 506.169 522.971C506.611 522.576 506.958 522.087 507.185 521.539C507.412 520.992 507.512 520.4 507.478 519.808C508.082 509.921 501.49 501.269 497.694 492.132C494.486 484.451 493.192 476.079 490.102 468.34C487.012 460.601 481.509 453.097 473.476 450.89C470.096 450.147 466.628 449.89 463.176 450.125L435.22 450.772C434.45 450.609 433.652 450.636 432.894 450.85C432.137 451.065 431.443 451.462 430.873 452.005C430.304 452.549 429.875 453.223 429.625 453.97C429.375 454.716 429.311 455.513 429.438 456.29C428.746 463.514 423.553 480.508 428.217 486.894C430.306 489.837 435.897 490.793 439.016 492.264C443.53 494.461 447.912 496.917 452.141 499.621C467.502 509.185 484.364 523.442 503.579 523.442Z" fill="url(#paint4_linear_11_267)"/>
<path d="M544.454 454.362C531.212 461.189 526.268 477.198 520.015 490.749C516.392 498.599 511.953 506.045 506.772 512.966C505.198 515.07 503.462 517.469 503.83 520.058C504.147 521.372 504.867 522.554 505.887 523.44C506.908 524.326 508.179 524.872 509.524 525.002C512.215 525.205 514.917 524.771 517.41 523.737C530.431 519.295 542.569 512.597 553.267 503.947C560.271 498.282 566.862 491.646 575.337 488.586C578.648 487.394 582.473 486.57 584.46 483.657C585.483 481.855 586.072 479.84 586.181 477.771C586.902 472.151 587.653 466.427 586.564 460.866C584.739 451.317 580.561 448.653 572.056 449.286C563.007 449.948 552.693 450.11 544.454 454.362Z" fill="url(#paint5_linear_11_267)"/>
<path d="M467.266 225.126C467.266 225.126 496.281 251.772 511.76 233.292C527.239 214.811 525.37 221.727 525.37 221.727L517.307 395.346L467.266 225.126Z" fill="#606161"/>
<path d="M503.977 45.2385C498.59 38.86 490.923 34.8414 482.613 34.0415C474.564 33.3205 465.722 36.2632 461.455 43.1197C458.35 48.0929 458.041 54.2725 458.026 60.1432C458.026 65.6167 458.218 71.3108 460.778 76.1515C463.484 80.873 467.806 84.4575 472.946 86.245C484.717 90.6591 498.65 86.6864 507.611 78.1673C516.571 69.6482 511.201 53.8017 503.977 45.2385Z" fill="#606161"/>
<path d="M503.977 45.2385C498.59 38.86 490.923 34.8414 482.613 34.0415C474.564 33.3205 465.722 36.2632 461.455 43.1197C458.35 48.0929 458.041 54.2725 458.026 60.1432C458.026 65.6167 458.218 71.3108 460.778 76.1515C463.484 80.873 467.806 84.4575 472.946 86.245C484.717 90.6591 498.65 86.6864 507.611 78.1673C516.571 69.6482 511.201 53.8017 503.977 45.2385Z" fill="url(#paint6_linear_11_267)"/>
<path d="M477.61 173.055C477.61 173.055 477.875 210.501 469.473 218.519C461.072 226.538 504.344 262.66 521.75 221.3C521.75 221.3 510.951 203.732 514.085 173.776C517.219 143.819 477.61 173.055 477.61 173.055Z" fill="url(#paint7_linear_11_267)"/>
<path d="M476.433 181.942L476.565 190.152C476.565 190.152 498.753 221.05 507.464 210.353C516.174 199.657 513.496 197.45 513.496 197.45L514.144 173.717L476.433 181.942Z" fill="url(#paint8_linear_11_267)"/>
<path d="M456.054 119.851C456.054 119.851 450.728 177.101 481.465 187.945C512.201 198.789 530.166 182.236 538.097 154.501C546.028 126.766 532.329 71.3108 499.842 77.255C467.354 83.1993 456.054 119.851 456.054 119.851Z" fill="url(#paint9_linear_11_267)"/>
<path d="M451.464 139.125C450.02 137.177 449.08 134.903 448.727 132.504C446.573 121.811 447.259 110.74 450.719 100.395C454.178 90.05 460.29 80.7929 468.443 73.5472C471.754 70.5313 475.609 68.1742 479.802 66.6024C484.017 65.3488 488.421 64.8506 492.809 65.1311C506.507 65.543 520.25 69.7952 531.064 78.2261C541.879 86.6569 549.456 99.4283 550.339 113.097C550.767 117.157 550.17 121.26 548.603 125.03C547.802 126.9 546.574 128.556 545.018 129.867C543.462 131.178 541.621 132.106 539.642 132.578C532.594 133.917 530.549 127.443 524.782 123.176C516.086 116.775 513.187 107.109 493.677 109.051C461.837 112.244 460.204 149.439 451.464 139.125Z" fill="#606161"/>
<path d="M445.152 228.937C445.152 228.937 339.921 304.535 337.743 444.033C336.463 524.869 427.496 509.626 430.438 507.61C433.381 505.595 441.135 436.471 441.135 436.471C441.135 436.471 408.618 436.986 404.572 431.144C400.526 425.303 445.152 228.937 445.152 228.937Z" fill="#68E1FD"/>
<path d="M445.152 228.937C445.152 228.937 339.921 304.535 337.743 444.033C336.463 524.869 427.496 509.626 430.438 507.61C433.381 505.595 441.135 436.471 441.135 436.471C441.135 436.471 408.618 436.986 404.572 431.144C400.526 425.303 445.152 228.937 445.152 228.937Z" fill="url(#paint10_linear_11_267)"/>
<path d="M557.313 228.937C557.313 228.937 662.559 304.535 664.722 444.033C666.002 524.869 574.969 509.626 572.026 507.61C569.084 505.595 561.344 436.471 561.344 436.471C561.344 436.471 593.861 436.986 597.893 431.144C601.924 425.303 557.313 228.937 557.313 228.937Z" fill="#68E1FD"/>
<path d="M557.313 228.937C557.313 228.937 662.559 304.535 664.722 444.033C666.002 524.869 574.969 509.626 572.026 507.61C569.084 505.595 561.344 436.471 561.344 436.471C561.344 436.471 593.861 436.986 597.893 431.144C601.924 425.303 557.313 228.937 557.313 228.937Z" fill="url(#paint11_linear_11_267)"/>
<path d="M571.085 252.493C570.732 252.491 570.388 252.38 570.101 252.174C569.813 251.968 569.597 251.679 569.481 251.345C562.698 230.996 536.214 219.329 535.949 219.152C535.746 219.066 535.562 218.94 535.408 218.781C535.254 218.623 535.133 218.436 535.052 218.23C534.972 218.025 534.933 217.806 534.937 217.585C534.942 217.364 534.991 217.147 535.081 216.945C535.259 216.537 535.59 216.216 536.003 216.051C536.417 215.885 536.878 215.89 537.288 216.062C538.436 216.562 565.42 228.495 572.689 250.286C572.824 250.711 572.788 251.173 572.587 251.572C572.386 251.971 572.037 252.275 571.615 252.419C571.443 252.472 571.264 252.497 571.085 252.493Z" fill="#68E1FD"/>
<path d="M571.085 252.493C570.732 252.491 570.388 252.38 570.101 252.174C569.813 251.968 569.597 251.679 569.481 251.345C562.698 230.996 536.214 219.329 535.949 219.152C535.746 219.066 535.562 218.94 535.408 218.781C535.254 218.623 535.133 218.436 535.052 218.23C534.972 218.025 534.933 217.806 534.937 217.585C534.942 217.364 534.991 217.147 535.081 216.945C535.259 216.537 535.59 216.216 536.003 216.051C536.417 215.885 536.878 215.89 537.288 216.062C538.436 216.562 565.42 228.495 572.689 250.286C572.824 250.711 572.788 251.173 572.587 251.572C572.386 251.971 572.037 252.275 571.615 252.419C571.443 252.472 571.264 252.497 571.085 252.493Z" fill="url(#paint12_linear_11_267)"/>
<path d="M466.972 367.361C422.434 303.563 455.496 227.774 455.658 227.583C455.898 227.231 456.008 226.805 455.968 226.381C455.927 225.956 455.74 225.559 455.437 225.258C455.308 225.109 455.149 224.989 454.97 224.907C454.791 224.825 454.596 224.782 454.399 224.782C454.203 224.782 454.008 224.825 453.829 224.907C453.65 224.989 453.491 225.109 453.362 225.258C452.685 226.112 418.05 303.608 464.059 367.523C464.589 368.229 467.384 367.935 466.972 367.361Z" fill="#68E1FD"/>
<path d="M474.594 210.221C474.594 210.221 463.573 219.932 475.123 243.4C486.674 266.868 518.366 399.746 518.366 399.746L457.673 303.196L463.662 266.294L451.023 256.642C451.023 256.642 450.464 221.83 456.908 214.488C463.353 207.146 470.415 207.558 474.594 210.221Z" fill="#68E1FD"/>
<path d="M515.747 205.13C515.747 205.13 533.551 209.279 536.641 217.607C539.73 225.935 552.399 250.374 552.399 250.374L544.689 261.335L557.239 275.431L518.322 399.745C518.322 399.745 526.15 232.011 521.706 221.3C517.263 210.589 515.747 205.13 515.747 205.13Z" fill="#68E1FD"/>
<path d="M474.594 210.221C474.594 210.221 463.573 219.932 475.123 243.4C486.674 266.868 518.366 399.746 518.366 399.746L457.673 303.196L463.662 266.294L451.023 256.642C451.023 256.642 450.464 221.83 456.908 214.488C463.353 207.146 470.415 207.558 474.594 210.221Z" fill="url(#paint13_linear_11_267)"/>
<path d="M518.69 392.08C520.161 359.092 525.679 230.614 521.736 221.286C517.322 210.53 515.733 205.101 515.733 205.101C515.777 205.155 515.84 205.192 515.909 205.204C517.881 205.645 533.742 209.765 536.611 217.563C539.76 225.906 552.487 250.286 552.487 250.286L544.777 261.321L557.24 275.402L518.322 399.746C518.322 399.746 518.411 397.009 518.69 392.08Z" fill="url(#paint14_linear_11_267)"/>
<path d="M542.776 137.669C543.151 137.315 543.451 136.89 543.659 136.418C543.775 135.881 543.839 135.334 543.85 134.785C543.904 134.22 544.166 133.695 544.586 133.314C544.781 133.134 545.02 133.011 545.279 132.957C545.538 132.903 545.807 132.919 546.057 133.005C546.28 133.104 546.48 133.25 546.642 133.433C546.805 133.616 546.926 133.831 546.999 134.064C547.154 134.539 547.233 135.036 547.234 135.535C547.46 137.412 547.207 139.315 546.499 141.068C545.822 142.275 544.947 143.359 543.909 144.275C543.545 144.731 543.017 145.027 542.438 145.099C542.063 145.071 541.703 144.944 541.393 144.731C541.254 144.668 541.133 144.572 541.04 144.452C540.974 144.324 540.934 144.183 540.922 144.04C540.68 142.746 540.68 141.419 540.922 140.126C541.279 139.139 541.925 138.282 542.776 137.669Z" fill="url(#paint15_linear_11_267)"/>
<path d="M454.348 145.232C453.958 144.902 453.647 144.49 453.436 144.025C453.293 143.491 453.209 142.944 453.185 142.392C453.115 141.822 452.837 141.299 452.406 140.921C452.193 140.747 451.939 140.631 451.668 140.584C451.397 140.538 451.119 140.563 450.861 140.656C450.642 140.765 450.448 140.918 450.291 141.105C450.134 141.293 450.018 141.51 449.948 141.745C449.822 142.225 449.763 142.72 449.772 143.216C449.597 145.101 449.906 147 450.669 148.733C451.391 149.917 452.306 150.971 453.377 151.853C453.749 152.291 454.276 152.57 454.848 152.632C455.22 152.591 455.575 152.455 455.878 152.235C456.02 152.171 456.142 152.069 456.231 151.941C456.294 151.807 456.33 151.662 456.334 151.514C456.511 150.215 456.451 148.894 456.158 147.615C455.797 146.663 455.168 145.835 454.348 145.232Z" fill="url(#paint16_linear_11_267)"/>
<path d="M518.69 392.08C520.161 359.092 525.679 230.614 521.736 221.286C517.322 210.53 515.733 205.101 515.733 205.101C515.777 205.155 515.84 205.192 515.909 205.204C517.16 206.366 525.414 213.899 527.474 219.182C529.534 224.464 532.491 354.06 518.69 392.08Z" fill="url(#paint17_linear_11_267)"/>
<path d="M425.112 394.552C425.112 394.552 438.251 356.812 472.99 361.741C507.728 366.67 513.776 389.461 513.776 389.461C513.776 389.461 523.075 347.174 570.702 364.786C618.33 382.398 581.473 439.237 575.926 443.018C570.379 446.799 508.788 506.154 508.788 506.154C508.788 506.154 431.512 439.222 427.128 432.307C422.743 425.391 418.27 412.399 425.112 394.552Z" fill="#68E1FD"/>
<path d="M437.825 396.303C437.825 396.303 449.272 358.857 478.935 363.506C508.597 368.156 513.6 390.712 513.6 390.712C513.6 390.712 529.431 349.352 570.703 364.786C619.081 382.869 580.693 439.237 575.926 443.018C571.159 446.8 508.626 506.286 508.626 506.286C508.626 506.286 443.019 440.487 439.311 433.66C435.603 426.833 431.866 414.018 437.825 396.303Z" fill="url(#paint18_linear_11_267)"/>
<path d="M432.94 393.801C436.883 382.501 446.432 372.158 458.38 371.466C459.163 371.366 459.958 371.489 460.675 371.819C461.128 372.155 461.506 372.581 461.787 373.069C462.068 373.558 462.245 374.099 462.308 374.659C463.971 382.487 459.895 390.255 458.497 398.127C455.79 413.385 463.162 428.378 469.282 442.606C470.298 444.931 471.195 447.859 469.562 449.801C468.959 450.371 468.25 450.816 467.475 451.111C466.7 451.407 465.874 451.546 465.045 451.522C437.045 453.479 425.274 415.783 432.94 393.801Z" fill="url(#paint19_linear_11_267)"/>
<path d="M506.904 468.37L491.544 418.329L482.348 437.604L433.764 439.134L425.877 430.924L476.477 429.085L493.353 393.684L507.449 439.561L519.617 404.616L528.725 424.141L540.054 395.597L550.824 429.614L584.901 429.658L579.854 438.501L544.306 438.766L539.098 422.302L529.387 446.755L520.823 428.422L506.904 468.37Z" fill="white"/>
<path d="M577.044 350.485C575.7 350.49 574.373 350.193 573.159 349.617C569.82 348.013 567.657 344.408 566.7 338.891C564.92 328.591 558.887 257.083 567.848 249.432C568.504 248.828 569.308 248.408 570.18 248.217C571.051 248.026 571.958 248.069 572.806 248.344C580.31 250.683 586.858 273.548 588.682 280.493L602.425 334.844C602.645 338.788 601.306 345.468 595.215 346.174L594.627 341.171C597.569 340.818 597.452 335.624 597.452 335.565L583.783 281.758C579.928 267.045 573.939 253.464 571.232 253.155C565.67 257.922 568.701 320.837 571.659 338.037C572.306 341.789 573.571 344.232 575.337 345.07C576.789 345.555 578.372 345.454 579.751 344.791L582.179 349.205C580.587 350.016 578.831 350.453 577.044 350.485Z" fill="#68E1FD"/>
<path d="M577.044 350.485C575.7 350.49 574.373 350.193 573.159 349.617C569.82 348.013 567.657 344.408 566.7 338.891C564.92 328.591 558.887 257.083 567.848 249.432C568.504 248.828 569.308 248.408 570.18 248.217C571.051 248.026 571.958 248.069 572.806 248.344C580.31 250.683 586.858 273.548 588.682 280.493L602.425 334.844C602.645 338.788 601.306 345.468 595.215 346.174L594.627 341.171C597.569 340.818 597.452 335.624 597.452 335.565L583.783 281.758C579.928 267.045 573.939 253.464 571.232 253.155C565.67 257.922 568.701 320.837 571.659 338.037C572.306 341.789 573.571 344.232 575.337 345.07C576.789 345.555 578.372 345.454 579.751 344.791L582.179 349.205C580.587 350.016 578.831 350.453 577.044 350.485Z" fill="url(#paint20_linear_11_267)"/>
<defs>
<linearGradient id="paint0_linear_11_267" x1="408.721" y1="725.12" x2="625.819" y2="725.12" gradientUnits="userSpaceOnUse">
<stop offset="0.12" stop-color="#010101" stop-opacity="0"/>
<stop offset="0.95" stop-color="#010101"/>
</linearGradient>
<linearGradient id="paint1_linear_11_267" x1="447.893" y1="147.347" x2="460.265" y2="147.149" gradientUnits="userSpaceOnUse">
<stop stop-color="#E5C6D6"/>
<stop offset="0.42" stop-color="#EAD4D0"/>
<stop offset="1" stop-color="#F0E9CB"/>
</linearGradient>
<linearGradient id="paint2_linear_11_267" x1="549.636" y1="134.197" x2="537.247" y2="134.444" gradientUnits="userSpaceOnUse">
<stop stop-color="#E5C6D6"/>
<stop offset="0.42" stop-color="#EAD4D0"/>
<stop offset="1" stop-color="#F0E9CB"/>
</linearGradient>
<linearGradient id="paint3_linear_11_267" x1="514.85" y1="805.206" x2="484.555" y2="212.001" gradientUnits="userSpaceOnUse">
<stop stop-color="white" stop-opacity="0"/>
<stop offset="0.95" stop-color="white"/>
</linearGradient>
<linearGradient id="paint4_linear_11_267" x1="417.734" y1="493.291" x2="476.923" y2="458.671" gradientUnits="userSpaceOnUse">
<stop stop-color="#E5C6D6"/>
<stop offset="0.42" stop-color="#EAD4D0"/>
<stop offset="1" stop-color="#F0E9CB"/>
</linearGradient>
<linearGradient id="paint5_linear_11_267" x1="561.779" y1="492.096" x2="504.025" y2="459.369" gradientUnits="userSpaceOnUse">
<stop stop-color="#E5C6D6"/>
<stop offset="0.42" stop-color="#EAD4D0"/>
<stop offset="1" stop-color="#F0E9CB"/>
</linearGradient>
<linearGradient id="paint6_linear_11_267" x1="477.828" y1="46.7873" x2="490.42" y2="78.6205" gradientUnits="userSpaceOnUse">
<stop stop-color="#010101" stop-opacity="0"/>
<stop offset="0.95" stop-color="#010101"/>
</linearGradient>
<linearGradient id="paint7_linear_11_267" x1="468.091" y1="201.029" x2="521.435" y2="200.172" gradientUnits="userSpaceOnUse">
<stop stop-color="#E5C6D6"/>
<stop offset="0.42" stop-color="#EAD4D0"/>
<stop offset="1" stop-color="#F0E9CB"/>
</linearGradient>
<linearGradient id="paint8_linear_11_267" x1="489.771" y1="219.649" x2="512.444" y2="97.5587" gradientUnits="userSpaceOnUse">
<stop offset="0.12" stop-color="#010101" stop-opacity="0"/>
<stop offset="0.95" stop-color="#010101"/>
</linearGradient>
<linearGradient id="paint9_linear_11_267" x1="455.799" y1="134.771" x2="540.273" y2="133.415" gradientUnits="userSpaceOnUse">
<stop stop-color="#E5C6D6"/>
<stop offset="0.42" stop-color="#EAD4D0"/>
<stop offset="1" stop-color="#F0E9CB"/>
</linearGradient>
<linearGradient id="paint10_linear_11_267" x1="279.63" y1="354.932" x2="431.665" y2="370.237" gradientUnits="userSpaceOnUse">
<stop offset="0.52" stop-color="white" stop-opacity="0.52"/>
<stop offset="0.95" stop-color="white"/>
</linearGradient>
<linearGradient id="paint11_linear_11_267" x1="703.545" y1="344.475" x2="565.673" y2="353.414" gradientUnits="userSpaceOnUse">
<stop offset="0.52" stop-color="white" stop-opacity="0.52"/>
<stop offset="0.95" stop-color="white"/>
</linearGradient>
<linearGradient id="paint12_linear_11_267" x1="557.902" y1="231.497" x2="534.066" y2="247.461" gradientUnits="userSpaceOnUse">
<stop offset="0.12" stop-color="#010101" stop-opacity="0"/>
<stop offset="0.95" stop-color="#010101"/>
</linearGradient>
<linearGradient id="paint13_linear_11_267" x1="442.26" y1="321.683" x2="485.383" y2="306.525" gradientUnits="userSpaceOnUse">
<stop stop-color="white" stop-opacity="0"/>
<stop offset="0.95" stop-color="white"/>
</linearGradient>
<linearGradient id="paint14_linear_11_267" x1="576.529" y1="299.635" x2="510.274" y2="302.799" gradientUnits="userSpaceOnUse">
<stop stop-color="white" stop-opacity="0"/>
<stop offset="0.11" stop-color="white" stop-opacity="0.18"/>
<stop offset="0.29" stop-color="white" stop-opacity="0.42"/>
<stop offset="0.45" stop-color="white" stop-opacity="0.63"/>
<stop offset="0.6" stop-color="white" stop-opacity="0.79"/>
<stop offset="0.74" stop-color="white" stop-opacity="0.9"/>
<stop offset="0.86" stop-color="white" stop-opacity="0.98"/>
<stop offset="0.95" stop-color="white"/>
</linearGradient>
<linearGradient id="paint15_linear_11_267" x1="548.086" y1="139.764" x2="522.964" y2="134.973" gradientUnits="userSpaceOnUse">
<stop offset="0.12" stop-color="#010101" stop-opacity="0"/>
<stop offset="0.95" stop-color="#010101"/>
</linearGradient>
<linearGradient id="paint16_linear_11_267" x1="450.172" y1="142.725" x2="475.126" y2="137.03" gradientUnits="userSpaceOnUse">
<stop offset="0.12" stop-color="#010101" stop-opacity="0"/>
<stop offset="0.95" stop-color="#010101"/>
</linearGradient>
<linearGradient id="paint17_linear_11_267" x1="464" y1="316.35" x2="522.442" y2="296.869" gradientUnits="userSpaceOnUse">
<stop stop-color="white" stop-opacity="0"/>
<stop offset="0.95" stop-color="white"/>
</linearGradient>
<linearGradient id="paint18_linear_11_267" x1="474.977" y1="349.705" x2="687.028" y2="652.612" gradientUnits="userSpaceOnUse">
<stop offset="0.12" stop-color="#010101" stop-opacity="0"/>
<stop offset="0.95" stop-color="#010101"/>
</linearGradient>
<linearGradient id="paint19_linear_11_267" x1="416.888" y1="406.131" x2="533.625" y2="420.654" gradientUnits="userSpaceOnUse">
<stop stop-color="white" stop-opacity="0"/>
<stop offset="0.95" stop-color="white"/>
</linearGradient>
<linearGradient id="paint20_linear_11_267" x1="524.458" y1="292.146" x2="721.56" y2="320.572" gradientUnits="userSpaceOnUse">
<stop offset="0.12" stop-color="#010101" stop-opacity="0"/>
<stop offset="0.95" stop-color="#010101"/>
</linearGradient>
</defs>
</svg>
