<svg width="502" height="751" viewBox="0 0 502 751" fill="none" xmlns="http://www.w3.org/2000/svg">
<path d="M154.12 65.1076C149.154 65.1076 144.3 63.635 140.171 60.876C136.042 58.1171 132.823 54.1957 130.923 49.6077C129.023 45.0197 128.525 39.9712 129.494 35.1007C130.463 30.2301 132.854 25.7562 136.366 22.2447C139.877 18.7333 144.351 16.3419 149.222 15.3731C154.092 14.4043 159.141 14.9015 163.729 16.8019C168.317 18.7023 172.238 21.9205 174.997 26.0496C177.756 30.1787 179.229 35.0331 179.229 39.9991C179.22 46.6557 176.572 53.0373 171.865 57.7442C167.158 62.4511 160.777 65.0992 154.12 65.1076ZM154.12 33.9002C152.914 33.9002 151.735 34.2579 150.732 34.928C149.729 35.5982 148.947 36.5507 148.486 37.6652C148.024 38.7796 147.903 40.0059 148.138 41.1889C148.374 42.372 148.955 43.4587 149.808 44.3117C150.661 45.1646 151.747 45.7455 152.93 45.9808C154.113 46.2161 155.34 46.0954 156.454 45.6338C157.569 45.1721 158.521 44.3904 159.191 43.3875C159.861 42.3845 160.219 41.2054 160.219 39.9991C160.219 39.1982 160.061 38.4051 159.755 37.6652C159.448 36.9252 158.999 36.2529 158.433 35.6865C157.866 35.1202 157.194 34.6709 156.454 34.3645C155.714 34.058 154.921 33.9002 154.12 33.9002Z" fill="#E7F6FF"/>
<path d="M198.919 65.6155C203.783 65.6155 207.727 61.6722 207.727 56.8078C207.727 51.9434 203.783 48 198.919 48C194.055 48 190.111 51.9434 190.111 56.8078C190.111 61.6722 194.055 65.6155 198.919 65.6155Z" fill="#E7F6FF"/>
<path opacity="0.5" d="M326.585 516.254V535.596C320.993 553.386 312.201 574.201 300.652 597.155C295.9 606.264 290.815 615.88 285.366 625.765C289.088 619.428 292.668 613.234 296.122 607.056C292.098 614.692 287.837 622.628 283.338 630.691V600.593L284.669 598.074L283.338 600.45V599.342C285.344 595.55 287.298 591.854 289.199 588.253C301.73 563.318 311.028 540.935 316.51 522.179C319.915 520.262 323.274 518.282 326.585 516.254Z" fill="#BBD2E5"/>
<path d="M409.798 235.337C409.608 323.257 337.53 394.986 249.643 394.796C173.525 394.638 109.495 340.555 93.8593 268.953C92.2442 259.753 91.4437 250.428 91.4673 241.088C91.6574 153.216 163.735 81.4392 251.607 81.6293C327.645 81.7877 391.565 135.727 407.343 207.14C407.337 207.177 407.337 207.214 407.343 207.251C408.993 216.522 409.815 225.921 409.798 235.337Z" fill="white"/>
<path d="M251.353 9.89924C103.538 9.58242 11.4525 102.603 11.0882 249.087C10.9931 294.362 34.8501 364.982 75.9108 450.272C94.4768 486.279 117.098 526.31 140.86 566.278C170.04 615.607 201.897 664.953 233.769 710.291L249.706 731.645C255.044 724.976 260.383 718.338 265.721 710.354C297.8 663.828 329.847 615.94 359.185 566.753C383.248 526.848 404.65 486.944 423.358 451.032C466.13 365.901 490.288 295.375 490.383 250.101C490.842 107.624 395.176 10.2161 251.353 9.89924ZM250.514 396.031C162.626 395.841 90.865 323.795 91.0551 235.891C91.2452 147.988 163.323 76.2901 251.211 76.4802C339.098 76.6703 410.859 148.732 410.669 236.62C410.479 324.508 338.401 396.269 250.514 396.031Z" fill="#F3AA9F"/>
<path d="M414.297 472.308C397.854 503.467 379.525 537.003 359.296 570.524C329.91 619.711 297.847 667.599 265.832 714.125C260.494 722.046 255.155 728.747 249.801 735.416L233.817 714.078C201.944 668.74 170.087 619.394 140.987 570.08C117.082 530.065 94.5402 490.066 76.0375 454.074C34.8501 368.753 10.9931 298.117 11.0882 252.842C11.2149 192.392 26.9295 141.066 55.824 101.621C44.4024 131.371 38.3986 165.256 38.2718 202.609C38.1768 247.884 62.0338 318.52 103.094 403.794C121.66 439.785 144.203 479.832 168.044 519.8C197.223 569.114 229.08 618.459 260.937 663.797L276.874 685.151C282.228 678.482 287.566 671.845 292.905 663.861C324.968 617.335 357.031 569.446 386.369 520.259C396.19 504.228 405.457 488.133 414.297 472.308Z" fill="#E1978F"/>
<path d="M249.437 750.989L224.757 717.896C192.789 672.432 160.504 622.389 131.372 573.154C106.422 531.381 83.8483 491.049 66.0585 456.578L65.9318 456.309C22.0831 365.316 -0.0947436 295.979 0.000304213 250.293C0.158717 175.221 23.7623 112.125 68.1179 67.7849C112.474 23.4451 175.522 0 250.562 0H251.338C324.763 0.158413 387.574 24.3956 432.832 70.0661C478.091 115.737 501.742 178.262 501.599 251.322C501.504 297.468 477.837 368.675 433.402 457.259V457.402C416.706 489.449 394.29 531.618 368.897 573.74C337.436 626.397 303.773 676.17 275.005 717.896C269.54 726.054 264.027 732.93 258.705 739.583L249.437 750.989ZM242.8 705.049L249.976 714.665C252.178 711.75 254.364 708.708 256.55 705.445C285.144 663.751 318.632 614.421 349.776 562.287C374.869 520.704 397.047 478.946 413.601 447.2C456.562 361.752 479.311 294.015 479.406 251.291C479.707 114.548 388.017 22.4788 251.291 22.1778H250.562C109.971 22.1778 22.4791 109.527 22.1781 250.293C22.0831 292.034 44.1025 359.883 85.8443 446.535C103.396 480.578 125.733 520.434 150.493 561.812C179.276 610.54 211.197 660.044 242.8 704.938V705.049ZM250.831 408.405H250.451C205.116 408.356 161.657 390.301 129.635 358.21C97.6125 326.119 79.6496 282.622 79.6979 237.287C79.7462 191.952 97.8018 148.493 129.893 116.471C161.983 84.4481 205.481 66.4852 250.816 66.5335H251.196C284.997 66.5694 318.026 76.6391 346.098 95.4663C374.17 114.294 396.021 141.031 408.882 172.29C421.742 203.548 425.033 237.921 418.338 271.053C411.643 304.184 395.262 334.582 371.273 358.394C355.483 374.252 336.713 386.831 316.043 395.406C295.372 403.98 273.21 408.382 250.831 408.357V408.405ZM250.831 88.8063C211.655 89.1668 174.203 104.972 146.613 132.787C119.023 160.603 103.523 198.182 103.482 237.36C103.44 276.538 118.86 314.15 146.39 342.024C173.921 369.898 211.339 385.783 250.515 386.227H250.847C290.3 386.267 328.153 370.632 356.079 342.763C384.005 314.894 399.716 277.073 399.756 237.62C399.796 198.167 384.161 160.314 356.292 132.388C328.423 104.462 290.601 88.7512 251.148 88.7113L250.831 88.8063Z" fill="#426572"/>
<path d="M442.257 157.555C446.854 168.733 450.438 180.302 452.966 192.121C453.505 194.846 453.917 197.523 454.36 200.042C454.804 202.56 455.295 205.142 455.453 207.598L456.103 214.695C456.277 216.976 456.546 219.146 456.515 221.237C456.515 225.419 456.594 229.158 456.515 232.5C456.435 235.843 456.039 238.663 455.754 240.975C455.152 245.617 454.408 248.152 453.584 248.152C452.76 248.152 451.889 245.617 451.034 241.102C450.59 238.837 450.257 236.081 449.734 232.896C449.212 229.712 448.546 226.101 447.944 222.124C447.691 220.128 447.184 218.069 446.772 215.915L445.473 209.214C445.109 206.885 444.38 204.541 443.889 202.101C443.398 199.661 442.749 197.143 442.083 194.592C439.079 183.568 435.402 172.739 431.073 162.165C426.575 151.67 421.389 141.483 415.549 131.671L411.509 125.144L407.454 119.077C406.187 117.081 404.84 115.259 403.557 113.485C402.274 111.71 401.086 109.968 399.882 108.352C390.235 95.4573 383.581 87.7584 384.785 86.4436C385.989 85.1288 394.654 90.8158 406.409 102.792C407.882 104.281 409.323 105.96 410.86 107.623C412.397 109.287 414.028 111.093 415.501 113.041C416.975 114.99 418.67 116.954 420.254 119.045L425.006 125.682C431.748 135.74 437.524 146.411 442.257 157.555Z" fill="white"/>
<path d="M347.226 51.2298C357.776 57.3446 364.081 65.4078 362.116 68.0533C360.152 70.6988 351.028 67.4355 341.127 61.7168C331.226 55.9981 323.939 49.915 325.127 46.8418C326.315 43.7686 336.707 45.0834 347.226 51.2298Z" fill="white"/>
</svg>
