<svg width="251" height="251" viewBox="0 0 251 251" fill="none" xmlns="http://www.w3.org/2000/svg">
<path d="M221.687 130.869C220.477 124.755 224.755 118.745 230.369 117.409L227.009 100.38C221.312 101.278 214.863 97.3752 213.674 91.2606C213.611 90.9476 213.298 90.3633 213.319 90.3633L11.2891 130.118C11.31 130.118 11.4561 130.723 11.5187 131.057C12.7499 137.318 8.47184 143.432 2.21123 144.664C1.71038 144.768 0.520869 144.956 0.5 144.893L3.88073 162.089C3.85986 162.026 5.04938 161.755 5.55022 161.651C11.8108 160.419 17.9671 164.468 19.1984 170.729C20.4296 176.989 16.1933 183.083 9.95352 184.314C9.45267 184.419 8.32576 184.585 8.30489 184.523L11.6856 201.719C11.6648 201.656 12.8543 201.385 13.3551 201.28C19.6157 200.049 25.772 204.098 27.0032 210.358C28.2345 216.619 23.9982 222.713 17.7584 223.944C17.2576 224.048 16.1307 224.215 16.1098 224.152L19.4905 241.348C19.4696 241.286 20.6592 241.014 21.16 240.91C27.4206 239.679 33.5978 243.727 34.829 249.988C34.8916 250.301 35.1003 250.906 35.0794 250.906L237.13 211.13C237.109 211.13 237.172 210.484 237.109 210.17C235.899 204.056 240.386 198.004 245.999 196.668L242.64 179.64C236.942 180.537 230.703 176.593 229.513 170.478C228.303 164.364 232.581 158.353 238.194 157.018L234.835 139.989C229.117 140.907 222.898 136.984 221.687 130.869Z" fill="#4DD0E1"/>
<path d="M27.0371 145.922L202.888 111.314L219.507 195.759L43.6558 230.366L27.0371 145.922Z" fill="#00BCD4"/>
<path d="M52.2402 131.57L59.1612 130.208L79.5598 233.86L72.6388 235.222L52.2402 131.57Z" fill="#4DD0E1"/>
<path d="M167.312 107.797L174.234 106.435L194.632 210.086L187.711 211.448L167.312 107.797Z" fill="#4DD0E1"/>
<path d="M156.599 157.329L89.9233 170.163C86.1043 170.894 82.4314 168.41 81.6801 164.592C80.9497 160.773 83.4331 157.1 87.2521 156.348L153.928 143.514C157.747 142.784 161.419 145.267 162.171 149.086C162.901 152.905 160.397 156.599 156.599 157.329Z" fill="#00838F"/>
<path d="M146.958 189.093L108.414 196.522C104.72 197.232 101.151 194.811 100.442 191.138C99.7323 187.444 102.153 183.876 105.826 183.166L144.37 175.737C148.064 175.027 151.633 177.448 152.342 181.121C153.073 184.815 150.652 188.383 146.958 189.093Z" fill="#00838F"/>
<path opacity="0.2" d="M209.417 97.5004C211.984 102.029 216.575 105.368 221.834 106.411L223.274 113.778C217.431 117.68 214.133 124.88 215.532 132.08C216.909 139.092 222.669 144.601 229.618 146.041L231.079 153.428C225.236 157.331 221.938 164.531 223.337 171.73C224.714 178.742 230.474 184.252 237.423 185.691L238.884 193.079C234.48 196.021 231.454 200.842 230.787 206.038L39.1286 243.769C36.2278 238.489 30.7394 234.879 24.5205 234.503L23.3727 228.639C26.1691 227.283 28.569 225.217 30.3637 222.587C33.0975 218.601 34.0784 213.843 33.1601 209.169C31.595 201.218 24.7709 195.354 16.7156 194.853L15.5678 188.989C18.3642 187.632 20.7641 185.566 22.5588 182.937C25.2926 178.951 26.2735 174.193 25.3552 169.518C23.7901 161.567 16.966 155.703 8.9107 155.202L7.76292 149.359C10.5802 148.003 13.001 145.937 14.8165 143.307C16.5069 140.845 17.5503 138.09 17.8634 135.231L209.417 97.5004ZM213.34 90.3633L11.2897 130.118C11.3106 130.118 11.4567 130.723 11.5193 131.057C12.7505 137.318 8.47246 143.432 2.21185 144.664C1.77361 144.747 0.834515 144.893 0.584091 144.893C0.542354 144.893 0.521484 144.893 0.521484 144.872L3.90221 162.068C3.88135 162.006 5.07086 161.734 5.57171 161.63C6.32298 161.484 7.07426 161.4 7.82553 161.4C13.2514 161.4 18.1555 165.198 19.2198 170.687C20.4511 176.948 16.2147 183.041 9.975 184.272C9.53676 184.356 8.66028 184.502 8.38898 184.502C8.34725 184.502 8.32638 184.502 8.32638 184.481L11.7071 201.677C11.6862 201.614 12.8758 201.343 13.3766 201.239C14.1279 201.093 14.8791 201.009 15.6304 201.009C21.0563 201.009 25.9604 204.807 27.0247 210.296C28.256 216.556 24.0196 222.65 17.7799 223.881C17.3417 223.965 16.4652 224.111 16.1939 224.111C16.1521 224.111 16.1313 224.111 16.1313 224.09L19.512 241.286C19.4911 241.223 20.6806 240.952 21.1815 240.847C21.9328 240.701 22.684 240.618 23.4353 240.618C28.8612 240.618 33.7653 244.416 34.8505 249.925C34.9131 250.238 35.1218 250.844 35.1009 250.844L237.152 211.068C237.131 211.068 237.193 210.421 237.131 210.108C235.92 203.993 240.407 197.941 246.021 196.606L242.661 179.577C242.118 179.66 241.576 179.702 241.033 179.702C235.816 179.702 230.62 175.946 229.535 170.416C228.324 164.301 232.602 158.291 238.216 156.955L234.856 139.926C234.314 140.01 233.771 140.052 233.228 140.052C228.011 140.052 222.815 136.295 221.73 130.765C220.519 124.651 224.797 118.64 230.411 117.305L227.051 100.276C226.509 100.359 225.945 100.401 225.403 100.401C220.165 100.401 214.801 96.6865 213.716 91.1563C213.612 90.9476 213.32 90.3633 213.34 90.3633Z" fill="#424242"/>
<mask id="mask0_149_425" style="mask-type:luminance" maskUnits="userSpaceOnUse" x="0" y="90" width="246" height="161">
<path d="M221.687 130.869C220.477 124.755 224.755 118.745 230.369 117.409L227.009 100.38C221.312 101.278 214.863 97.3752 213.674 91.2606C213.611 90.9476 213.298 90.3633 213.319 90.3633L11.2891 130.118C11.31 130.118 11.4561 130.723 11.5187 131.057C12.7499 137.318 8.47184 143.432 2.21123 144.664C1.71038 144.768 0.520869 144.956 0.5 144.893L3.88073 162.089C3.85986 162.026 5.04938 161.755 5.55022 161.651C11.8108 160.419 17.9671 164.468 19.1984 170.729C20.4296 176.989 16.1933 183.083 9.95352 184.314C9.45267 184.419 8.32576 184.585 8.30489 184.523L11.6856 201.719C11.6648 201.656 12.8543 201.385 13.3551 201.28C19.6157 200.049 25.772 204.098 27.0032 210.358C28.2345 216.619 23.9982 222.713 17.7584 223.944C17.2576 224.048 16.1307 224.215 16.1098 224.152L19.4905 241.348C19.4696 241.286 20.6592 241.014 21.16 240.91C27.4206 239.679 33.5978 243.727 34.829 249.988C34.8916 250.301 35.1003 250.906 35.0794 250.906L237.13 211.13C237.109 211.13 237.172 210.484 237.109 210.17C235.899 204.056 240.386 198.004 245.999 196.668L242.64 179.64C236.942 180.537 230.703 176.593 229.513 170.478C228.303 164.364 232.581 158.353 238.194 157.018L234.835 139.989C229.117 140.907 222.898 136.984 221.687 130.869Z" fill="white"/>
</mask>
<g mask="url(#mask0_149_425)">
<path opacity="0.8" d="M227.969 77.2773L-6.9082 123.522C-6.88733 123.522 10.0163 222.837 9.99544 222.857L245.979 138.757C245.958 138.757 227.948 77.2982 227.969 77.2773Z" fill="url(#paint0_linear_149_425)"/>
</g>
<path d="M214.801 38.2732C212.485 32.4926 215.574 25.7937 220.853 23.4564L214.426 7.34578C208.979 9.28657 201.946 6.63625 199.63 0.834748C199.505 0.542586 199.108 0.0208687 199.129 0L7.8675 76.3377C7.88837 76.3377 8.13879 76.9011 8.264 77.2142C10.6222 83.1409 7.55447 89.9232 1.62776 92.3022C1.14778 92.4901 0.0208687 92.9074 0 92.8448L6.49016 109.122C6.4693 109.06 7.57534 108.58 8.03445 108.392C13.9612 106.034 20.7644 108.872 23.1225 114.799C25.4807 120.725 22.4547 127.487 16.528 129.866C16.048 130.054 14.9629 130.45 14.942 130.388L21.4322 146.665C21.4113 146.603 22.5173 146.123 22.9764 145.935C28.9031 143.577 35.7063 146.415 38.0645 152.341C40.4227 158.268 37.3967 165.03 31.47 167.409C30.99 167.597 29.9048 167.993 29.884 167.93L36.3741 184.208C36.3533 184.145 37.4593 183.665 37.9184 183.478C43.8451 181.119 50.6483 183.958 53.0274 189.884C53.1526 190.176 53.4656 190.74 53.4447 190.761L244.706 114.423C244.685 114.423 244.623 113.776 244.498 113.484C242.181 107.703 245.478 100.921 250.758 98.5837L244.331 82.4731C238.884 84.4139 232.039 81.6801 229.723 75.8995C227.406 70.1188 230.495 63.42 235.775 61.0827L229.347 44.972C223.963 46.7876 217.118 44.0747 214.801 38.2732Z" fill="#4DD0E1"/>
<path d="M26.2598 88.957L192.702 22.52L224.605 102.446L58.1631 168.883L26.2598 88.957Z" fill="#00BCD4"/>
<path d="M48.3867 70.2227L54.9374 67.6079L94.0972 165.713L87.5465 168.328L48.3867 70.2227Z" fill="#4DD0E1"/>
<path d="M157.086 25.6523L163.637 23.0376L202.796 121.143L196.246 123.758L157.086 25.6523Z" fill="#4DD0E1"/>
<path d="M154.887 77.0283L91.8218 102.196C88.2115 103.636 84.1212 101.883 82.6813 98.2726C81.2413 94.6623 82.9943 90.5721 86.6046 89.1321L149.649 63.9645C153.259 62.5245 157.349 64.2775 158.789 67.8878C160.25 71.4981 158.476 75.5883 154.887 77.0283Z" fill="#00838F"/>
<path d="M151.402 110.02L114.944 124.565C111.459 125.963 107.494 124.252 106.117 120.767C104.719 117.282 106.43 113.317 109.915 111.94L146.373 97.3942C149.858 95.996 153.823 97.7072 155.2 101.192C156.598 104.677 154.887 108.622 151.402 110.02Z" fill="#00838F"/>
<path opacity="0.2" d="M196.583 7.76316C199.901 11.6865 204.972 14.149 210.419 14.2325L213.195 21.2026C208.165 26.1067 206.245 33.8073 208.958 40.6105C211.567 47.1633 218.14 51.6083 225.382 51.7335L228.178 58.7245C223.149 63.6287 221.229 71.3292 223.942 78.1324C226.551 84.6852 233.124 89.1302 240.366 89.2554L243.162 96.2464C239.385 99.9402 237.298 105.241 237.59 110.479L56.1994 182.893C52.8813 178.803 47.8311 176.34 42.3217 176.34C41.5913 176.34 40.8609 176.382 40.1305 176.466L37.9184 170.915C40.4018 169.078 42.3843 166.595 43.6782 163.694C45.619 159.291 45.7233 154.408 43.9495 149.983C41.2365 143.201 34.7255 138.819 27.3589 138.819C26.6285 138.819 25.8981 138.86 25.1676 138.944L22.9556 133.393C25.4389 131.556 27.4215 129.073 28.7153 126.172C30.6561 121.769 30.7605 116.886 28.9866 112.461C26.2737 105.679 19.7627 101.297 12.396 101.297C11.6656 101.297 10.9352 101.338 10.2048 101.422L7.95097 95.8917C10.4552 94.0552 12.4586 91.5718 13.7733 88.6294C14.9837 85.8956 15.4846 82.9948 15.2759 80.1149L196.583 7.76316ZM199.129 0L7.8675 76.3377C7.88837 76.3377 8.13879 76.922 8.264 77.2142C10.6222 83.1409 7.55447 89.9232 1.62776 92.3022C1.18952 92.4692 0.16695 92.8448 0.0208687 92.8448H0L6.49016 109.122C6.4693 109.06 7.57534 108.58 8.03445 108.392C9.45352 107.829 10.9143 107.557 12.3543 107.557C16.9454 107.557 21.3278 110.291 23.1434 114.799C25.5015 120.725 22.4756 127.487 16.5489 129.866C16.1106 130.033 15.1507 130.388 14.9837 130.388H14.9629L21.453 146.665C21.4322 146.603 22.5382 146.123 22.9973 145.935C24.4164 145.371 25.8772 145.1 27.3171 145.1C31.9082 145.1 36.2907 147.834 38.1062 152.341C40.4644 158.268 37.4384 165.03 31.5117 167.409C31.0735 167.576 30.1135 167.93 29.9466 167.93H29.9257L36.4159 184.208C36.395 184.145 37.501 183.665 37.9602 183.478C39.3792 182.914 40.84 182.643 42.28 182.643C46.892 182.643 51.2744 185.377 53.0691 189.884C53.1943 190.176 53.5073 190.74 53.4865 190.761L244.748 114.423C244.727 114.423 244.665 113.776 244.539 113.484C242.223 107.703 245.52 100.921 250.8 98.5837L244.372 82.4731C243.204 82.8905 241.952 83.0992 240.72 83.0992C236.192 83.0992 231.58 80.4488 229.785 75.8995C227.469 70.1188 230.557 63.42 235.837 61.0827L229.41 44.972C228.241 45.3894 226.989 45.5981 225.758 45.5981C221.229 45.5981 216.617 42.9478 214.822 38.3984C212.506 32.6178 215.595 25.9189 220.874 23.5816L214.447 7.47099C213.257 7.88837 211.984 8.09705 210.711 8.09705C206.141 8.09705 201.446 5.48847 199.651 0.95996C199.505 0.542586 199.087 0.0208687 199.129 0Z" fill="#424242"/>
<defs>
<linearGradient id="paint0_linear_149_425" x1="114.66" y1="103.966" x2="135.811" y2="225.883" gradientUnits="userSpaceOnUse">
<stop stop-color="#424242"/>
<stop offset="0.7316" stop-color="#757575" stop-opacity="0"/>
</linearGradient>
</defs>
</svg>
