<svg width="36" height="40" viewBox="0 0 36 40" fill="none" xmlns="http://www.w3.org/2000/svg">
<path d="M30.0767 4.26679H32.3055V5.38345H30.0767V4.26679Z" fill="#66757F"/>
<path d="M0.133301 13.2001V35.5334C0.133301 38.0001 2.13324 40 4.59995 40H31.3999C33.8666 40 35.8665 38.0001 35.8665 35.5334V13.2001H0.133301Z" fill="#CCD6DD"/>
<path d="M31.3999 4.26679H4.59995C2.13324 4.26679 0.133301 6.26673 0.133301 8.73344V14.3168H35.8665V8.73344C35.8665 6.26673 33.8666 4.26679 31.3999 4.26679Z" fill="#DD2E44"/>
<path d="M7.76669 9.54971C6.98279 9.54971 6.34741 8.80602 6.34741 7.887C6.34741 6.9691 6.98279 6.22429 7.76669 6.22429C8.54947 6.22429 9.18485 6.9691 9.18485 7.887C9.18485 8.8049 8.54947 9.54971 7.76669 9.54971ZM14.4667 9.54971C13.6828 9.54971 13.0474 8.80602 13.0474 7.887C13.0474 6.9691 13.6828 6.22429 14.4667 6.22429C15.2495 6.22429 15.8848 6.9691 15.8848 7.887C15.8848 8.8049 15.2495 9.54971 14.4667 9.54971ZM21.1667 9.54971C20.3828 9.54971 19.7474 8.80602 19.7474 7.887C19.7474 6.9691 20.3828 6.22429 21.1667 6.22429C21.9494 6.22429 22.5859 6.9691 22.5859 7.887C22.5848 8.8049 21.9494 9.54971 21.1667 9.54971ZM27.8666 9.54971C27.0827 9.54971 26.4474 8.80602 26.4474 7.887C26.4474 6.9691 27.0827 6.22429 27.8666 6.22429C28.6494 6.22429 29.2859 6.9691 29.2859 7.887C29.2848 8.8049 28.6494 9.54971 27.8666 9.54971Z" fill="#292F33"/>
<path d="M28.4016 0C26.9756 0 25.7406 0.895564 25.0583 2.19983C24.3816 0.923481 23.141 0 21.7016 0C20.2756 0 19.0406 0.895564 18.3583 2.19983C17.6816 0.923481 16.441 0 15.0016 0C13.5756 0 12.3406 0.895564 11.6583 2.19983C10.9816 0.923481 9.74101 0 8.30163 0C6.142 0 4.39331 2.03121 4.39331 4.47224C4.39331 6.54253 5.56022 8.23651 7.26202 8.85626C8.10957 9.16334 8.62882 8.35711 8.55623 7.71056C8.49482 7.17456 8.1386 6.82505 7.74218 6.5738C7.2006 6.23098 6.62552 5.4482 6.62552 4.47782C6.62552 3.24502 7.3748 2.13841 8.30052 2.13841C9.22623 2.13841 9.97551 3.14899 9.97551 4.26565H11.11C11.1067 4.33489 11.0922 4.40077 11.0922 4.47112C11.0922 6.54141 12.2591 8.23539 13.9609 8.85514C14.8084 9.16222 15.3277 8.35599 15.2551 7.70944C15.1937 7.17456 14.8375 6.82505 14.441 6.5738C13.8995 6.23098 13.3244 5.4482 13.3244 4.47782C13.3244 3.24502 14.0737 2.13841 14.9994 2.13841C15.9251 2.13841 16.6766 3.15011 16.6766 4.26677H17.8111C17.8078 4.336 17.7933 4.40189 17.7933 4.47224C17.7933 6.54253 18.9602 8.23651 20.662 8.85626C21.5095 9.16334 22.0288 8.35711 21.9562 7.71056C21.8948 7.17568 21.5386 6.82616 21.1421 6.57491C20.6006 6.2321 20.0255 5.44932 20.0255 4.47894C20.0255 3.24614 20.7748 2.13953 21.7005 2.13953C22.6262 2.13953 23.3766 3.15011 23.3766 4.26677H24.5111C24.5078 4.336 24.4933 4.40189 24.4933 4.47224C24.4933 6.54253 25.6602 8.23651 27.362 8.85626C28.2095 9.16334 28.7288 8.35711 28.6562 7.71056C28.5948 7.17568 28.2385 6.82616 27.8421 6.57491C27.3005 6.2321 26.7255 5.44932 26.7255 4.47894C26.7255 3.24614 27.4747 2.13953 28.4005 2.13953C29.3262 2.13953 30.0766 3.15011 30.0766 4.26677H32.3054C32.282 2.03344 30.5456 0 28.4016 0Z" fill="#66757F"/>
<path d="M10.1832 16.5501H14.6498V21.0167H10.1832V16.5501ZM15.7665 16.5501H20.2331V21.0167H15.7665V16.5501ZM21.3498 16.5501H25.8165V21.0167H21.3498V16.5501ZM26.9331 16.5501H31.3998V21.0167H26.9331V16.5501ZM4.59985 22.1334H9.06651V26.6001H4.59985V22.1334ZM10.1832 22.1334H14.6498V26.6001H10.1832V22.1334ZM15.7665 22.1334H20.2331V26.6001H15.7665V22.1334ZM21.3498 22.1334H25.8165V26.6001H21.3498V22.1334ZM26.9331 22.1334H31.3998V26.6001H26.9331V22.1334ZM4.59985 27.7167H9.06651V32.1834H4.59985V27.7167ZM10.1832 27.7167H14.6498V32.1834H10.1832V27.7167ZM15.7665 27.7167H20.2331V32.1834H15.7665V27.7167ZM21.3498 27.7167H25.8165V32.1834H21.3498V27.7167ZM26.9331 27.7167H31.3998V32.1834H26.9331V27.7167ZM4.59985 33.3H9.06651V37.7667H4.59985V33.3ZM10.1832 33.3H14.6498V37.7667H10.1832V33.3ZM15.7665 33.3H20.2331V37.7667H15.7665V33.3Z" fill="white"/>
</svg>
