<svg width="18" height="16" viewBox="0 0 18 16" fill="none" xmlns="http://www.w3.org/2000/svg">
<path fill-rule="evenodd" clip-rule="evenodd" d="M17.6397 15.5802C17.1592 16.0606 16.3803 16.0606 15.8999 15.5802L13.7809 13.4611C13.3004 12.9807 13.3004 12.2018 13.7809 11.7213L15.8999 9.60232C16.3803 9.12189 17.1592 9.12189 17.6397 9.60232C18.1201 10.0827 18.1201 10.8617 17.6397 11.3421L16.3905 12.5912L17.6397 13.8404C18.1201 14.3208 18.1201 15.0997 17.6397 15.5802ZM1.23022 11.361L11.8254 11.361C12.5048 11.361 13.0556 11.9118 13.0556 12.5912C13.0556 13.2707 12.5048 13.8215 11.8254 13.8215L1.23022 13.8215C0.550785 13.8215 0 13.2707 0 12.5912C0 11.9118 0.550785 11.361 1.23022 11.361ZM18 6.94049C18 7.61992 17.4492 8.17071 16.7698 8.17071L1.23022 8.17071C0.550785 8.17071 0 7.61992 0 6.94049C0 6.26106 0.550785 5.71027 1.23022 5.71027L16.7698 5.71027C17.4492 5.71027 18 6.26106 18 6.94049ZM16.7698 0.0595217C17.4492 0.0595217 18 0.610308 18 1.28974C18 1.96917 17.4492 2.51995 16.7698 2.51995L1.23022 2.51995C0.550785 2.51995 0 1.96917 0 1.28974C0 0.610308 0.550785 0.0595217 1.23022 0.0595217L16.7698 0.0595217Z" fill="#326213"/>
</svg>
