<svg width="10" height="34" viewBox="0 0 10 34" fill="none" xmlns="http://www.w3.org/2000/svg">
<g id="&#240;&#159;&#166;&#134; icon &#34;menu vertical&#34;">
<g id="Group">
<path id="Vector" d="M5.23798 21.7619C7.86791 21.7619 9.99989 19.6299 9.99989 17C9.99989 14.3701 7.86791 12.2381 5.23798 12.2381C2.60805 12.2381 0.476074 14.3701 0.476074 17C0.476074 19.6299 2.60805 21.7619 5.23798 21.7619Z" fill="#A4C365"/>
<path id="Vector_2" d="M5.23798 10.2381C7.86791 10.2381 9.99989 8.10613 9.99989 5.4762C9.99989 2.84627 7.86791 0.714294 5.23798 0.714294C2.60805 0.714294 0.476074 2.84627 0.476074 5.4762C0.476074 8.10613 2.60805 10.2381 5.23798 10.2381Z" fill="#2D5B0F"/>
<path id="Vector_3" d="M9.49989 28.5238C9.49989 30.8776 7.59177 32.7857 5.23798 32.7857C2.8842 32.7857 0.976074 30.8776 0.976074 28.5238C0.976074 26.17 2.8842 24.2619 5.23798 24.2619C7.59177 24.2619 9.49989 26.17 9.49989 28.5238Z" fill="#F8FFF4" stroke="#A4C365"/>
</g>
</g>
</svg>
