<svg width="48" height="48" viewBox="0 0 48 48" fill="none" xmlns="http://www.w3.org/2000/svg">
<path d="M24 48C37.2548 48 48 37.2548 48 24C48 10.7452 37.2548 0 24 0C10.7452 0 0 10.7452 0 24C0 37.2548 10.7452 48 24 48Z" fill="#77B3D4"/>
<path opacity="0.2" d="M24 9C14.925 9 7.5 16.425 7.5 25.5C7.5 34.575 14.925 42 24 42C26.625 42 29.25 41.4 31.575 40.2C32.325 39.825 32.625 38.925 32.25 38.175C31.875 37.425 30.975 37.125 30.225 37.5C28.275 38.475 26.25 39 24.075 39C16.65 39 10.575 32.925 10.575 25.5C10.575 18.075 16.65 12 24.075 12C31.5 12 37.575 18.075 37.575 25.5C37.575 27.75 36.975 30 35.925 31.95C34.575 30.9 32.625 28.8 32.625 25.575V18.975C32.625 18.15 31.95 17.475 31.125 17.475C30.3 17.475 29.625 18.15 29.625 18.975V19.05C28.125 17.775 26.175 16.95 24.075 16.95C19.35 16.95 15.525 20.775 15.525 25.5C15.525 30.225 19.275 34.05 24 34.05C26.775 34.05 29.25 32.7 30.825 30.6C32.55 33.75 35.475 35.325 35.625 35.4C36.3 35.775 37.125 35.55 37.575 34.95C39.525 32.175 40.5 28.95 40.5 25.5C40.5 16.425 33.075 9 24 9ZM24 31.05C20.925 31.05 18.45 28.575 18.45 25.5C18.45 22.425 20.925 19.95 24 19.95C27.075 19.95 29.55 22.425 29.55 25.5C29.55 28.575 27.075 31.05 24 31.05Z" fill="#231F20"/>
<path d="M24 40.5C14.925 40.5 7.5 33.075 7.5 24C7.5 14.925 14.925 7.5 24 7.5C33.075 7.5 40.5 14.925 40.5 24C40.5 27.375 39.45 30.675 37.575 33.45C37.125 34.05 36.3 34.275 35.625 33.9C35.4 33.75 29.55 30.75 29.55 24.075V17.475C29.55 16.65 30.225 15.975 31.05 15.975C31.875 15.975 32.55 16.65 32.55 17.475V24.075C32.55 27.3 34.5 29.4 35.85 30.45C36.9 28.5 37.5 26.25 37.5 24C37.5 16.575 31.425 10.5 24 10.5C16.575 10.5 10.5 16.575 10.5 24C10.5 31.425 16.575 37.5 24 37.5C26.175 37.5 28.275 36.975 30.15 36C30.9 35.625 31.8 35.925 32.175 36.675C32.55 37.425 32.25 38.325 31.5 38.7C29.25 39.9 26.625 40.5 24 40.5Z" fill="white"/>
<path d="M24 18.4502C27.075 18.4502 29.55 20.9252 29.55 24.0002C29.55 27.0752 27.075 29.5502 24 29.5502C20.925 29.5502 18.45 27.0752 18.45 24.0002C18.45 20.9252 20.925 18.4502 24 18.4502ZM24 15.4502C19.275 15.4502 15.45 19.2752 15.45 24.0002C15.45 28.7252 19.275 32.5502 24 32.5502C28.725 32.5502 32.55 28.7252 32.55 24.0002C32.55 19.2752 28.725 15.4502 24 15.4502Z" fill="white"/>
</svg>
