<svg width="126" height="126" viewBox="0 0 126 126" fill="none" xmlns="http://www.w3.org/2000/svg">
<g id="&#240;&#159;&#166;&#134; emoji &#34;great britain&#34;">
<path id="Vector" d="M41.8005 121.847V93.005L20.2735 108.889C26.3345 114.532 33.6495 118.921 41.8005 121.847ZM83.6005 121.847C91.7515 118.921 99.0665 114.532 105.127 108.889L83.6005 92.796V121.847ZM3.55347 83.6C4.18047 85.69 5.01647 87.571 6.06147 89.661L14.2125 83.6H3.55347ZM111.188 83.6L119.339 89.661C120.175 87.78 121.011 85.69 121.847 83.6H111.188Z" fill="#2A5F9E"/>
<path id="Vector_2" d="M44.9351 75.24H1.25415C1.88115 78.166 2.71715 80.883 3.55315 83.6H14.2122L6.06115 89.661C7.73315 93.214 9.61415 96.349 11.9131 99.484L33.4401 83.6H41.8001V87.78L17.3472 105.754L20.2731 108.68L41.8001 93.005V121.847C44.5171 122.892 47.2341 123.519 50.1601 124.146V75.24H44.9351ZM124.146 75.24H75.2402V124.146C78.1662 123.519 80.8831 122.683 83.6002 121.847V93.005L105.127 108.68C108.053 105.963 110.561 103.037 113.069 99.902L90.7062 83.6H104.918L117.667 93.005C118.294 91.96 118.921 90.706 119.339 89.661L111.188 83.6H121.847C122.683 80.883 123.519 78.166 124.146 75.24Z" fill="white"/>
<path id="Vector_3" d="M11.9133 99.484C13.5853 101.783 15.2573 103.873 17.1383 105.963L41.8003 87.989V83.809H33.4403L11.9133 99.484ZM90.9153 83.6L113.278 99.902C114.114 98.857 114.741 97.812 115.577 96.767C115.786 96.558 115.786 96.349 115.995 96.349C116.622 95.304 117.458 94.05 118.085 93.005L104.918 83.6H90.9153Z" fill="#ED4C5C"/>
<path id="Vector_4" d="M83.6005 3.55298V32.395L105.127 16.511C99.0665 10.868 91.7515 6.47898 83.6005 3.55298ZM41.8005 3.55298C33.6495 6.47898 26.3345 10.868 20.2735 16.511L41.8005 32.604V3.55298ZM121.847 41.8C121.22 39.71 120.384 37.829 119.339 35.739L111.188 41.8H121.847ZM14.2125 41.8L6.06147 35.739C5.22547 37.829 4.38947 39.71 3.55347 41.8H14.2125Z" fill="#2A5F9E"/>
<path id="Vector_5" d="M80.4651 50.16H123.937C123.31 47.234 122.474 44.517 121.638 41.8H110.979L119.13 35.739C117.458 32.186 115.577 29.051 113.278 25.916L91.9602 41.8H83.6002V37.62L108.053 19.646L105.127 16.72L83.6002 32.395V3.55303C80.8831 2.50803 78.1662 1.88103 75.2402 1.25403V50.16H80.4651ZM1.25415 50.16H50.1601V1.25403C47.2341 1.88103 44.5171 2.71703 41.8001 3.55303V32.395L20.2731 16.72C17.3472 19.437 14.8392 22.363 12.3312 25.498L34.6941 41.8H20.4822L7.73315 32.395C7.10615 33.44 6.47915 34.694 6.06115 35.739L14.2122 41.8H3.55315C2.71715 44.517 1.88115 47.234 1.25415 50.16Z" fill="white"/>
<g id="Group">
<path id="Vector_6" d="M113.487 25.916C111.815 23.617 110.143 21.527 108.262 19.437L83.6002 37.411V41.591H91.9602L113.487 25.916ZM34.4852 41.8L12.3312 25.498C11.4952 26.543 10.8682 27.588 10.0322 28.633C9.82317 28.842 9.82317 29.051 9.61417 29.051C8.98717 30.096 8.15117 31.35 7.52417 32.395L20.2732 41.8H34.4852Z" fill="#ED4C5C"/>
<path id="Vector_7" d="M124.146 50.16H75.24V1.254C71.269 0.418 67.089 0 62.7 0C58.311 0 54.131 0.418 50.16 1.254V50.16H1.254C0.418 54.131 0 58.311 0 62.7C0 67.089 0.418 71.269 1.254 75.24H50.16V124.146C54.131 124.982 58.311 125.4 62.7 125.4C67.089 125.4 71.269 124.982 75.24 124.146V75.24H124.146C124.982 71.269 125.4 67.089 125.4 62.7C125.4 58.311 124.982 54.131 124.146 50.16Z" fill="#ED4C5C"/>
</g>
</g>
</svg>
