<svg width="24" height="18" viewBox="0 0 24 18" fill="none" xmlns="http://www.w3.org/2000/svg">
<g id="&#240;&#159;&#166;&#134; icon &#34;handshake&#34;">
<path id="Vector" d="M19.5293 0.736115C18.7211 1.50977 17.7491 2.11819 16.672 2.50577C15.5483 2.70407 12.4387 1.2619 10.9064 2.73411C10.651 2.98949 10.3355 3.24488 10.005 3.50026C9.28393 3.18479 8.17226 2.70407 7.36104 2.23837C6.54983 1.77267 4.50676 0.736115 4.50676 0.736115L0 5.994C0 5.994 1.11167 7.49625 1.8027 8.48774C2.25338 9.14873 2.80921 10.1552 3.16975 10.8313L2.65899 11.4322C2.57186 11.6049 2.51928 11.8077 2.51928 12.0225C2.51928 12.3756 2.65749 12.6971 2.88433 12.9344C3.09164 13.0891 3.35153 13.1823 3.63545 13.1823C3.91938 13.1823 4.17927 13.0891 4.38958 12.9314C4.24837 13.0952 4.16575 13.3055 4.16575 13.5353C4.16575 13.8252 4.29795 14.0836 4.50526 14.2549C4.72158 14.3826 4.98147 14.4577 5.25789 14.4577C5.5343 14.4577 5.79419 14.3826 6.01653 14.2519C5.84827 14.4607 5.75063 14.7221 5.75063 15.0075C5.75063 15.2929 5.84827 15.5543 6.01202 15.7617C6.16074 15.8142 6.3335 15.8458 6.51377 15.8458C6.82474 15.8458 7.11317 15.7511 7.35203 15.5904C7.28743 15.7331 7.25438 15.8954 7.25438 16.0666C7.25438 16.4181 7.3986 16.7351 7.63295 16.9605C7.82824 17.0491 8.05809 17.1002 8.29845 17.1002C8.63796 17.1002 8.95493 16.998 9.21632 16.8222L9.99149 16.1207C10.7006 16.8268 11.6785 17.2639 12.7586 17.2639C12.7887 17.2639 12.8202 17.2639 12.8503 17.2624C13.5924 17.1993 14.2143 16.7276 14.4937 16.0741C14.7131 16.1582 14.9624 16.2153 15.2268 16.2153C15.5814 16.2153 15.9104 16.1132 16.1883 15.9374C17.0671 15.356 16.8568 14.9054 16.8568 14.9054C17.0446 14.988 17.2624 15.0361 17.4922 15.0361C17.9745 15.0361 18.4086 14.8227 18.7031 14.4862C18.9675 14.2143 19.1282 13.8448 19.1282 13.4392C19.1282 13.1537 19.0486 12.8878 18.9104 12.661C18.9224 12.6685 18.9329 12.6685 18.9419 12.6685C19.5744 12.6685 20.1242 12.32 20.4111 11.8062C20.5133 11.5493 20.5689 11.2609 20.5689 10.9605C20.5689 10.4467 20.4036 9.97047 20.1242 9.58288L20.1287 9.5904C21.3605 9.35004 21.3155 8.73411 21.9164 7.83276C22.4932 7.09065 23.1963 6.47773 24 6.01804L19.5293 0.736115ZM19.4542 11.342C18.7932 12.003 18.2824 11.7176 17.1557 10.8613C16.029 10.005 13.7907 8.39761 13.7907 8.39761C13.8823 8.85579 14.0941 9.25389 14.3931 9.57087C14.8723 10.1102 16.2994 11.342 16.9755 11.973C17.3961 12.3636 18.4777 13.1447 17.8468 13.7456C17.2158 14.3465 16.7201 13.7456 15.6835 12.9044C14.647 12.0631 12.3335 9.99 12.3335 9.99C12.332 10.017 12.3305 10.0471 12.3305 10.0786C12.3305 10.4662 12.4867 10.8162 12.7391 11.0716C12.9945 11.3721 14.4216 12.7541 15.0225 13.3851C15.6234 14.016 16.1492 14.3916 15.6385 14.8873C15.1277 15.3831 14.0911 14.6019 13.5203 14.016C12.634 13.1598 10.8763 11.5674 10.8763 11.5674C10.8748 11.5914 10.8748 11.6184 10.8748 11.647C10.8748 12.0736 11.022 12.4642 11.2699 12.7737C11.7026 13.3415 12.5438 14.0776 13.0546 14.6485C13.5653 15.2193 13.8658 15.7001 13.0546 16.1507C12.2434 16.6014 11.0416 15.4897 10.5158 14.9489V14.9459C10.5158 14.7912 10.4587 14.65 10.3655 14.5418C10.1267 14.321 9.80371 14.1843 9.45068 14.1843C9.29444 14.1843 9.14422 14.2113 9.00451 14.2594C9.1968 14.0881 9.31097 13.8478 9.31097 13.5804C9.31097 13.313 9.1968 13.0726 9.01352 12.9044C8.82424 12.7617 8.58688 12.676 8.33 12.676C8.07311 12.676 7.83425 12.7617 7.64347 12.9059C7.81923 12.7361 7.92739 12.5033 7.92739 12.2434C7.92739 11.9234 7.76365 11.6425 7.51577 11.4787C7.28593 11.333 7.01102 11.2489 6.71658 11.2489C6.35003 11.2489 6.01352 11.3811 5.75213 11.5989C5.89484 11.4277 5.97897 11.2083 5.97897 10.968C5.97897 10.675 5.85128 10.4121 5.64997 10.2304C5.38257 9.98248 5.02354 9.83076 4.62995 9.83076C4.35203 9.83076 4.09214 9.90587 3.8683 10.0381L2.8693 8.35104C2.17827 7.25439 1.36705 6.11268 1.36705 6.11268L4.79219 1.95144C4.79219 1.95144 6.00901 2.70256 7.01552 3.27342C7.51127 3.55885 8.36755 3.93441 9.01352 4.23486C7.99199 5.00101 7.1357 5.73712 7.39109 6.24788C7.83726 6.56936 8.39459 6.76316 8.997 6.76316C9.56184 6.76316 10.0876 6.5934 10.5263 6.30196C11.0866 5.9249 11.7882 5.69656 12.5438 5.69656C13.0651 5.69656 13.5608 5.80472 14.01 6.00151C14.8423 6.56336 16.3746 7.94543 17.7717 8.81674C19.5293 10.0937 19.8748 10.9199 19.4542 11.3405V11.342Z" fill="#326213"/>
</g>
</svg>
