<svg width="48" height="48" viewBox="0 0 48 48" fill="none" xmlns="http://www.w3.org/2000/svg">
<path d="M40.8 0H7.2C3.22355 0 0 3.22355 0 7.2V40.8C0 44.7765 3.22355 48 7.2 48H40.8C44.7765 48 48 44.7765 48 40.8V7.2C48 3.22355 44.7765 0 40.8 0Z" fill="black"/>
<path d="M40.8 0H7.2C3.22355 0 0 3.22355 0 7.2V40.8C0 44.7765 3.22355 48 7.2 48H40.8C44.7765 48 48 44.7765 48 40.8V7.2C48 3.22355 44.7765 0 40.8 0Z" fill="url(#paint0_radial_149_583)"/>
<path d="M40.8 0H7.2C3.22355 0 0 3.22355 0 7.2V40.8C0 44.7765 3.22355 48 7.2 48H40.8C44.7765 48 48 44.7765 48 40.8V7.2C48 3.22355 44.7765 0 40.8 0Z" fill="url(#paint1_linear_149_583)"/>
<path d="M30.8438 9.5625H17.1562C12.9623 9.5625 9.5625 12.9623 9.5625 17.1562V30.8438C9.5625 35.0377 12.9623 38.4375 17.1562 38.4375H30.8438C35.0377 38.4375 38.4375 35.0377 38.4375 30.8438V17.1562C38.4375 12.9623 35.0377 9.5625 30.8438 9.5625Z" stroke="white" stroke-width="3.5"/>
<path d="M24 30.75C27.7279 30.75 30.75 27.7279 30.75 24C30.75 20.2721 27.7279 17.25 24 17.25C20.2721 17.25 17.25 20.2721 17.25 24C17.25 27.7279 20.2721 30.75 24 30.75Z" stroke="white" stroke-width="3.5"/>
<path d="M32.5312 16.0312C32.8419 16.0312 33.0938 15.7794 33.0938 15.4688C33.0938 15.1581 32.8419 14.9062 32.5312 14.9062C32.2206 14.9062 31.9688 15.1581 31.9688 15.4688C31.9688 15.7794 32.2206 16.0312 32.5312 16.0312Z" stroke="white" stroke-width="3.5"/>
<defs>
<radialGradient id="paint0_radial_149_583" cx="0" cy="0" r="1" gradientUnits="userSpaceOnUse" gradientTransform="translate(19.2 48) scale(48)">
<stop offset="0.1" stop-color="#FFDD55"/>
<stop offset="0.5" stop-color="#FF543E"/>
<stop offset="1" stop-color="#C837AB"/>
</radialGradient>
<linearGradient id="paint1_linear_149_583" x1="0" y1="0" x2="9.6" y2="48" gradientUnits="userSpaceOnUse">
<stop offset="0.1" stop-color="#3771C8"/>
<stop offset="0.5" stop-color="#6600FF" stop-opacity="0"/>
</linearGradient>
</defs>
</svg>
