<svg width="69" height="45" viewBox="0 0 69 45" fill="none" xmlns="http://www.w3.org/2000/svg">
<g id="&#240;&#159;&#166;&#134; illustration &#34;Map&#34;">
<path id="Vector" d="M0.5 27.0149L30.5106 44.892L53.1547 32.4471L68.5 23.6653L39.0148 6.642" fill="#C9C9C9"/>
<path id="Vector_2" d="M0.5 27.0148L30.5847 44.1759L51.5593 32.3115L67.661 17.4809L38.6356 0.108063L24.0169 13.4555L0.5 27.0148Z" fill="#FFF3D9"/>
<path id="Vector_3" d="M3.24576 26.6187L30.8708 42.375L50.1314 31.481L64.9174 17.8623L38.2627 1.90894L24.8411 14.1674L3.24576 26.6187Z" fill="#68E1FD"/>
<path id="Vector_4" opacity="0.1" d="M38.2627 1.90894L24.8411 14.1674L50.1313 31.481L64.9174 17.8623L38.2627 1.90894Z" fill="black"/>
<path id="Vector_5" d="M60.0382 14.9428L55.3899 18.7902L43.3835 15.8474L22.9492 29.0614L21.3772 36.9597L18.3136 35.214L20.5191 27.483L42.5933 12.4131L54.4428 15.6335L56.9238 13.0784" fill="#F9EFD7"/>
<g id="Group">
<path id="Vector_6" d="M58.928 14.2776L58.5106 14.6039" stroke="#F7931E" stroke-width="1.17211" stroke-miterlimit="10" stroke-linecap="round"/>
<path id="Vector_7" d="M57.3348 15.5233L55.909 16.6378" stroke="#F7931E" stroke-width="1.17211" stroke-miterlimit="10" stroke-linecap="round" stroke-dasharray="1.97 2.75"/>
<path id="Vector_8" d="M55.32 17.0975L54.9047 17.4238L54.3962 17.2713" stroke="#F7931E" stroke-width="1.17211" stroke-miterlimit="10" stroke-linecap="round"/>
<path id="Vector_9" d="M53.0297 16.8602L44.3348 14.2479" stroke="#F7931E" stroke-width="1.17211" stroke-miterlimit="10" stroke-linecap="round" stroke-dasharray="1.88 2.63"/>
<path id="Vector_10" d="M43.6505 14.0424L43.1441 13.8899L42.7098 14.1949" stroke="#F7931E" stroke-width="1.17211" stroke-miterlimit="10" stroke-linecap="round"/>
<path id="Vector_11" d="M41.4259 15.0932L33.2648 20.8051" stroke="#F7931E" stroke-width="1.17211" stroke-miterlimit="10" stroke-linecap="round" stroke-dasharray="2.06 2.89"/>
<path id="Vector_12" d="M32.6229 21.2543L32.1886 21.5572" stroke="#F7931E" stroke-width="1.17211" stroke-miterlimit="10" stroke-linecap="round"/>
<path id="Vector_13" d="M31.8221 23.3052C33.7411 23.3052 35.2967 22.6042 35.2967 21.7395C35.2967 20.8748 33.7411 20.1738 31.8221 20.1738C29.9032 20.1738 28.3475 20.8748 28.3475 21.7395C28.3475 22.6042 29.9032 23.3052 31.8221 23.3052Z" stroke="#39B54A" stroke-width="0.781406" stroke-miterlimit="10"/>
</g>
<path id="Vector_14" d="M37.8898 9.64623C37.8898 9.58267 37.8856 9.51982 37.8771 9.45767C37.7098 7.40471 36.3411 5.61869 34.4979 4.75217C33.747 4.40328 32.9276 4.22666 32.0997 4.23522C31.2718 4.24378 30.4562 4.43731 29.7127 4.80166C28.9692 5.166 28.3165 5.69193 27.8025 6.34099C27.2884 6.99005 26.9259 7.74582 26.7415 8.55301C26.3178 10.5 27.0064 12.4725 27.7246 14.2628C28.838 17.0551 30.2797 19.7051 32.0191 22.1568C32.951 20.8686 33.8151 19.5328 34.6081 18.1547C36.125 15.57 38.0699 12.7755 37.8898 9.64623Z" fill="#E55151"/>
<path id="Vector_15" d="M32.1949 13.375C34.0612 13.375 35.5741 11.8621 35.5741 9.99575C35.5741 8.12945 34.0612 6.61652 32.1949 6.61652C30.3286 6.61652 28.8157 8.12945 28.8157 9.99575C28.8157 11.8621 30.3286 13.375 32.1949 13.375Z" fill="white"/>
<path id="Vector_16" d="M39.6208 18.2797L42.5932 27.0869H54.9026L53.7055 28.1886H41.8814L38.606 18.9365" fill="#F9EFD7"/>
<path id="Vector_17" d="M38.2627 1.90894L42.5932 12.4132L44.1589 12.839L39.9852 2.94071L38.2627 1.90894Z" fill="#F9EFD7"/>
<path id="Vector_18" d="M14.589 19.8983L23.4957 25.767L24.6165 24.6865L15.5996 19.1844" fill="#F9EFD7"/>
<path id="Vector_19" d="M7.8284 29.0678C7.75001 29.1949 18.6335 22.5763 18.6335 22.5763L27.5318 16.7691L26.7585 12.4195L26.2924 12.8432L27.0085 16.572L7.11018 28.822" fill="#F9EFD7"/>
<path id="Vector_20" d="M11.8072 24.9217C12.8018 24.9217 13.6081 24.5527 13.6081 24.0975C13.6081 23.6423 12.8018 23.2733 11.8072 23.2733C10.8127 23.2733 10.0064 23.6423 10.0064 24.0975C10.0064 24.5527 10.8127 24.9217 11.8072 24.9217Z" fill="#B3B3B3"/>
<path id="Vector_21" d="M22.9491 29.0677C22.9491 29.0677 34.3156 26.9766 37.3559 31.9194C40.3961 36.8622 38.2563 38.2012 38.2563 38.2012L40.1906 37.1059C40.1906 37.1059 40.2923 31.2351 34.6228 28.8283C28.9533 26.4215 24.0296 27.8241 24.0296 27.8241" fill="#F9EFD7"/>
<path id="Vector_22" opacity="0.28" d="M24.5021 38.7436C24.6229 38.6843 28.0169 37.4852 28.0169 37.4852L28.6525 38.625L26.589 39.9407L24.5021 38.7436Z" fill="url(#paint0_linear_414_3224)"/>
<path id="Vector_23" opacity="0.28" d="M29.661 39.8115C29.7818 39.7521 34.3221 38.0911 34.3221 38.0911L34.8326 38.6229L31.5657 41.0445L29.661 39.8115Z" fill="url(#paint1_linear_414_3224)"/>
<path id="Vector_24" opacity="0.28" d="M26.4491 36.1229C26.6419 36.0275 31.5678 34.2839 31.5678 34.2839L32.1822 35.2902L28.4258 38.0911L26.4491 36.1229Z" fill="url(#paint2_linear_414_3224)"/>
<path id="Vector_25" d="M31.928 28.3983H31.7204C31.4852 28.3983 31.2945 28.589 31.2945 28.8242V35C31.2945 35.2352 31.4852 35.4259 31.7204 35.4259H31.928C32.1632 35.4259 32.3538 35.2352 32.3538 35V28.8242C32.3538 28.589 32.1632 28.3983 31.928 28.3983Z" fill="#BC532A"/>
<path id="Vector_26" d="M34.4407 29.8369C34.197 28.7775 33.1102 24.1038 31.1864 25.4767C30.2013 26.1801 29.9153 27.2797 29.5275 28.3559C29.1695 29.2432 28.9626 30.1842 28.9153 31.1398C28.8835 33.0847 30.8623 33.322 32.375 33.3157C33.2479 33.3157 34.4936 32.7966 34.7055 31.8496C34.8284 31.2775 34.6186 30.6038 34.4936 30.0445L34.4407 29.8369Z" fill="#2C9135"/>
<path id="Vector_27" d="M34.5339 30.0424L34.4873 29.8305C34.2754 28.892 33.3962 25.1314 31.8665 25.2225C32.3199 27.2055 32.9915 29.3009 32.6335 31.3305C32.5191 32.0389 32.2421 32.7112 31.8241 33.2945C32.036 33.2945 32.2288 33.3072 32.4216 33.3072C33.2945 33.3072 34.5402 32.7882 34.7521 31.8411C34.8644 31.2776 34.6546 30.6017 34.5339 30.0424Z" fill="#156819"/>
<path id="Vector_28" d="M34.4724 33.8814H34.4703C34.2667 33.8814 34.1017 34.0465 34.1017 34.2501V38.4132C34.1017 38.6168 34.2667 38.7818 34.4703 38.7818H34.4724C34.676 38.7818 34.8411 38.6168 34.8411 38.4132V34.2501C34.8411 34.0465 34.676 33.8814 34.4724 33.8814Z" fill="#BC532A"/>
<path id="Vector_29" d="M36.2966 34.8835C36.125 34.144 35.3686 30.8856 34.0275 31.8432C33.3411 32.3347 33.1461 33.0996 32.8707 33.8496C32.6222 34.4683 32.479 35.1242 32.447 35.7902C32.4258 37.1462 33.805 37.3114 34.8601 37.3072C35.4682 37.3072 36.3432 36.9449 36.4788 36.2839C36.5635 35.8856 36.4195 35.4152 36.3326 35.0254L36.2966 34.8835Z" fill="#2C9135"/>
<path id="Vector_30" d="M36.3602 35.0276L36.3284 34.8835C36.178 34.2288 35.5678 31.6059 34.5021 31.6716C34.8199 33.0551 35.286 34.5148 35.036 35.9301C34.9567 36.4244 34.7638 36.8937 34.4724 37.3009H34.8962C35.5042 37.3009 36.3792 36.9386 36.5148 36.2776C36.5911 35.8877 36.4449 35.4237 36.3602 35.0276Z" fill="#156819"/>
<path id="Vector_31" d="M28.3284 32.0636H28.1674C27.9322 32.0636 27.7415 32.2543 27.7415 32.4894V38.356C27.7415 38.5912 27.9322 38.7818 28.1674 38.7818H28.3284C28.5636 38.7818 28.7542 38.5912 28.7542 38.356V32.4894C28.7542 32.2543 28.5636 32.0636 28.3284 32.0636Z" fill="#BC532A"/>
<path id="Vector_32" d="M30.7521 33.4386C30.5191 32.4258 29.4809 27.9576 27.6419 29.2712C26.6991 29.9428 26.4322 30.9958 26.0572 32.0254C25.7144 32.8735 25.5161 33.7729 25.4703 34.6864C25.4407 36.5445 27.3305 36.7733 28.7775 36.7648C29.6123 36.7648 30.8008 36.2691 30.9958 35.3623C31.1123 34.8157 30.9131 34.1716 30.7966 33.6377L30.7521 33.4386Z" fill="#2C9135"/>
<path id="Vector_33" d="M30.839 33.6356L30.7945 33.4385C30.5827 32.5424 29.7521 28.9449 28.2903 29.0339C28.7246 30.9301 29.3644 32.9322 29.0233 34.8729C28.9144 35.5507 28.6497 36.194 28.25 36.7521C28.4449 36.7521 28.6356 36.7648 28.8199 36.7648C29.6547 36.7648 30.8433 36.2691 31.0382 35.3623C31.1568 34.8135 30.9555 34.1695 30.839 33.6356Z" fill="#156819"/>
<path id="Vector_34" opacity="0.28" d="M46.6801 24.2119C45.3242 24.7076 43.3538 25.4301 43.2733 25.4703L45.1801 26.7034L47.3793 25.0741C47.087 24.8403 46.8485 24.5462 46.6801 24.2119Z" fill="url(#paint3_linear_414_3224)"/>
<path id="Vector_35" d="M47.3602 25.1504L47.3856 25.1228V16.4364H46.25V25.1356C46.4108 25.2525 46.6039 25.3167 46.8027 25.3193C47.0015 25.322 47.1963 25.263 47.3602 25.1504Z" fill="#D3894C"/>
<path id="Vector_36" d="M46.8178 19.4153L44.9386 20.5594L44.2818 20.178L44.5509 19.3305L46.3708 18.2733L46.8178 19.4153Z" fill="#D3894C"/>
<path id="Vector_37" d="M46.3707 18.4894L44.7203 19.4746L44.4258 20.2627L44.9385 20.5594L46.3411 19.7055L46.3707 18.4894Z" fill="#C66B28"/>
<path id="Vector_38" d="M46.9407 17.517L48.5085 16.6886L49.2246 17.1314L48.5085 17.875L47.4195 18.1187" fill="#D3894C"/>
<path id="Vector_39" d="M47.3602 25.1504L47.3856 25.1228V16.4364H46.8771V25.3156C47.0501 25.3053 47.2171 25.2482 47.3602 25.1504Z" fill="#C66B28"/>
<path id="Vector_40" d="M46.8771 17.8242L48.8348 16.8454L49.2246 17.1314L49.0763 17.7267L47.1759 18.8009" fill="#C66B28"/>
<path id="Vector_41" d="M46.8178 16.7288C47.1314 16.7288 47.3856 16.5998 47.3856 16.4407C47.3856 16.2816 47.1314 16.1526 46.8178 16.1526C46.5042 16.1526 46.25 16.2816 46.25 16.4407C46.25 16.5998 46.5042 16.7288 46.8178 16.7288Z" fill="#EAA068"/>
<path id="Vector_42" opacity="0.28" d="M6.93005 25.4661C7.05082 25.4068 11.5911 23.7458 11.5911 23.7458L12.1017 24.2775L8.84107 26.7034L6.93005 25.4661Z" fill="url(#paint4_linear_414_3224)"/>
<path id="Vector_43" d="M12.1356 24.2564L12.1504 24.2288V15.5424H11.464V24.2415C11.5001 24.297 11.5492 24.3428 11.607 24.375C11.6649 24.4072 11.7297 24.4248 11.7959 24.4262C11.862 24.4277 11.9276 24.413 11.9868 24.3834C12.046 24.3538 12.0971 24.3102 12.1356 24.2564Z" fill="#E6E6E6"/>
<path id="Vector_44" d="M12.1356 24.2564L12.1504 24.2288V15.5424H11.8432V24.4216C11.958 24.4054 12.0625 24.3464 12.1356 24.2564Z" fill="#B3B3B3"/>
<path id="Vector_45" d="M11.8072 15.8348C11.9968 15.8348 12.1504 15.7058 12.1504 15.5466C12.1504 15.3875 11.9968 15.2585 11.8072 15.2585C11.6176 15.2585 11.464 15.3875 11.464 15.5466C11.464 15.7058 11.6176 15.8348 11.8072 15.8348Z" fill="#DDDAA5"/>
<path id="Vector_46" d="M13.8039 16.2478C14.092 15.0245 13.4548 13.8279 12.3808 13.575C11.3067 13.3221 10.2026 14.1087 9.91455 15.3319C9.62652 16.5552 10.2637 17.7518 11.3377 18.0047C12.4117 18.2576 13.5159 17.471 13.8039 16.2478Z" fill="#CA4050"/>
<path id="Vector_47" d="M13.5273 16.1978C13.7654 15.1864 13.2383 14.1969 12.3499 13.9878C11.4615 13.7786 10.5483 14.4289 10.3102 15.4403C10.072 16.4517 10.5991 17.4411 11.4875 17.6503C12.3759 17.8595 13.2891 17.2092 13.5273 16.1978Z" fill="white"/>
<path id="Vector_48" d="M12.8517 14.0699L10.8877 17.3475C10.8877 17.3475 11.1928 18.1525 11.3432 17.7987C11.4936 17.4449 13.3305 14.4216 13.3305 14.4216L12.8517 14.0699Z" fill="#CA4050"/>
<path id="Vector_49" opacity="0.28" d="M19.1314 19.1844C17.7754 19.6801 15.8051 20.4026 15.7246 20.4428L17.4555 21.5594L19.5233 19.7522C19.2309 19.517 19.3009 19.5191 19.1314 19.1844Z" fill="url(#paint5_linear_414_3224)"/>
<path id="Vector_50" opacity="0.28" d="M22.7797 21.8305C21.4237 22.3263 19.4534 23.0487 19.3729 23.089L21.1038 24.2055L23.1716 22.3983C22.8771 22.1653 22.9492 22.1653 22.7797 21.8305Z" fill="url(#paint6_linear_414_3224)"/>
<path id="Vector_51" opacity="0.28" d="M22.4386 17.3856C21.0826 17.8813 19.1123 18.6038 19.0318 18.644L20.7627 19.7606L22.8305 17.9534C22.536 17.7203 22.6081 17.7203 22.4386 17.3856Z" fill="url(#paint7_linear_414_3224)"/>
<path id="Vector_52" d="M23.2945 20.7056C23.2945 20.4868 23.1171 20.3094 22.8983 20.3094C22.6795 20.3094 22.5021 20.4868 22.5021 20.7056V22.1717C22.5021 22.3905 22.6795 22.5679 22.8983 22.5679C23.1171 22.5679 23.2945 22.3905 23.2945 22.1717V20.7056Z" fill="#BC532A"/>
<path id="Vector_53" d="M22.8983 21.8305C23.7384 21.8305 24.4195 21.1494 24.4195 20.3093C24.4195 19.4692 23.7384 18.7881 22.8983 18.7881C22.0582 18.7881 21.3771 19.4692 21.3771 20.3093C21.3771 21.1494 22.0582 21.8305 22.8983 21.8305Z" fill="#9CD861"/>
<path id="Vector_54" d="M22.8983 18.7881C22.8123 18.7886 22.7266 18.7964 22.6419 18.8114C22.9494 18.9846 23.1985 19.2452 23.3577 19.5602C23.5168 19.8751 23.5789 20.2302 23.536 20.5805C23.5012 20.8517 23.3931 21.1084 23.2232 21.3227C23.0533 21.537 22.8282 21.7008 22.572 21.7966C22.7809 21.8429 22.9972 21.8446 23.2067 21.8016C23.4163 21.7586 23.6144 21.6719 23.7882 21.5471C23.962 21.4223 24.1075 21.2623 24.2152 21.0775C24.323 20.8927 24.3905 20.6872 24.4135 20.4745C24.4364 20.2618 24.4142 20.0466 24.3483 19.8431C24.2825 19.6396 24.1744 19.4522 24.0312 19.2933C23.888 19.1343 23.7129 19.0073 23.5173 18.9207C23.3218 18.834 23.1101 18.7896 22.8962 18.7902L22.8983 18.7881Z" fill="#54BA56"/>
<path id="Vector_55" d="M19.1271 17.161H18.9301C18.7113 17.161 18.5339 17.3384 18.5339 17.5572V19.589C18.5339 19.8078 18.7113 19.9852 18.9301 19.9852H19.1271C19.3459 19.9852 19.5233 19.8078 19.5233 19.589V17.5572C19.5233 17.3384 19.3459 17.161 19.1271 17.161Z" fill="#BC532A"/>
<path id="Vector_56" d="M19.0275 19.0636C20.0783 19.0636 20.9301 18.2118 20.9301 17.161C20.9301 16.1103 20.0783 15.2585 19.0275 15.2585C17.9768 15.2585 17.125 16.1103 17.125 17.161C17.125 18.2118 17.9768 19.0636 19.0275 19.0636Z" fill="#9CD861"/>
<path id="Vector_57" d="M19.0339 15.2585C18.9266 15.2594 18.8196 15.2693 18.714 15.2882C19.0987 15.5045 19.4104 15.8303 19.6095 16.2241C19.8087 16.6179 19.8864 17.062 19.8327 17.5001C19.789 17.839 19.6537 18.1596 19.4413 18.4273C19.2288 18.695 18.9473 18.8996 18.6272 19.0191C18.8906 19.0823 19.1644 19.0886 19.4305 19.0377C19.6966 18.9867 19.9487 18.8797 20.1702 18.7236C20.3916 18.5676 20.5773 18.3662 20.7148 18.1328C20.8523 17.8993 20.9385 17.6393 20.9676 17.37C20.9967 17.1007 20.9681 16.8282 20.8837 16.5708C20.7993 16.3134 20.661 16.0769 20.4781 15.8771C20.2951 15.6774 20.0717 15.5189 19.8227 15.4122C19.5737 15.3055 19.3048 15.2531 19.0339 15.2585Z" fill="#54BA56"/>
<path id="Vector_58" d="M22.9703 16.1865C22.9703 15.9677 22.7929 15.7903 22.5741 15.7903C22.3553 15.7903 22.1779 15.9677 22.1779 16.1865V17.6526C22.1779 17.8714 22.3553 18.0488 22.5741 18.0488C22.7929 18.0488 22.9703 17.8714 22.9703 17.6526V16.1865Z" fill="#BC532A"/>
<path id="Vector_59" d="M22.572 17.3114C23.4122 17.3114 24.0932 16.6304 24.0932 15.7903C24.0932 14.9501 23.4122 14.2691 22.572 14.2691C21.7319 14.2691 21.0509 14.9501 21.0509 15.7903C21.0509 16.6304 21.7319 17.3114 22.572 17.3114Z" fill="#9CD861"/>
<path id="Vector_60" d="M22.5721 14.2691C22.4861 14.2696 22.4003 14.2774 22.3157 14.2924C22.6232 14.4656 22.8723 14.7262 23.0314 15.0411C23.1906 15.3561 23.2527 15.7112 23.2098 16.0614C23.175 16.3327 23.0669 16.5893 22.897 16.8036C22.7271 17.0179 22.5019 17.1818 22.2458 17.2775C22.4547 17.3238 22.6709 17.3255 22.8805 17.2825C23.0901 17.2395 23.2882 17.1528 23.462 17.0281C23.6358 16.9033 23.7813 16.7433 23.889 16.5584C23.9968 16.3736 24.0643 16.1681 24.0872 15.9554C24.1102 15.7427 24.088 15.5276 24.0221 15.3241C23.9563 15.1205 23.8482 14.9332 23.705 14.7742C23.5618 14.6153 23.3867 14.4883 23.1911 14.4016C22.9955 14.315 22.7839 14.2705 22.5699 14.2712L22.5721 14.2691Z" fill="#54BA56"/>
<path id="Vector_61" opacity="0.28" d="M31.4343 21.0424C29.1674 21.9576 25.8729 23.2945 25.7394 23.3729L28.6314 25.4343L32.089 22.0974C31.5996 21.6525 31.7161 21.6525 31.4343 21.0424Z" fill="url(#paint8_linear_414_3224)"/>
</g>
<defs>
<linearGradient id="paint0_linear_414_3224" x1="25.7267" y1="39.3581" x2="28.9322" y2="36.8199" gradientUnits="userSpaceOnUse">
<stop stop-opacity="0"/>
<stop offset="1"/>
</linearGradient>
<linearGradient id="paint1_linear_414_3224" x1="31.767" y1="39.7924" x2="35.9534" y2="37.4767" gradientUnits="userSpaceOnUse">
<stop stop-opacity="0"/>
<stop offset="1"/>
</linearGradient>
<linearGradient id="paint2_linear_414_3224" x1="28.1165" y1="36.6843" x2="31.4491" y2="34.589" gradientUnits="userSpaceOnUse">
<stop stop-opacity="0"/>
<stop offset="1"/>
</linearGradient>
<linearGradient id="paint3_linear_414_3224" x1="44.3644" y1="26" x2="48.5509" y2="23.3241" gradientUnits="userSpaceOnUse">
<stop stop-opacity="0"/>
<stop offset="1"/>
</linearGradient>
<linearGradient id="paint4_linear_414_3224" x1="7.81988" y1="26.1335" x2="13.0572" y2="22.358" gradientUnits="userSpaceOnUse">
<stop stop-opacity="0"/>
<stop offset="1"/>
</linearGradient>
<linearGradient id="paint5_linear_414_3224" x1="16.7479" y1="20.8983" x2="20.8136" y2="18.2988" gradientUnits="userSpaceOnUse">
<stop stop-opacity="0"/>
<stop offset="1"/>
</linearGradient>
<linearGradient id="paint6_linear_414_3224" x1="20.3962" y1="23.5466" x2="24.4619" y2="20.947" gradientUnits="userSpaceOnUse">
<stop stop-opacity="0"/>
<stop offset="1"/>
</linearGradient>
<linearGradient id="paint7_linear_414_3224" x1="20.0551" y1="19.1017" x2="24.1208" y2="16.5021" gradientUnits="userSpaceOnUse">
<stop stop-opacity="0"/>
<stop offset="1"/>
</linearGradient>
<linearGradient id="paint8_linear_414_3224" x1="27.5042" y1="24.1928" x2="34.3898" y2="19.7902" gradientUnits="userSpaceOnUse">
<stop stop-opacity="0"/>
<stop offset="1"/>
</linearGradient>
</defs>
</svg>
