<svg width="18" height="16" viewBox="0 0 18 16" fill="none" xmlns="http://www.w3.org/2000/svg">
<path id="Vector (Stroke)" fill-rule="evenodd" clip-rule="evenodd" d="M0.360322 0.419831C0.840751 -0.060598 1.61968 -0.060598 2.10011 0.419831L4.21914 2.53886C4.69957 3.01929 4.69957 3.79822 4.21914 4.27865L2.10011 6.39768C1.61968 6.87811 0.840751 6.87811 0.360322 6.39768C-0.120107 5.91725 -0.120107 5.13832 0.360322 4.6579L1.60946 3.40876L0.360322 2.15962C-0.120107 1.67919 -0.120107 0.90026 0.360322 0.419831ZM16.7698 4.63897H6.17462C5.4952 4.63897 4.94441 4.08819 4.94441 3.40876C4.94441 2.72933 5.4952 2.17854 6.17462 2.17854H16.7698C17.4492 2.17854 18 2.72933 18 3.40876C18 4.08819 17.4492 4.63897 16.7698 4.63897ZM0 9.05951C0 8.38008 0.550786 7.82929 1.23022 7.82929H16.7698C17.4492 7.82929 18 8.38008 18 9.05951C18 9.73894 17.4492 10.2897 16.7698 10.2897H1.23022C0.550786 10.2897 0 9.73894 0 9.05951ZM1.23022 15.9405C0.550786 15.9405 0 15.3897 0 14.7103C0 14.0308 0.550786 13.48 1.23022 13.48H16.7698C17.4492 13.48 18 14.0308 18 14.7103C18 15.3897 17.4492 15.9405 16.7698 15.9405H1.23022Z" fill="#326213"/>
</svg>
