<svg width="23" height="24" viewBox="0 0 23 24" fill="none" xmlns="http://www.w3.org/2000/svg">
<g id="&#240;&#159;&#166;&#134; icon &#34;map pin ellipse&#34;">
<path id="Vector" d="M11.2291 19.6332C11.7116 19.6332 12.3237 17.7499 12.3237 14.2776V8.73369C14.2423 8.23932 15.6548 6.49731 15.6548 4.4257C15.6548 1.98919 13.6891 0 11.2291 0C8.7808 0 6.81511 1.98919 6.81511 4.4257C6.81511 6.49731 8.21581 8.23932 10.1344 8.72189V14.2776C10.1344 17.7381 10.7582 19.6332 11.2291 19.6332ZM9.96962 4.67289C9.1692 4.67289 8.463 3.96664 8.463 3.15447C8.463 2.33054 9.1692 1.63609 9.96962 1.63609C10.7935 1.63609 11.4762 2.33054 11.4762 3.15447C11.4762 3.96664 10.7935 4.67289 9.96962 4.67289ZM11.2291 24C18.3502 24 22.4699 21.5282 22.4699 18.9034C22.4699 15.7371 17.4321 13.8185 14.1834 13.8068V15.643C16.4434 15.6548 19.9628 16.8788 19.9628 18.6209C19.9628 20.4689 16.6435 22.0226 11.2291 22.0226C5.82641 22.0226 2.50712 20.4806 2.50712 18.6209C2.50712 16.8788 6.02649 15.6548 8.28642 15.643V13.8068C5.0378 13.8185 0 15.7371 0 18.9034C0 21.5282 4.11971 24 11.2291 24Z" fill="#326213"/>
</g>
</svg>
