<svg width="251" height="377" viewBox="0 0 251 377" fill="none" xmlns="http://www.w3.org/2000/svg">
<path d="M125.4 0C56.1431 0 0 56.1431 0 125.4C0 147.674 5.98158 168.506 16.1641 186.627C17.8554 189.636 19.6282 192.599 21.5531 195.452L125.4 376.2L229.247 195.452C230.846 193.085 232.225 190.577 233.652 188.1L234.639 186.627C244.812 168.506 250.8 147.674 250.8 125.4C250.8 56.1431 194.652 0 125.4 0ZM125.4 62.7C160.026 62.7 188.1 90.7724 188.1 125.4C188.1 160.026 160.026 188.1 125.4 188.1C90.7724 188.1 62.7 160.026 62.7 125.4C62.7 90.7724 90.7724 62.7 125.4 62.7Z" fill="#E74C3C"/>
<path d="M125.4 47.0234C82.1154 47.0234 47.0254 82.1135 47.0254 125.398C47.0254 168.677 82.1154 203.773 125.4 203.773C168.679 203.773 203.775 168.677 203.775 125.398C203.775 82.1135 168.679 47.0234 125.4 47.0234ZM125.4 78.3734C151.374 78.3734 172.425 99.4265 172.425 125.398C172.425 151.37 151.374 172.423 125.4 172.423C99.4269 172.423 78.3754 151.37 78.3754 125.398C78.3754 99.4265 99.4269 78.3734 125.4 78.3734Z" fill="#C0392B"/>
</svg>
