<svg width="251" height="252" viewBox="0 0 251 252" fill="none" xmlns="http://www.w3.org/2000/svg">
<path d="M176.124 94.1016L195.98 100.576V107.483L176.124 101.871V94.1016Z" fill="#C94747"/>
<path d="M176.124 101.871L195.98 107.483V115.252L176.124 109.641V101.871Z" fill="#3E4347"/>
<path d="M137.275 58.7053H137.707C137.275 57.4103 137.275 56.1153 137.275 54.8204C137.275 47.4822 142.455 41.0074 149.793 39.7124C151.951 31.0793 159.721 24.6044 168.786 24.6044C171.376 24.6044 174.398 25.0361 176.556 26.331C180.872 19.8562 187.779 15.9713 195.98 15.9713H198.57C202.887 6.47484 212.383 0 223.606 0C238.714 0 250.801 12.0864 250.801 27.626C250.801 43.1656 238.714 55.252 223.175 55.252C220.153 55.252 217.132 54.8204 214.542 53.9571C210.225 59.5686 203.319 63.4535 195.98 63.4535C190.801 63.4535 186.052 61.7269 182.167 58.7053C178.714 62.1585 173.966 64.3168 168.786 64.3168C167.923 64.3168 167.059 64.3168 166.196 63.8851C163.606 68.2017 158.426 70.7916 153.246 70.7916C150.225 70.7916 147.635 69.9283 145.045 68.6334C144.182 72.0866 141.16 74.6766 137.275 74.6766C132.959 74.6766 129.505 71.2233 129.505 66.9067C129.505 62.1585 132.959 58.7053 137.275 58.7053Z" fill="#DAE3EA"/>
<path d="M122.169 69.9278C126.917 67.7696 132.097 66.9062 137.276 66.9062C143.32 66.9062 151.521 68.2012 156.701 70.7912L160.586 101.87H105.766L122.169 69.9278Z" fill="#94989B"/>
<path d="M188.21 109.641L207.635 118.705V141.152H195.98V188.202H94.1091V137.267L188.21 109.641Z" fill="#62727A"/>
<path d="M188.211 109.641V133.382H176.556V184.317H74.6853V133.382H62.5989V109.641H188.211Z" fill="#B2C1C0"/>
<path d="M176.555 196.404L223.605 203.743V164.462L176.555 141.152V196.404Z" fill="#62727A"/>
<path d="M24.6128 236.978C24.6128 236.978 157.563 265.035 220.153 242.158C228.786 239.136 238.714 233.524 250.801 221.006V202.014C250.801 202.014 206.34 196.402 151.951 167.049C85.0447 131.222 26.3395 129.495 7.34657 137.697C7.77823 137.265 24.6128 164.459 24.6128 236.978Z" fill="#F15744"/>
<path d="M23.75 215.397C23.3183 198.994 18.1385 192.088 11.6636 181.297C-12.0775 143.311 7.77871 137.699 7.77871 137.699C22.8867 162.735 23.75 215.397 23.75 215.397Z" fill="#D33B23"/>
<path d="M11.6631 145.468C35.8359 138.562 91.5196 143.742 152.815 176.548C206.34 205.469 250.369 207.627 250.801 207.627V211.512C250.369 211.512 205.477 209.353 151.088 180.432C91.5196 148.49 36.2675 143.31 12.9581 149.353L11.6631 145.468Z" fill="white"/>
<path d="M11.6621 145.898C12.0937 147.193 12.5254 148.488 12.957 149.352C9.50378 150.647 3.46059 154.1 1.30231 160.575C0.438993 158.416 0.00733948 156.258 0.00733948 154.532C3.46059 149.783 8.64047 147.193 11.6621 145.898Z" fill="#B2C1C0"/>
<path d="M176.123 101.871H74.6838V109.641H176.123V101.871Z" fill="#62727A"/>
<path d="M176.123 94.1016H74.6838V101.871H176.123V94.1016Z" fill="#FF9D27"/>
<path d="M188.211 109.641H62.5989V132.95H188.211V109.641Z" fill="#C5D0D8"/>
<path d="M180.01 115.684H174.398V127.338H180.01V115.684ZM165.333 115.684H159.722V127.338H165.333V115.684ZM150.657 115.684H145.046V127.338H150.657V115.684ZM135.981 115.684H130.369V127.338H135.981V115.684ZM120.873 115.684H115.261V127.338H120.873V115.684ZM106.197 115.684H100.585V127.338H106.197V115.684ZM91.5202 115.684H85.9087V127.338H91.5202V115.684ZM76.8439 115.684H71.2323V127.338H76.8439V115.684Z" fill="#94989B"/>
<path d="M168.785 137.266H153.246V145.035H168.785V137.266ZM82.4539 139.424L97.9935 143.74V137.266H82.4539V139.424ZM121.735 137.266H106.195V145.035H121.735V137.266ZM145.044 137.266H129.504V145.035H145.044V137.266Z" fill="#62727A"/>
<path d="M209.361 170.073L219.289 174.821V184.317L209.361 180.433V170.073ZM180.872 155.828L190.8 161.008V173.094L180.872 169.209V155.828ZM195.116 163.166L205.044 167.915V178.706L195.116 174.821V163.166Z" fill="white"/>
</svg>
