<svg width="251" height="226" viewBox="0 0 251 226" fill="none" xmlns="http://www.w3.org/2000/svg">
<path d="M217.379 39.0352H32.0497C24.3539 39.0352 18.1152 45.2738 18.1152 52.9697V211.823C18.1152 219.519 24.3539 225.757 32.0497 225.757H217.379C225.074 225.757 231.313 219.519 231.313 211.823V52.9697C231.313 45.2738 225.074 39.0352 217.379 39.0352Z" fill="#EBEBEB"/>
<path d="M47.3774 137.969H87.7874C89.6353 137.969 91.4074 138.703 92.714 140.009C94.0206 141.316 94.7547 143.088 94.7547 144.936V225.756H40.4102V144.936C40.4102 143.088 41.1442 141.316 42.4508 140.009C43.7574 138.703 45.5296 137.969 47.3774 137.969Z" fill="#B37F43"/>
<path d="M45.9844 143.543H89.1813V225.756H45.9844V143.543Z" fill="#C38C4C"/>
<path d="M84.3039 183.952C86.2279 183.952 87.7876 182.392 87.7876 180.468C87.7876 178.544 86.2279 176.984 84.3039 176.984C82.38 176.984 80.8203 178.544 80.8203 180.468C80.8203 182.392 82.38 183.952 84.3039 183.952Z" fill="#E7E7E7"/>
<path d="M32.0488 220.184H101.721V225.757H32.0488V220.184Z" fill="#906B41"/>
<path d="M34.8359 214.609H98.9346V220.183H34.8359V214.609Z" fill="#A1794A"/>
<path d="M204.838 139.363H118.444C114.596 139.363 111.477 142.483 111.477 146.331V207.642C111.477 211.49 114.596 214.61 118.444 214.61H204.838C208.686 214.61 211.805 211.49 211.805 207.642V146.331C211.805 142.483 208.686 139.363 204.838 139.363Z" fill="#A7C9F2"/>
<path d="M115.656 143.543H207.624V210.429H115.656V143.543Z" fill="#BCDAFE"/>
<path fill-rule="evenodd" clip-rule="evenodd" d="M191.263 210.429H186.54L119.558 143.543H124.282L191.263 210.429ZM167.646 210.429L115.656 158.511V143.543H117.987L184.965 210.429H167.646Z" fill="#CAE2FF"/>
<path fill-rule="evenodd" clip-rule="evenodd" d="M146.195 96.1661L144.673 0.00557339H190.413L212.427 96.1661H146.195ZM45.748 96.1661L66.1398 0H117.746L111.197 96.1661H45.748Z" fill="white"/>
<path fill-rule="evenodd" clip-rule="evenodd" d="M216.592 96.1662L200.182 86.1334L183.181 0.00149689H217.357C218.815 -0.00473808 220.26 0.276206 221.609 0.828291C222.958 1.38038 224.185 2.19279 225.22 3.21914C226.255 4.2455 227.078 5.46569 227.642 6.81006C228.205 8.15442 228.499 9.59663 228.505 11.0543L250.8 85.1092V96.1662H216.592ZM107.082 0.000101545H146.778L150.473 87.7874H100.328L107.082 0.000101545ZM34.6969 96.1662H0V85.1078L22.2952 11.0529C22.3014 9.59524 22.5947 8.15303 23.1582 6.80866C23.7218 5.4643 24.5447 4.2441 25.5798 3.21775C26.615 2.1914 27.8422 1.37898 29.1913 0.826899C30.5404 0.274813 31.9851 -0.00613342 33.4428 0.000101545H67.4025L49.8855 86.1334L34.6969 96.1662Z" fill="#FF5353"/>
<path fill-rule="evenodd" clip-rule="evenodd" d="M175.566 131.003C172.271 131.003 169.008 130.354 165.964 129.093C162.919 127.832 160.153 125.984 157.823 123.655C155.493 121.325 153.645 118.559 152.383 115.514C151.122 112.47 150.473 109.207 150.473 105.912V86.404H200.657V105.912C200.656 112.566 198.012 118.948 193.307 123.653C188.602 128.358 182.22 131.002 175.566 131.003ZM75.2559 131.003C71.9618 131.001 68.7001 130.351 65.6572 129.089C62.6143 127.827 59.8498 125.978 57.5216 123.648C55.1934 121.318 53.347 118.551 52.0879 115.507C50.8289 112.463 50.1818 109.201 50.1836 105.907V86.3984H100.328V105.907C100.33 109.201 99.683 112.463 98.4239 115.507C97.1649 118.551 95.3185 121.318 92.9903 123.648C90.662 125.978 87.8975 127.827 84.8547 129.089C81.8118 130.351 78.5501 131.001 75.2559 131.003Z" fill="#EFEFEF"/>
<path fill-rule="evenodd" clip-rule="evenodd" d="M225.739 131.003C222.444 131.003 219.181 130.354 216.137 129.092C213.093 127.831 210.327 125.982 207.998 123.651C205.669 121.321 203.822 118.554 202.562 115.51C201.302 112.465 200.655 109.202 200.657 105.907V86.3984H250.8V105.907C250.804 112.558 248.166 118.938 243.466 123.644C238.766 128.35 232.39 130.997 225.739 131.003ZM125.41 131.003C122.115 131.003 118.853 130.354 115.809 129.092C112.765 127.831 109.999 125.982 107.67 123.651C105.341 121.321 103.493 118.554 102.234 115.51C100.974 112.465 100.327 109.202 100.328 105.907V86.3984H150.473V105.907C150.475 109.201 149.828 112.463 148.569 115.507C147.31 118.551 145.463 121.318 143.135 123.648C140.807 125.978 138.042 127.827 134.999 129.089C131.957 130.351 128.695 131.001 125.401 131.003H125.41ZM25.1002 131.003C21.804 131.004 18.54 130.356 15.4944 129.095C12.4489 127.834 9.68164 125.986 7.35071 123.655C5.01978 121.324 3.17086 118.557 1.9096 115.512C0.648341 112.467 -0.000548981 109.203 3.48492e-07 105.907V86.3984H50.1851V105.907C50.1856 109.202 49.5369 112.466 48.276 115.511C47.0151 118.556 45.1667 121.323 42.8363 123.653C40.506 125.984 37.7394 127.832 34.6945 129.093C31.6496 130.354 28.3861 131.003 25.0905 131.003H25.1002Z" fill="#F34B4B"/>
</svg>
