<svg width="17" height="20" viewBox="0 0 17 20" fill="none" xmlns="http://www.w3.org/2000/svg">
    <g id="&#240;&#159;&#166;&#134; icon &#34;file contract o&#34;">
        <path id="Vector"
              d="M8.99389 12.8157H3.56174C3.46967 12.8157 3.38138 12.8523 3.31628 12.9174C3.25117 12.9825 3.2146 13.0708 3.2146 13.1629C3.2146 13.2549 3.25117 13.3432 3.31628 13.4083C3.38138 13.4734 3.46967 13.51 3.56174 13.51H8.72389C8.73007 13.2542 8.82559 13.0085 8.99389 12.8157Z"
              fill="#000" stroke="#000" stroke-width="0.5"/>
        <path id="Vector_2"
              d="M11.4335 8.26428H3.56174C3.46967 8.26428 3.38138 8.30086 3.31628 8.36596C3.25117 8.43106 3.2146 8.51936 3.2146 8.61143C3.2146 8.70349 3.25117 8.79179 3.31628 8.85689C3.38138 8.92199 3.46967 8.95857 3.56174 8.95857H11.4335C11.5256 8.95857 11.6139 8.92199 11.679 8.85689C11.7441 8.79179 11.7807 8.70349 11.7807 8.61143C11.7807 8.51936 11.7441 8.43106 11.679 8.36596C11.6139 8.30086 11.5256 8.26428 11.4335 8.26428Z"
              fill="#000" stroke="#000" stroke-width="0.5"/>
        <path id="Vector_3"
              d="M13.3782 13.1886V17.8975C13.3782 17.9444 13.3596 17.9894 13.3264 18.0225C13.2933 18.0557 13.2483 18.0743 13.2014 18.0743H2.1025C2.05561 18.0743 2.01065 18.0557 1.97749 18.0225C1.94434 17.9894 1.92571 17.9444 1.92571 17.8975V2.1025C1.92656 2.05617 1.94555 2.01203 1.97862 1.97957C2.01168 1.9471 2.05617 1.92892 2.1025 1.92893H10.495V4.61286C10.4958 4.73591 10.5453 4.85363 10.6326 4.94034C10.72 5.02705 10.838 5.07572 10.9611 5.07571H13.3782V6.04C13.4007 6.04 13.5743 5.71857 13.6 5.71857C13.8282 5.41321 13.9214 5.44536 14.0757 5.39714H14.2975V4.41357L11.1636 1H2.1025C1.81036 1.00085 1.53043 1.11728 1.32385 1.32385C1.11728 1.53043 1.00085 1.81036 1 2.1025V17.8975C1.00085 18.1896 1.11728 18.4696 1.32385 18.6761C1.53043 18.8827 1.81036 18.9992 2.1025 19H13.2014C13.4936 18.9992 13.7735 18.8827 13.9801 18.6761C14.1867 18.4696 14.3031 18.1896 14.3039 17.8975V11.6907C14.2011 11.8321 14.1014 11.98 14.0082 12.1311C13.757 12.4574 13.5456 12.8123 13.3782 13.1886ZM11.4239 2.65214L12.7996 4.14679H11.4239V2.65214Z"
              fill="#000" stroke="#000" stroke-width="0.5"/>
        <path id="Vector_4"
              d="M10.511 10.5207H3.56174C3.46967 10.5207 3.38138 10.5573 3.31628 10.6224C3.25117 10.6875 3.2146 10.7758 3.2146 10.8679C3.2146 10.9599 3.25117 11.0482 3.31628 11.1133C3.38138 11.1784 3.46967 11.215 3.56174 11.215H10.0514L10.511 10.5207Z"
              fill="#000" stroke="#000" stroke-width="0.5"/>
        <path id="Vector_5"
              d="M5.91781 16.6954C5.94031 16.8368 6.10746 16.8818 6.21674 16.9268C6.32603 16.9718 6.44817 16.8882 6.53817 16.8432C7.08138 16.5796 7.82388 16.8914 8.39603 16.8914C8.46678 16.8914 8.53464 16.8633 8.58467 16.8133C8.6347 16.7633 8.66281 16.6954 8.66281 16.6246C8.66281 16.5539 8.6347 16.486 8.58467 16.436C8.53464 16.386 8.46678 16.3579 8.39603 16.3579C7.71781 16.3579 7.15531 16.1843 6.46745 16.2968C6.46363 16.2384 6.44481 16.1819 6.41281 16.1329C6.37532 16.0487 6.31144 15.979 6.23083 15.9344C6.15023 15.8897 6.05727 15.8725 5.96603 15.8854C5.95693 15.8585 5.94508 15.8326 5.93067 15.8082C5.91246 15.778 5.88823 15.7518 5.85947 15.7314C5.83072 15.7109 5.79806 15.6966 5.76353 15.6893C5.86701 15.5539 5.9377 15.3964 5.97005 15.2291C6.0024 15.0617 5.99552 14.8892 5.94996 14.725C5.92656 14.6845 5.89278 14.6509 5.85211 14.6277C5.81144 14.6046 5.76533 14.5927 5.71853 14.5932C5.36495 14.5932 5.0596 14.9532 4.82817 15.1782C4.26396 15.7505 3.74189 16.3628 3.26603 17.0104C3.05388 17.2804 3.51996 17.5471 3.72567 17.2771C4.15677 16.7167 4.61817 16.1801 5.10781 15.67C4.98888 15.8661 4.86353 16.0589 4.73174 16.2421C4.5421 16.5346 4.9921 16.7854 5.19138 16.5121C5.23464 16.4441 5.29292 16.387 5.36174 16.345L5.32317 16.4414L5.29424 16.5057C5.17531 16.8046 5.61567 16.9396 5.78281 16.7114C5.82521 16.6524 5.86283 16.59 5.89531 16.525C5.89806 16.5823 5.90559 16.6393 5.91781 16.6954Z"
              fill="#000" stroke="#000" stroke-width="0.5"/>
        <path id="Vector_6"
              d="M16.6182 7.48001C16.6182 7.41572 16.4896 6.83715 15.6314 6.28108C14.7732 5.72501 14.2043 5.84072 14.14 5.85679C14.0555 5.87898 13.9822 5.93165 13.9343 6.00465L9.13211 13.3075C9.10265 13.3531 9.08396 13.4047 9.07747 13.4586L8.75604 16.1747C8.75098 16.2371 8.76259 16.2998 8.7897 16.3562C8.81681 16.4127 8.85844 16.461 8.91033 16.4961C8.96569 16.5292 9.02901 16.5467 9.09354 16.5467C9.15807 16.5467 9.22139 16.5292 9.27675 16.4961L11.6553 15.1429C11.7024 15.1167 11.7422 15.0791 11.771 15.0336L16.5635 7.72751C16.612 7.65472 16.6315 7.56644 16.6182 7.48001ZM10.2378 15.3614C10.1223 15.2552 9.99748 15.1595 9.86497 15.0754C9.73308 14.9892 9.59564 14.9119 9.45354 14.8439L9.54997 14.0307C10.1051 14.1718 10.5971 14.4942 10.9482 14.9468L10.2378 15.3614Z"
              fill="#000" stroke="#000" stroke-width="0.5"/>
    </g>
</svg>
