<svg width="19" height="20" viewBox="0 0 19 20" fill="none" xmlns="http://www.w3.org/2000/svg">
    <path d="M17.2099 19L12.7375 18.9994C12.3917 18.999 12.0603 18.8614 11.8158 18.6169C11.5713 18.3724 11.4338 18.0409 11.4334 17.6952V13.2234C11.4334 13.174 11.4137 13.1266 11.3788 13.0917C11.3439 13.0568 11.2965 13.0371 11.2471 13.037H8.26597C8.21657 13.0371 8.16921 13.0568 8.13428 13.0917C8.09935 13.1266 8.0797 13.174 8.07965 13.2234V17.6952C8.07925 18.0409 7.94174 18.3724 7.69727 18.6169C7.4528 18.8614 7.12134 18.999 6.77558 18.9994L2.30443 19C2.13314 19 1.96352 18.9663 1.80525 18.9008C1.64699 18.8353 1.50319 18.7392 1.38206 18.6181C1.26092 18.497 1.16484 18.3532 1.09928 18.1949C1.03373 18.0367 0.999993 17.867 1 17.6958V9.0821C1.00015 8.9004 1.03818 8.72074 1.11168 8.55457C1.18518 8.38841 1.29253 8.2394 1.42686 8.11706L8.87915 1.34109C9.11868 1.12171 9.4317 1.00002 9.75651 1C10.0813 0.999983 10.3944 1.12164 10.6339 1.341L18.0873 8.11711C18.2216 8.23946 18.3289 8.38847 18.4024 8.55463C18.4759 8.72079 18.514 8.90045 18.5142 9.08214V17.6958C18.5142 17.867 18.4804 18.0366 18.4149 18.1949C18.3494 18.3531 18.2533 18.4969 18.1322 18.618C18.0111 18.7391 17.8673 18.8352 17.709 18.9007C17.5508 18.9663 17.3812 19 17.2099 19ZM8.26597 11.9191H11.2471C11.5929 11.9195 11.9244 12.057 12.1689 12.3016C12.4134 12.5461 12.551 12.8776 12.5513 13.2234V17.6952C12.5514 17.7446 12.5711 17.7919 12.606 17.8268C12.6409 17.8618 12.6883 17.8814 12.7377 17.8815L17.2099 17.8821C17.2593 17.8821 17.3067 17.8624 17.3417 17.8275C17.3766 17.7926 17.3962 17.7452 17.3962 17.6958V9.08214C17.3962 9.05617 17.3908 9.03049 17.3802 9.00675C17.3697 8.983 17.3544 8.9617 17.3352 8.94422L9.8819 2.16821C9.84765 2.1369 9.80293 2.11954 9.75653 2.11955C9.71012 2.11956 9.6654 2.13693 9.63117 2.16825L2.17888 8.94427C2.1597 8.96174 2.14437 8.98303 2.13387 9.00676C2.12338 9.03049 2.11795 9.05615 2.11793 9.0821V17.6958C2.11794 17.7452 2.13757 17.7926 2.17251 17.8275C2.20745 17.8624 2.25483 17.8821 2.30425 17.8821L6.7754 17.8815C6.8248 17.8814 6.87215 17.8618 6.90708 17.8268C6.94201 17.7919 6.96166 17.7446 6.96172 17.6952V13.2234C6.96211 12.8776 7.09965 12.5461 7.34416 12.3016C7.58867 12.057 7.92018 11.9195 8.26597 11.9191Z"
          fill="#000" stroke="#000" stroke-width="0.8"/>
</svg>
