<svg width="24" height="24" viewBox="0 0 24 24" fill="none" xmlns="http://www.w3.org/2000/svg">
    <g id="&#240;&#159;&#166;&#134; icon &#34;help info line&#34;">
        <path id="Vector"
              d="M16.9267 16.9667C16.7789 16.8708 16.5992 16.8374 16.4269 16.8736C16.2545 16.9098 16.1034 17.0128 16.0067 17.16C15.0667 18.6 13.3401 20.3667 11.8001 20.96C10.2601 21.5534 9.0534 21.34 8.5734 20.96C8.36673 20.78 7.82673 20.2934 8.28673 18.6334C8.5934 17.5267 10.5001 12.3134 10.9534 11.0467L9.50007 11.2334C9.04007 12.4734 7.30673 17.1267 6.9934 18.2867C6.54007 19.9467 6.76673 21.1534 7.72007 21.9934C8.38618 22.4607 9.18694 22.6972 10.0001 22.6667C10.7891 22.6553 11.569 22.4971 12.3001 22.2C14.1601 21.4734 16.1134 19.4534 17.1401 17.8867C17.1866 17.8123 17.218 17.7295 17.2325 17.643C17.247 17.5564 17.2442 17.4679 17.2244 17.3824C17.2046 17.2969 17.1681 17.2162 17.117 17.1449C17.0659 17.0735 17.0013 17.013 16.9267 16.9667Z"
              fill="#000" stroke="#000" stroke-width="0.5"/>
        <path id="Vector_2"
              d="M12.8667 7.33331C13.46 7.33331 14.0401 7.15737 14.5334 6.82772C15.0268 6.49808 15.4113 6.02954 15.6383 5.48136C15.8654 4.93319 15.9248 4.32999 15.8091 3.74804C15.6933 3.1661 15.4076 2.63155 14.988 2.21199C14.5685 1.79244 14.0339 1.50671 13.452 1.39096C12.87 1.2752 12.2668 1.33461 11.7186 1.56168C11.1705 1.78874 10.7019 2.17326 10.3723 2.6666C10.0426 3.15995 9.8667 3.73997 9.8667 4.33331C9.8667 5.12896 10.1828 5.89202 10.7454 6.45463C11.308 7.01724 12.071 7.33331 12.8667 7.33331ZM12.8667 2.66665C13.1963 2.66665 13.5186 2.7644 13.7926 2.94753C14.0667 3.13067 14.2804 3.39096 14.4065 3.69551C14.5326 4.00005 14.5656 4.33516 14.5013 4.65846C14.437 4.98177 14.2783 5.27874 14.0452 5.51183C13.8121 5.74491 13.5152 5.90365 13.1918 5.96796C12.8685 6.03227 12.5334 5.99926 12.2289 5.87311C11.9244 5.74697 11.6641 5.53335 11.4809 5.25926C11.2978 4.98518 11.2 4.66295 11.2 4.33331C11.2 3.89129 11.3756 3.46736 11.6882 3.1548C12.0007 2.84224 12.4247 2.66665 12.8667 2.66665Z"
              fill="#000" stroke="#000" stroke-width="0.5"/>
        <path id="Vector_3"
              d="M7.87337 10C7.91337 10 12.0534 9.45336 13.0267 9.33336C13.46 9.26669 13.7867 9.33336 13.8934 9.43336C14 9.53336 14.0334 9.96669 13.8467 10.5534C13.44 11.7934 11.3867 17.8867 10.7867 19.6934C11.08 19.6332 11.3677 19.5485 11.6467 19.44C11.9136 19.3296 12.1702 19.1958 12.4134 19.04C13.2334 16.6667 14.7667 12.0667 15.1134 11.0134C15.46 9.96002 15.3734 9.16002 14.9134 8.61336C14.651 8.34729 14.3225 8.15582 13.9616 8.05859C13.6008 7.96135 13.2206 7.96185 12.86 8.06002C11.9067 8.16002 7.88004 8.68669 7.70671 8.72669C7.5299 8.74968 7.36946 8.84196 7.26069 8.98324C7.15191 9.12451 7.10372 9.30321 7.12671 9.48002C7.14969 9.65684 7.24197 9.81727 7.38325 9.92604C7.52453 10.0348 7.70323 10.083 7.88004 10.06L7.87337 10Z"
              fill="#000" stroke="#000" stroke-width="0.5"/>
    </g>
</svg>
