<svg width="20" height="20" viewBox="0 0 20 20" fill="none" xmlns="http://www.w3.org/2000/svg">
    <g id="&#240;&#159;&#166;&#134; icon &#34;shop&#34;">
        <path id="Vector"
              d="M1.73755 7.24384V16.4311C1.73755 17.446 2.56021 18.2686 3.57501 18.2686H16.4372C17.4521 18.2686 18.2747 17.446 18.2747 16.4311V7.24384"
              stroke="#000" stroke-width="1.8"/>
        <path id="Vector_2"
              d="M17.8016 1.73145H14.1343L14.5936 6.32509C14.5936 6.32509 15.5124 7.24382 16.8905 7.24382C17.8799 7.24382 18.5536 6.77017 18.855 6.50305C18.9751 6.39659 19.019 6.23406 18.9926 6.07576L18.3453 2.19206C18.301 1.92626 18.071 1.73145 17.8016 1.73145Z"
              stroke="#000" stroke-width="1.8"/>
        <path id="Vector_3"
              d="M14.1343 1.73145L14.5936 6.32509C14.5936 6.32509 13.6749 7.24382 12.2968 7.24382C10.9187 7.24382 10 6.32509 10 6.32509V1.73145H14.1343Z"
              stroke="#000" stroke-width="1.8"/>
        <path id="Vector_4"
              d="M10 1.73145V6.32509C10 6.32509 9.0813 7.24382 7.7032 7.24382C6.3251 7.24382 5.40637 6.32509 5.40637 6.32509L5.86574 1.73145H10Z"
              stroke="#000" stroke-width="1.8"/>
        <path id="Vector_5"
              d="M5.86573 1.73145H2.19841C1.92894 1.73145 1.69897 1.92626 1.65467 2.19206L1.00738 6.07577C0.981006 6.23406 1.02495 6.39659 1.14503 6.50305C1.4463 6.77017 2.12002 7.24382 3.10952 7.24382C4.48761 7.24382 5.40636 6.32509 5.40636 6.32509L5.86573 1.73145Z"
              stroke="#000" stroke-width="1.8"/>
    </g>
</svg>
