<svg width="24" height="22" viewBox="0 0 24 22" fill="none" xmlns="http://www.w3.org/2000/svg">
    <path fill-rule="evenodd" clip-rule="evenodd"
          d="M17.9371 4.50904C17.3524 4.50904 16.8785 4.98296 16.8785 5.56761C16.8785 6.15225 17.3524 6.62617 17.9371 6.62617C18.5217 6.62617 18.9956 6.15225 18.9956 5.56761C18.9956 4.98296 18.5217 4.50904 17.9371 4.50904ZM15.8199 5.56761C15.8199 4.39836 16.7678 3.45047 17.9371 3.45047C19.1063 3.45047 20.0542 4.39836 20.0542 5.56761C20.0542 6.73685 19.1063 7.68474 17.9371 7.68474C16.7678 7.68474 15.8199 6.73685 15.8199 5.56761Z"
          fill="#000" stroke="#000" stroke-width="0.5"/>
    <path fill-rule="evenodd" clip-rule="evenodd"
          d="M14.58 8.28061C14.8813 7.90397 15.3375 7.68469 15.8199 7.68469H18.9956C19.0366 7.68469 19.0773 7.68628 19.1177 7.68935H20.5255C20.77 7.68935 21.0412 7.78817 21.2761 7.91139C21.5274 8.04323 21.7991 8.23552 22.0506 8.48688C22.5565 8.99229 23 9.75753 23 10.7648C23 12.0039 22.5891 12.9091 22.0809 13.5106C21.8294 13.8082 21.5551 14.0304 21.2975 14.1811C21.2197 14.2267 21.1381 14.2688 21.0548 14.3048V20.3308C21.0548 21.0989 20.4285 21.7252 19.6604 21.7252C18.8922 21.7252 18.2659 21.0989 18.2659 20.3308V16.5343H17.5942V20.3308C17.5942 21.0989 16.9679 21.7252 16.1998 21.7252C15.4316 21.7252 14.8053 21.0989 14.8053 20.3308V13.0616C14.5112 13.3454 14.1167 13.5068 13.7028 13.5068H10.5271C9.65009 13.5068 8.93921 12.7959 8.93921 11.919C8.93921 11.042 9.65009 10.3311 10.5271 10.3311H12.9396L14.58 8.28061ZM15.8199 8.74326C15.6591 8.74326 15.507 8.81635 15.4066 8.9419L13.4484 11.3897H10.5271C10.2347 11.3897 9.99778 11.6266 9.99778 11.919C9.99778 12.2113 10.2347 12.4482 10.5271 12.4482H13.7028C13.8636 12.4482 14.0156 12.3752 14.1161 12.2496L15.8639 10.0648V20.3308C15.8639 20.5143 16.0163 20.6666 16.1998 20.6666C16.3833 20.6666 16.5356 20.5143 16.5356 20.3308V15.4758H19.3245V20.3308C19.3245 20.5143 19.4769 20.6666 19.6604 20.6666C19.8439 20.6666 19.9963 20.5143 19.9963 20.3308V13.3714H20.5255C20.5224 13.3714 20.5234 13.3712 20.5283 13.37C20.5479 13.3653 20.6291 13.3458 20.7629 13.2675C20.9147 13.1787 21.0969 13.0351 21.2722 12.8275C21.6177 12.4186 21.9414 11.7558 21.9414 10.7648C21.9414 10.091 21.6502 9.58313 21.3025 9.23576C21.1272 9.06072 20.9423 8.93169 20.7843 8.84875C20.6327 8.76925 20.5442 8.75178 20.5279 8.74855C20.5255 8.74808 20.5255 8.74792 20.5255 8.74792H19.0708L19.0461 8.74559C19.0296 8.74405 19.0128 8.74326 18.9956 8.74326H15.8199Z"
          fill="#000" stroke="#000" stroke-width="0.5"/>
    <path fill-rule="evenodd" clip-rule="evenodd"
          d="M1 0.27475H18.4664V3.00585H17.4078V1.33332H2.05857V14.0361H14.2321V15.0947H1V0.27475Z" fill="#000"
          stroke="#000" stroke-width="0.5"/>
    <path fill-rule="evenodd" clip-rule="evenodd" d="M19.994 13.8377V9.81119H21.0526V13.8377H19.994Z" fill="#000"
          stroke="#000" stroke-width="0.5"/>
</svg>
