<svg xmlns="http://www.w3.org/2000/svg" xmlns:inkscape="http://www.inkscape.org/namespaces/inkscape" version="1.1"
     width="841.89" height="595.28" viewBox="0 0 841.89 595.28">
<defs>
<clipPath id="clip_1">
<path transform="matrix(1,0,0,-1,0,595.28)" d="M0 595.28H841.89V0H0Z"/>
</clipPath>
</defs>
<g inkscape:groupmode="layer" inkscape:label="Layer 1">
<g clip-path="url(#clip_1)">
<path transform="matrix(1,0,0,-1,461.3252,372.39134)" d="M0 0C-8.028 .004-15.542 3.084-21.152 8.676-21.613 9.138-22.06 9.62-22.493 10.128-30.409 3.481-40.38 0-51.631-.003H-102.894C-110.495-.003-117.437 2.571-122.979 7.439-124.54 8.814-125.93 10.333-127.136 11.974-128.335 10.341-129.716 8.829-131.265 7.458-136.728 2.652-143.855 .007-151.35-.003L-186.161 0C-192.63 0-198.86 1.36-204.679 4.043-208.972 6.027-212.906 8.612-216.412 11.753-219.849 9.26-223.999 7.893-228.368 7.893H-246.163C-257.438 7.893-266.61 17.062-266.61 28.333V117.313C-266.61 128.587-257.438 137.758-246.163 137.758H-228.368C-223.964 137.758-219.788 136.371-216.338 133.842-212.396 137.293-207.878 140.064-202.88 142.091-197.142 144.399-191.104 145.568-184.919 145.568L-152.343 145.57C-146.133 145.568-140.081 144.395-134.354 142.082-128.751 139.815-123.712 136.601-119.368 132.526-119.146 132.318-118.926 132.105-118.705 131.889-115.071 135.464-110.802 138.49-105.987 140.899-99.779 143.994-92.806 145.565-85.252 145.57H-44.233C-36.889 145.542-30.125 143.112-24.654 138.546-23.706 137.757-22.814 136.914-21.983 136.02-21.703 136.328-21.416 136.628-21.124 136.92-15.526 142.491-8.022 145.562 .01 145.57 1.241 145.57 2.147 145.562 2.963 145.538L2.966 145.569C3.352 145.567 3.666 145.534 3.854 145.513L3.881 145.511C4.812 145.466 5.635 145.384 6.39 145.261 12.899 144.498 18.813 141.773 23.502 137.373 25.491 135.494 27.199 133.357 28.586 131.027 32.575 134.552 36.941 138.409 36.941 138.409 37.075 138.523 37.2 138.62 37.305 138.697 42.308 143.25 49.064 145.654 56.871 145.654 62.715 145.654 67.857 144.107 72.568 141.474 74.758 140.25 77.706 137.486 77.706 137.486 78.278 136.929 78.832 136.343 79.368 135.73 80.119 136.573 80.921 137.373 81.772 138.126 87.227 142.923 94.348 145.562 101.836 145.57L136.694 145.572C143.157 145.565 149.371 144.204 155.164 141.523 160.495 139.066 165.281 135.668 169.383 131.425 173.49 127.185 176.76 122.238 179.099 116.727 181.596 110.916 182.869 104.708 182.875 98.296L182.878 46.431C182.869 39.719 181.437 33.312 178.617 27.378 176.09 22.064 172.695 17.324 168.523 13.283 164.175 9.083 159.069 5.784 153.345 3.472 147.619 1.168 141.579 0 135.389-.003H102.813C96.615 .004 90.572 1.176 84.847 3.483 82.193 4.558 79.687 6.102 77.432 7.662L76.835 7.159 76.765 7.036 75.893 6.367 75.664 6.194C72.893 4.062 69.751 2.439 66.323 1.374 63.363 .474 60.388 .021 57.452 .021H57.308C51.38 .021 45.717 2.033 40.474 6.002 40.289 6.134 39.664 6.583 39.664 6.583 39.612 6.621 38.735 7.294 38.735 7.294L37.894 7.945 37.783 8.039C37.783 8.039 33.754 11.532 28.95 15.698 27.47 12.759 25.624 10.201 23.508 8.2 17.91 2.925 10.601 .013 2.921-.005H2.909Z" fill="#ffffff"/>
<path transform="matrix(1,0,0,-1,597.9971,232.00952)" d="M0 0H.012L.088-.001ZM41.014-42.091C41.009-36.388 39.877-30.87 37.647-25.683 35.564-20.771 32.637-16.341 28.979-12.564 25.335-8.795 21.072-5.762 16.313-3.569 11.209-1.208 5.72-.006 .012 0H-.014L-34.831-.001C-41.063-.008-46.964-2.189-51.459-6.143-53.834-8.244-55.691-10.742-57.033-13.496-57.702-12.448-59.247-10.559-59.247-10.559-59.465-10.274-60.85-8.492-60.85-8.492-65.775-2.604-72.503 .083-79.794 .082-85.95 .083-91.713-1.626-96.075-5.71-96.166-5.789-96.263-5.837-96.356-5.917-96.356-5.917-106.362-14.757-110.001-17.97-111.178-13.723-113.456-9.878-116.723-6.793-120.709-3.052-125.71-.858-131.006-.263-131.641-.154-132.319-.091-133.067-.055-133.293-.047-133.511-.004-133.734-.003-133.734-.003-133.566-.038-133.557-.04-134.448-.012-135.411-.001-136.656-.001-143.312-.01-149.515-2.544-154.13-7.137-156.006-9.008-157.44-11.186-158.606-13.498-160.041-10.585-162.06-7.977-164.653-5.82-169.175-2.046-174.803-.025-180.905-.001H-221.921C-228.667-.006-234.86-1.394-240.335-4.124-245.222-6.569-249.46-9.701-252.946-13.435-253.808-14.356-254.624-15.312-255.395-16.296-256.683-14.654-258.056-13.081-259.592-11.641-263.47-8.002-267.971-5.136-272.968-3.112-278.083-1.049-283.479-.004-289.013-.001L-321.571-.004C-327.103-.001-332.493-1.046-337.601-3.101-342.72-5.177-347.257-8.114-351.102-11.836-351.748-12.46-352.363-13.11-352.966-13.773-355.754-10.154-360.119-7.813-365.04-7.813H-382.834C-391.259-7.813-398.091-14.643-398.091-23.068V-112.049C-398.091-120.475-391.259-127.299-382.834-127.299H-365.04C-360.136-127.299-355.785-124.978-352.995-121.382-352.617-121.802-352.234-122.223-351.839-122.628-348.185-126.407-343.921-129.433-339.177-131.626-334.037-133.995-328.546-135.191-322.832-135.191L-288.028-135.194C-281.783-135.186-275.88-132.999-271.377-129.038-267.357-125.479-264.772-120.801-263.806-115.565-262.839-120.827-260.24-125.505-256.226-129.042-251.64-133.072-245.88-135.196-239.565-135.194H-188.304C-176.737-135.191-166.726-131.083-159.359-123.32-159.006-122.945-158.697-122.537-158.362-122.151-157.237-124.273-155.898-126.29-154.161-128.029-149.522-132.651-143.312-135.188-136.663-135.191L-133.764-135.196C-127.39-135.182-121.36-132.773-116.729-128.409-113.263-125.132-111.096-120.368-109.986-115.847-103.186-121.749-95.489-128.42-95.489-128.42L-94.774-128.972C-94.774-128.972-93.953-129.603-93.905-129.639-93.867-129.666-93.122-130.198-93.122-130.198L-93.274-130.082C-88.875-133.473-84.171-135.188-79.29-135.171-76.877-135.179-74.353-134.802-71.89-134.051-69.035-133.163-66.451-131.831-64.154-130.06L-63.906-129.872-63.896-129.854-60.601-127.081-60.424-126.921C-60.124-126.648-59.86-126.354-59.574-126.07-56.657-128.232-53.309-130.697-49.886-132.084-44.771-134.145-39.383-135.188-33.857-135.194H-1.286C4.238-135.191 9.627-134.149 14.729-132.097 19.855-130.026 24.388-127.092 28.24-123.371 31.966-119.762 34.997-115.529 37.257-110.777 39.743-105.542 41.009-99.881 41.016-93.952 41.016-94.044 41.014-42.091 41.014-42.091" fill="#0b2f87"/>
<path transform="matrix(1,0,0,-1,215.5479,324.09455)" d="M0 0H-.41C-.897 0-1.315-.175-1.604-.511-1.88-.824-2.027-1.219-2.027-1.687V-8.048C-2.027-8.665-1.896-9.255-1.653-9.807-1.873-10.058-2.027-10.358-2.027-10.729V-11.307C-2.027-11.644-1.9-11.959-1.643-12.257-1.371-12.564-.994-12.73-.557-12.73H2.795 6.99 15.404C15.88-12.73 16.301-12.559 16.616-12.244 16.93-11.926 17.1-11.513 17.1-11.026V-10.501C17.1-10.058 16.935-9.65 16.623-9.327 16.306-8.989 15.88-8.81 15.404-8.81H3.457C3.431-8.81 3.416-8.81 3.401-8.815 2.813-8.81 2.387-8.665 2.075-8.359 1.774-8.072 1.622-7.586 1.622-6.909V-1.687C1.622-1.219 1.476-.824 1.198-.511 .9-.169 .492 0 0 0M11.917 57.859C12.35 57.859 12.707 57.716 13.007 57.415 13.311 57.115 13.452 56.762 13.452 56.323V51.475C13.452 51.042 13.311 50.7 13.017 50.411 12.712 50.124 12.355 49.979 11.917 49.979H3.158C2.72 49.979 2.367 50.124 2.068 50.424 1.764 50.724 1.622 51.079 1.622 51.504V56.323C1.622 56.762 1.764 57.115 2.063 57.415 2.367 57.716 2.72 57.859 3.158 57.859ZM.846 61.388C.274 61.136-.233 60.77-.659 60.313-1.084 59.863-1.421 59.329-1.663 58.742-1.906 58.146-2.027 57.512-2.027 56.863V50.978C-2.027 50.328-1.906 49.698-1.663 49.099-1.421 48.504-1.08 47.976-.651 47.533-.233 47.099 .274 46.734 .836 46.469 1.415 46.199 2.048 46.056 2.712 46.056H12.287C12.938 46.056 13.569 46.175 14.152 46.427 14.74 46.662 15.252 47.009 15.688 47.436 16.114 47.862 16.458 48.373 16.711 48.948 16.968 49.536 17.1 50.172 17.1 50.832V57.013C17.1 57.674 16.968 58.297 16.709 58.873 16.458 59.432 16.114 59.937 15.688 60.373 15.257 60.794 14.745 61.136 14.167 61.395 13.579 61.651 12.941 61.783 12.287 61.783H2.712C2.053 61.783 1.43 61.651 .846 61.388M11.917 28.883C12.35 28.883 12.707 28.735 13.007 28.437 13.311 28.138 13.452 27.783 13.452 27.353V22.503C13.452 22.07 13.311 21.723 13.017 21.435 12.712 21.146 12.355 21.004 11.917 21.004H3.158C2.72 21.004 2.367 21.146 2.068 21.454 1.764 21.747 1.622 22.104 1.622 22.539V27.353C1.622 27.783 1.764 28.138 2.063 28.437 2.367 28.735 2.72 28.883 3.158 28.883ZM-9.625 31.365V30.837C-9.625 30.363-9.451 29.95-9.139 29.631-8.814 29.307-8.399 29.141-7.93 29.141H-1.847C-1.954 28.731-2.027 28.306-2.027 27.88V22.011C-2.027 21.352-1.906 20.716-1.663 20.127-1.421 19.526-1.08 19.004-.651 18.561-.233 18.122 .274 17.769 .836 17.486 1.415 17.219 2.048 17.076 2.712 17.076H12.287C12.938 17.076 13.569 17.208 14.152 17.444 14.74 17.685 15.252 18.031 15.688 18.457 16.114 18.892 16.458 19.393 16.711 19.981 16.968 20.564 17.1 21.194 17.1 21.848V28.041C17.1 28.66 16.97 29.26 16.737 29.812 16.96 30.105 17.1 30.441 17.1 30.837V31.365C17.1 31.816 16.935 32.224 16.623 32.548 16.306 32.883 15.88 33.063 15.404 33.063H-7.93C-8.409 33.063-8.83 32.883-9.144 32.548-9.458 32.213-9.625 31.811-9.625 31.365M-2.012 39.838V39.305C-2.012 38.831-1.847 38.418-1.528 38.099-1.209 37.773-.791 37.612-.314 37.612H15.404C15.875 37.612 16.301 37.773 16.616 38.092 16.93 38.411 17.1 38.831 17.1 39.305V39.838C17.1 40.283 16.935 40.69 16.623 41.016 16.306 41.351 15.88 41.531 15.404 41.531H-.314C-.796 41.531-1.216 41.351-1.536 41.016-1.847 40.684-2.012 40.283-2.012 39.838M11.957 10.716C12.389 10.716 12.733 10.572 13.019 10.278 13.318 9.984 13.452 9.637 13.452 9.229V4.266C13.452 3.856 13.318 3.508 13.019 3.211 12.733 2.919 12.389 2.77 11.957 2.77H9.326V10.716ZM-.588 13.238C-1.021 12.812-1.373 12.313-1.637 11.76-1.896 11.196-2.027 10.59-2.027 9.953V3.594C-2.027 3.125-1.88 2.73-1.599 2.411-1.315 2.081-.897 1.901-.41 1.901H0C.492 1.901 .9 2.081 1.198 2.418 1.476 2.73 1.622 3.125 1.622 3.594V8.82C1.622 9.485 1.774 9.979 2.075 10.266 2.393 10.572 2.818 10.716 3.384 10.716H5.834V1.606C5.834 .894 6.057 .264 6.482-.278 6.954-.86 7.684-1.147 8.666-1.147H12.355C13.019-1.147 13.645-1.015 14.226-.765 14.791-.506 15.303-.142 15.733 .311 16.159 .768 16.489 1.295 16.737 1.89 16.975 2.489 17.1 3.119 17.1 3.767V9.721C17.1 10.375 16.975 11.003 16.737 11.604 16.489 12.199 16.154 12.726 15.724 13.165 15.303 13.603 14.801 13.963 14.238 14.227 13.655 14.504 13.022 14.634 12.363 14.634H2.864C2.205 14.634 1.571 14.508 .973 14.257 .38 14.005-.146 13.661-.588 13.238" fill="#ffffff"/>
<path transform="matrix(1,0,0,-1,529.0811,333.47535)" d="M0 0C-.14 .125-29.798 25.264-40.178 34.313L-2.844 67.268C.52 70.114 1.247 73.235 1.255 75.34 1.255 77.571 .396 79.728-1.22 81.584-1.135 81.486-3.003 83.772-3.003 83.772-5.781 87.089-8.868 87.779-10.976 87.776-13.557 87.779-15.843 86.902-17.577 85.238-17.482 85.326-42.193 63.494-54.561 52.573L-54.559 76.781C-54.563 79.722-55.66 82.298-57.731 84.251-59.744 86.145-62.229 87.139-64.921 87.139-64.927 87.142-67.836 87.143-67.836 87.143-70.718 87.14-73.272 86.112-75.219 84.171-77.17 82.227-78.199 79.676-78.204 76.788V-9.069C-78.209-11.95-77.186-14.502-75.233-16.454-73.28-18.397-70.728-19.429-67.849-19.429L-64.934-19.435C-62.225-19.424-59.739-18.428-57.736-16.545-55.659-14.583-54.563-12-54.563-9.068-54.563-9.074-54.563 6.354-54.561 16.359L-17.222-16.038-17.04-16.2-16.837-16.33C-16.391-16.639-15.964-16.94-15.544-17.263-13.684-18.694-12.024-19.379-10.351-19.371-9.289-19.373-8.179-19.209-7.084-18.874-5.903-18.504-4.838-17.959-3.896-17.234-3.754-17.109-1.053-14.832-1.053-14.832 1.437-12.576 2.699-9.86 2.694-6.9 2.694-5.297 2.379-3.843 1.73-2.541 1.143-1.382 .61-.597 0 0M-93.979 21.856C-93.979 29.335-96.363 35.116-101.064 39.034-105.556 42.772-110.771 44.665-116.583 44.666L-149.993 44.668C-153.679 44.667-154.937 46.147-155.349 46.626-156.637 48.149-157.265 49.544-157.265 50.892L-157.263 58.563C-157.265 61.26-156.271 62.531-155.523 63.253-154.317 64.406-152.315 64.994-149.571 64.993H-111.987C-109.353 64.993-106.997 65.833-104.997 67.492-102.788 69.332-101.627 71.9-101.627 74.927V77.203C-101.632 80.24-102.793 82.808-104.982 84.63-106.979 86.296-109.407 87.143-112.196 87.145-112.198 87.145-153.101 87.147-153.101 87.147-157.606 87.146-161.651 86.265-165.124 84.53-168.47 82.858-171.344 80.749-173.665 78.261-176.007 75.766-177.821 72.963-179.048 69.942-180.28 66.901-180.908 64.041-180.908 61.437-180.908 61.434-180.911 48.574-180.911 48.574-180.905 44.946-180.193 41.519-178.789 38.378-177.386 35.26-175.548 32.591-173.314 30.445-171.08 28.292-168.446 26.579-165.499 25.349-162.519 24.113-159.467 23.478-156.441 23.479L-122.409 23.477C-120.854 23.477-120.138 23.203-119.907 23.087-119.353 22.81-118.939 22.484-118.628 22.083-118.272 21.62-118.034 21.146-117.905 20.65-117.716 19.946-117.619 19.298-117.624 18.71V10.413C-117.624 9.578-117.74 8.594-117.959 7.479-118.146 6.547-118.46 5.719-118.917 4.94-119.337 4.232-119.86 3.649-120.528 3.146-120.892 2.87-121.558 2.723-122.403 2.722-122.409 2.722-170.763 2.728-170.763 2.728-173.556 2.729-176.05 1.829-177.969 .131-180.031-1.679-181.126-4.221-181.126-7.205V-9.484C-181.126-12.473-180.031-15.014-177.958-16.839-176.007-18.554-173.584-19.424-170.761-19.421L-119.495-19.429C-111.843-19.429-105.596-16.933-100.933-12.014-96.317-7.159-93.979-.44-93.976 7.954ZM69.814 4.756C68.38 3.363 66.786 2.711 64.822 2.714L37.679 2.717C35.712 2.714 34.125 3.366 32.681 4.763 31.284 6.119 30.628 7.714 30.628 9.778V23.041L71.878 23.039 71.873 9.766C71.873 7.712 71.224 6.12 69.814 4.756M95.517 7.508 95.519 59.354C95.517 63.091 94.776 66.71 93.313 70.11 91.895 73.446 89.943 76.417 87.515 78.922 85.097 81.425 82.281 83.429 79.134 84.88 75.907 86.377 72.433 87.134 68.801 87.134H33.985C31.209 87.132 28.722 86.242 26.804 84.555 24.726 82.715 23.638 80.173 23.638 77.196V74.925C23.644 71.927 24.732 69.386 26.796 67.57 28.744 65.854 31.165 64.981 33.991 64.981 33.985 64.981 62.556 64.98 62.556 64.98 65.927 64.979 68.343 64.255 69.729 62.821 71.173 61.333 71.878 59.254 71.878 56.469 71.878 56.469 71.873 49.081 71.873 44.23H23.146C19.01 44.23 15.315 42.945 12.157 40.412 8.726 37.673 6.981 33.374 6.987 27.646L6.981 7.523C6.981 3.774 7.732 .201 9.217-3.095 10.68-6.346 12.74-9.229 15.34-11.672 17.926-14.095 20.937-16.01 24.29-17.368 27.688-18.742 31.277-19.435 34.962-19.437 34.967-19.437 67.524-19.442 67.524-19.442 71.209-19.437 74.803-18.744 78.199-17.379 81.59-16.005 84.581-14.076 87.104-11.636 89.588-9.229 91.621-6.386 93.145-3.182 94.718 .12 95.514 3.715 95.517 7.508M-257.1 44.677V57.945C-257.103 60.007-256.448 61.597-255.044 62.959-253.604 64.351-252.019 65.003-250.046 65.002L-222.905 65C-220.937 65-219.35 64.349-217.907 62.953-216.506 61.592-215.858 60-215.853 57.938-215.853 57.938-215.854 49.819-215.858 44.674ZM-192.214 60.192C-192.21 63.938-192.958 67.509-194.442 70.81-195.903 74.062-197.968 76.942-200.569 79.388-203.149 81.807-206.159 83.725-209.521 85.083-212.917 86.455-216.511 87.149-220.199 87.149L-252.756 87.154C-256.437 87.152-260.027 86.46-263.429 85.092-266.817 83.72-269.81 81.787-272.329 79.351-274.817 76.939-276.853 74.093-278.37 70.897-279.942 67.585-280.743 63.988-280.743 60.207L-280.748 8.361C-280.748 4.638-280.009 1.016-278.548-2.395-277.114-5.746-275.165-8.709-272.744-11.213-270.321-13.711-267.503-15.717-264.36-17.171-261.124-18.663-257.646-19.417-254.025-19.417L-219.216-19.421C-216.431-19.417-213.944-18.529-212.025-16.839-209.958-15.009-208.868-12.473-208.868-9.48L-208.864-7.21C-208.864-4.228-209.958-1.691-212.019 .138-213.972 1.852-216.388 2.729-219.213 2.733H-247.786C-251.151 2.733-253.569 3.458-254.956 4.89-256.397 6.385-257.1 8.462-257.103 11.247-257.103 11.247-257.097 18.63-257.097 23.484L-208.376 23.483C-204.235 23.488-200.539 24.771-197.392 27.305-193.961 30.041-192.214 34.339-192.214 40.064Z" fill="#fb6c00"/>
</g>
</g>
</svg>
