<!--?xml version="1.0" standalone="no"?-->
              <svg id="sw-js-blob-svg" viewBox="0 0 100 100" xmlns="http://www.w3.org/2000/svg" version="1.1">
                    <defs> 
                        <linearGradient id="sw-gradient" x1="0" x2="1" y1="1" y2="0">
                            <stop id="stop1" stop-color="rgba(221.206, 186.29, 169.765, 1)" offset="0%"></stop>
                            <stop id="stop2" stop-color="rgba(221.206, 174.609, 137.387, 1)" offset="100%"></stop>
                        </linearGradient>
                    </defs>
                <path fill="url(#sw-gradient)" d="M23.4,-32C31.1,-26.5,38.7,-20.8,41.4,-13.3C44,-5.8,41.6,3.5,38.4,12.2C35.2,20.9,31.1,29.1,24.6,34.7C18.1,40.3,9,43.4,0.2,43.1C-8.7,42.9,-17.4,39.4,-23.7,33.7C-29.9,28.1,-33.7,20.1,-36.7,11.7C-39.6,3.4,-41.7,-5.4,-40.1,-13.9C-38.5,-22.3,-33.2,-30.4,-25.9,-35.9C-18.6,-41.5,-9.3,-44.6,-0.7,-43.6C7.8,-42.5,15.6,-37.4,23.4,-32Z" width="100%" height="100%" transform="translate(50 50)" stroke-width="0" style="transition: all 0.3s ease 0s;"></path>
              </svg>