<svg id="hall-svg" width="765" height="1220" viewBox="0 0 765 1220" xmlns="http://www.w3.org/2000/svg" style="background:white; border-radius: 4px;"><rect x="623" y="1091" width="78" height="78" rx="5" ry="5" fill="#f2f4f2" stroke="#8ba38d" stroke-width="0.5"></rect><text x="662" y="1133.9" text-anchor="middle" font-size="13" fill="#444" font-family="Arial"><tspan x="662" dy="0">Wejście</tspan></text><rect x="25" y="25" width="169" height="78" rx="5" ry="5" fill="#f2f4f2" stroke="#8ba38d" stroke-width="0.5"></rect><text x="109.5" y="67.9" text-anchor="middle" font-size="13" fill="#444" font-family="Arial"><tspan x="109.5" dy="0">Wejście dla wystawców</tspan></text><rect x="194" y="25" width="91" height="78" rx="5" ry="5" fill="#cfe1cf" stroke="#8ba38d" stroke-width="0.5"></rect><text x="239.5" y="61.4" text-anchor="middle" font-size="13" font-weight="bold" fill="#333" font-family="Arial">S1</text><text x="239.5" y="74.4" text-anchor="middle" font-size="13" fill="#444" font-family="Arial"><tspan x="239.5" dy="0">Lusia Knits</tspan></text><rect x="285" y="25" width="91" height="78" rx="5" ry="5" fill="#deeadb" stroke="#8ba38d" stroke-width="0.5"></rect><text x="330.5" y="61.4" text-anchor="middle" font-size="13" font-weight="bold" fill="#333" font-family="Arial">S2</text><text x="330.5" y="74.4" text-anchor="middle" font-size="13" fill="#444" font-family="Arial"><tspan x="330.5" dy="0">Biferno</tspan></text><rect x="376" y="25" width="91" height="78" rx="5" ry="5" fill="#cfe1cf" stroke="#8ba38d" stroke-width="0.5"></rect><text x="421.5" y="61.4" text-anchor="middle" font-size="13" font-weight="bold" fill="#333" font-family="Arial">S3</text><text x="421.5" y="74.4" text-anchor="middle" font-size="13" fill="#444" font-family="Arial"><tspan x="421.5" dy="0">Biferno</tspan></text><rect x="467" y="25" width="91" height="78" rx="5" ry="5" fill="#deeadb" stroke="#8ba38d" stroke-width="0.5"></rect><text x="512.5" y="41.9" text-anchor="middle" font-size="13" font-weight="bold" fill="#333" font-family="Arial">S4</text><text x="512.5" y="54.9" text-anchor="middle" font-size="13" fill="#444" font-family="Arial"><tspan x="512.5" dy="0">Luka</tspan><tspan x="512.5" dy="1.1em">Ceramika &amp;</tspan><tspan x="512.5" dy="1.1em">Paciorkowce</tspan><tspan x="512.5" dy="1.1em">i Wisielce</tspan></text><rect x="558" y="25" width="143" height="78" rx="5" ry="5" fill="#b2d8b7" stroke="#8ba38d" stroke-width="0.5"></rect><text x="629.5" y="61.4" text-anchor="middle" font-size="13" font-weight="bold" fill="#333" font-family="Arial">P1</text><text x="629.5" y="74.4" text-anchor="middle" font-size="13" fill="#444" font-family="Arial"><tspan x="629.5" dy="0">Dye Dye Done</tspan></text><rect x="623" y="168" width="78" height="143" rx="5" ry="5" fill="#b2d8b7" stroke="#8ba38d" stroke-width="0.5"></rect><text x="662" y="236.9" text-anchor="middle" font-size="13" font-weight="bold" fill="#333" font-family="Arial">P2</text><text x="662" y="249.9" text-anchor="middle" font-size="13" fill="#444" font-family="Arial"><tspan x="662" dy="0">Strikke</tspan></text><rect x="623" y="311" width="78" height="91" rx="5" ry="5" fill="#cfe1cf" stroke="#8ba38d" stroke-width="0.5"></rect><text x="662" y="347.4" text-anchor="middle" font-size="13" font-weight="bold" fill="#333" font-family="Arial">S5</text><text x="662" y="360.4" text-anchor="middle" font-size="13" fill="#444" font-family="Arial"><tspan x="662" dy="0">Wełna</tspan><tspan x="662" dy="1.1em">Bawełna</tspan></text><rect x="623" y="402" width="78" height="91" rx="5" ry="5" fill="#deeadb" stroke="#8ba38d" stroke-width="0.5"></rect><text x="662" y="438.4" text-anchor="middle" font-size="13" font-weight="bold" fill="#333" font-family="Arial">S6</text><text x="662" y="451.4" text-anchor="middle" font-size="13" fill="#444" font-family="Arial"><tspan x="662" dy="0">Wełna</tspan><tspan x="662" dy="1.1em">Bawełna</tspan></text><rect x="623" y="493" width="78" height="91" rx="5" ry="5" fill="#cfe1cf" stroke="#8ba38d" stroke-width="0.5"></rect><text x="662" y="529.4" text-anchor="middle" font-size="13" font-weight="bold" fill="#333" font-family="Arial">S7</text><text x="662" y="542.4" text-anchor="middle" font-size="13" fill="#444" font-family="Arial"><tspan x="662" dy="0">Time to</tspan><tspan x="662" dy="1.1em">Knit</tspan></text><rect x="623" y="584" width="78" height="91" rx="5" ry="5" fill="#deeadb" stroke="#8ba38d" stroke-width="0.5"></rect><text x="662" y="626.9" text-anchor="middle" font-size="13" font-weight="bold" fill="#333" font-family="Arial">S8</text><text x="662" y="639.9" text-anchor="middle" font-size="13" fill="#444" font-family="Arial"><tspan x="662" dy="0">Kokonki</tspan></text><rect x="623" y="675" width="78" height="91" rx="5" ry="5" fill="#cfe1cf" stroke="#8ba38d" stroke-width="0.5"></rect><text x="662" y="717.9" text-anchor="middle" font-size="13" font-weight="bold" fill="#333" font-family="Arial">S9</text><text x="662" y="730.9" text-anchor="middle" font-size="13" fill="#444" font-family="Arial"><tspan x="662" dy="0">Kokonki</tspan></text><rect x="623" y="766" width="78" height="91" rx="5" ry="5" fill="#deeadb" stroke="#8ba38d" stroke-width="0.5"></rect><text x="662" y="802.4" text-anchor="middle" font-size="13" font-weight="bold" fill="#333" font-family="Arial">S10</text><text x="662" y="815.4" text-anchor="middle" font-size="13" fill="#444" font-family="Arial"><tspan x="662" dy="0">Martin's</tspan><tspan x="662" dy="1.1em">Lab</tspan></text><rect x="623" y="857" width="78" height="143" rx="5" ry="5" fill="#b2d8b7" stroke="#8ba38d" stroke-width="0.5"></rect><text x="662" y="925.9" text-anchor="middle" font-size="13" font-weight="bold" fill="#333" font-family="Arial">P3</text><text x="662" y="938.9" text-anchor="middle" font-size="13" fill="#444" font-family="Arial"><tspan x="662" dy="0">Liloppi</tspan></text><rect x="532" y="1091" width="91" height="78" rx="5" ry="5" fill="#cfe1cf" stroke="#8ba38d" stroke-width="0.5"></rect><text x="577.5" y="1127.4" text-anchor="middle" font-size="13" font-weight="bold" fill="#333" font-family="Arial">S11</text><text x="577.5" y="1140.4" text-anchor="middle" font-size="13" fill="#444" font-family="Arial"><tspan x="577.5" dy="0">Gabo Wool</tspan></text><rect x="25" y="1065" width="78" height="104" rx="5" ry="5" fill="#ebf2ea" stroke="#8ba38d" stroke-width="0.5"></rect><text x="64" y="1101.4" text-anchor="middle" font-size="13" font-weight="bold" fill="#333" font-family="Arial">C1</text><text x="64" y="1114.4" text-anchor="middle" font-size="13" fill="#444" font-family="Arial"><tspan x="64" dy="0">Centrum</tspan><tspan x="64" dy="1.1em">Włóczek</tspan><tspan x="64" dy="1.1em">Bafpol</tspan></text><rect x="103" y="1091" width="91" height="78" rx="5" ry="5" fill="#cfe1cf" stroke="#8ba38d" stroke-width="0.5"></rect><text x="148.5" y="1114.4" text-anchor="middle" font-size="13" font-weight="bold" fill="#333" font-family="Arial">S15</text><text x="148.5" y="1127.4" text-anchor="middle" font-size="13" fill="#444" font-family="Arial"><tspan x="148.5" dy="0">Centrum</tspan><tspan x="148.5" dy="1.1em">Włóczek</tspan><tspan x="148.5" dy="1.1em">Bafpol</tspan></text><rect x="194" y="1091" width="91" height="78" rx="5" ry="5" fill="#deeadb" stroke="#8ba38d" stroke-width="0.5"></rect><text x="239.5" y="1127.4" text-anchor="middle" font-size="13" font-weight="bold" fill="#333" font-family="Arial">S14</text><text x="239.5" y="1140.4" text-anchor="middle" font-size="13" fill="#444" font-family="Arial"><tspan x="239.5" dy="0">Brioszka</tspan></text><rect x="285" y="1091" width="91" height="78" rx="5" ry="5" fill="#cfe1cf" stroke="#8ba38d" stroke-width="0.5"></rect><text x="330.5" y="1127.4" text-anchor="middle" font-size="13" font-weight="bold" fill="#333" font-family="Arial">S13</text><text x="330.5" y="1140.4" text-anchor="middle" font-size="13" fill="#444" font-family="Arial"><tspan x="330.5" dy="0">Brioszka</tspan></text><rect x="376" y="1091" width="65" height="78" rx="5" ry="5" fill="#f2f4f2" stroke="#8ba38d" stroke-width="0.5"></rect><text x="408.5" y="1127.4" text-anchor="middle" font-size="13" fill="#444" font-family="Arial"><tspan x="408.5" dy="0">Do</tspan><tspan x="408.5" dy="1.1em">toalet</tspan></text><rect x="441" y="1091" width="91" height="78" rx="5" ry="5" fill="#deeadb" stroke="#8ba38d" stroke-width="0.5"></rect><text x="486.5" y="1127.4" text-anchor="middle" font-size="13" font-weight="bold" fill="#333" font-family="Arial">S12</text><text x="486.5" y="1140.4" text-anchor="middle" font-size="13" fill="#444" font-family="Arial"><tspan x="486.5" dy="0">Gabo Wool</tspan></text><rect x="38" y="168" width="78" height="143" rx="5" ry="5" fill="#b2d8b7" stroke="#8ba38d" stroke-width="0.5"></rect><text x="77" y="236.9" text-anchor="middle" font-size="13" font-weight="bold" fill="#333" font-family="Arial">P5</text><text x="77" y="249.9" text-anchor="middle" font-size="13" fill="#444" font-family="Arial"><tspan x="77" dy="0">Motkomania</tspan></text><rect x="38" y="311" width="78" height="91" rx="5" ry="5" fill="#deeadb" stroke="#8ba38d" stroke-width="0.5"></rect><text x="77" y="353.96000000000004" text-anchor="middle" font-size="12.7" font-weight="bold" fill="#333" font-family="Arial">S21</text><text x="77" y="366.66" text-anchor="middle" font-size="12.7" fill="#444" font-family="Arial"><tspan x="77" dy="0">WoolMorning</tspan></text><rect x="38" y="402" width="78" height="91" rx="5" ry="5" fill="#cfe1cf" stroke="#8ba38d" stroke-width="0.5"></rect><text x="77" y="444.9" text-anchor="middle" font-size="13" font-weight="bold" fill="#333" font-family="Arial">S20</text><text x="77" y="457.9" text-anchor="middle" font-size="13" fill="#444" font-family="Arial"><tspan x="77" dy="0">Yarnpower</tspan></text><rect x="38" y="493" width="78" height="91" rx="5" ry="5" fill="#deeadb" stroke="#8ba38d" stroke-width="0.5"></rect><text x="77" y="536.38" text-anchor="middle" font-size="10.599999999999994" font-weight="bold" fill="#333" font-family="Arial">S19</text><text x="77" y="546.98" text-anchor="middle" font-size="10.599999999999994" fill="#444" font-family="Arial"><tspan x="77" dy="0">Dziergaweczki</tspan></text><rect x="38" y="584" width="78" height="91" rx="5" ry="5" fill="#cfe1cf" stroke="#8ba38d" stroke-width="0.5"></rect><text x="77" y="620.4" text-anchor="middle" font-size="13" font-weight="bold" fill="#333" font-family="Arial">S18</text><text x="77" y="633.4" text-anchor="middle" font-size="13" fill="#444" font-family="Arial"><tspan x="77" dy="0">Miss</tspan><tspan x="77" dy="1.1em">Knitski</tspan></text><rect x="38" y="675" width="78" height="91" rx="5" ry="5" fill="#deeadb" stroke="#8ba38d" stroke-width="0.5"></rect><text x="77" y="717.9" text-anchor="middle" font-size="13" font-weight="bold" fill="#333" font-family="Arial">S17</text><text x="77" y="730.9" text-anchor="middle" font-size="13" fill="#444" font-family="Arial"><tspan x="77" dy="0">Pimotki</tspan></text><rect x="38" y="766" width="78" height="91" rx="5" ry="5" fill="#cfe1cf" stroke="#8ba38d" stroke-width="0.5"></rect><text x="77" y="808.9" text-anchor="middle" font-size="13" font-weight="bold" fill="#333" font-family="Arial">S16</text><text x="77" y="821.9" text-anchor="middle" font-size="13" fill="#444" font-family="Arial"><tspan x="77" dy="0">Pimotki</tspan></text><rect x="38" y="857" width="78" height="13" rx="5" ry="5" fill="#f2f4f2" stroke="#8ba38d" stroke-width="0.5"></rect><rect x="38" y="870" width="78" height="143" rx="5" ry="5" fill="#b2d8b7" stroke="#8ba38d" stroke-width="0.5"></rect><text x="77" y="938.9599999999999" text-anchor="middle" font-size="12.7" font-weight="bold" fill="#333" font-family="Arial">P4</text><text x="77" y="951.66" text-anchor="middle" font-size="12.7" fill="#444" font-family="Arial"><tspan x="77" dy="0">Włóczykijki</tspan></text><rect x="220" y="220" width="52" height="78" rx="5" ry="5" fill="#bedec2" stroke="#8ba38d" stroke-width="0.5"></rect><text x="246" y="257.18" text-anchor="middle" font-size="9.09999999999999" font-weight="bold" fill="#333" font-family="Arial">M1</text><text x="246" y="266.28" text-anchor="middle" font-size="9.09999999999999" fill="#444" font-family="Arial"><tspan x="246" dy="0">Włóczkotki</tspan></text><rect x="220" y="298" width="52" height="78" rx="5" ry="5" fill="#d6e6d1" stroke="#8ba38d" stroke-width="0.5"></rect><text x="246" y="334.4" text-anchor="middle" font-size="13" font-weight="bold" fill="#333" font-family="Arial">M2</text><text x="246" y="347.4" text-anchor="middle" font-size="13" fill="#444" font-family="Arial"><tspan x="246" dy="0">Mokosza</tspan></text><rect x="220" y="376" width="52" height="78" rx="5" ry="5" fill="#bedec2" stroke="#8ba38d" stroke-width="0.5"></rect><text x="246" y="399.4" text-anchor="middle" font-size="13" font-weight="bold" fill="#333" font-family="Arial">M3</text><text x="246" y="412.4" text-anchor="middle" font-size="13" fill="#444" font-family="Arial"><tspan x="246" dy="0">Winter</tspan><tspan x="246" dy="1.1em">Bee</tspan><tspan x="246" dy="1.1em">Candle</tspan></text><rect x="363" y="220" width="78" height="91" rx="5" ry="5" fill="#deeadb" stroke="#8ba38d" stroke-width="0.5"></rect><text x="402" y="256.4" text-anchor="middle" font-size="13" font-weight="bold" fill="#333" font-family="Arial">S22</text><text x="402" y="269.4" text-anchor="middle" font-size="13" fill="#444" font-family="Arial"><tspan x="402" dy="0">Mila</tspan><tspan x="402" dy="1.1em">Druciarnia</tspan></text><rect x="441" y="220" width="78" height="91" rx="5" ry="5" fill="#cfe1cf" stroke="#8ba38d" stroke-width="0.5"></rect><text x="480" y="256.4" text-anchor="middle" font-size="13" font-weight="bold" fill="#333" font-family="Arial">S23</text><text x="480" y="269.4" text-anchor="middle" font-size="13" fill="#444" font-family="Arial"><tspan x="480" dy="0">Sama se</tspan><tspan x="480" dy="1.1em">uszyj</tspan></text><rect x="363" y="311" width="78" height="91" rx="5" ry="5" fill="#cfe1cf" stroke="#8ba38d" stroke-width="0.5"></rect><text x="402" y="347.4" text-anchor="middle" font-size="13" font-weight="bold" fill="#333" font-family="Arial">S24</text><text x="402" y="360.4" text-anchor="middle" font-size="13" fill="#444" font-family="Arial"><tspan x="402" dy="0">Mila</tspan><tspan x="402" dy="1.1em">Druciarnia</tspan></text><rect x="441" y="402" width="78" height="91" rx="5" ry="5" fill="#cfe1cf" stroke="#8ba38d" stroke-width="0.5"></rect><text x="480" y="444.9" text-anchor="middle" font-size="13" font-weight="bold" fill="#333" font-family="Arial">S27</text><text x="480" y="457.9" text-anchor="middle" font-size="13" fill="#444" font-family="Arial"><tspan x="480" dy="0">Animotki</tspan></text><rect x="441" y="311" width="78" height="91" rx="5" ry="5" fill="#deeadb" stroke="#8ba38d" stroke-width="0.5"></rect><text x="480" y="353.9" text-anchor="middle" font-size="13" font-weight="bold" fill="#333" font-family="Arial">S25</text><text x="480" y="366.9" text-anchor="middle" font-size="13" fill="#444" font-family="Arial"><tspan x="480" dy="0">Woolloop</tspan></text><rect x="363" y="402" width="78" height="91" rx="5" ry="5" fill="#deeadb" stroke="#8ba38d" stroke-width="0.5"></rect><text x="402" y="438.4" text-anchor="middle" font-size="13" font-weight="bold" fill="#333" font-family="Arial">S26</text><text x="402" y="451.4" text-anchor="middle" font-size="13" fill="#444" font-family="Arial"><tspan x="402" dy="0">Hanka mi</tspan><tspan x="402" dy="1.1em">zrobiła</tspan></text><rect x="220" y="597" width="78" height="91" rx="5" ry="5" fill="#deeadb" stroke="#8ba38d" stroke-width="0.5"></rect><text x="259" y="633.4" text-anchor="middle" font-size="13" font-weight="bold" fill="#333" font-family="Arial">S28</text><text x="259" y="646.4" text-anchor="middle" font-size="13" fill="#444" font-family="Arial"><tspan x="259" dy="0">Furora</tspan><tspan x="259" dy="1.1em">Yarns</tspan></text><rect x="298" y="597" width="78" height="91" rx="5" ry="5" fill="#cfe1cf" stroke="#8ba38d" stroke-width="0.5"></rect><text x="337" y="626.9" text-anchor="middle" font-size="13" font-weight="bold" fill="#333" font-family="Arial">S29</text><text x="337" y="639.9" text-anchor="middle" font-size="13" fill="#444" font-family="Arial"><tspan x="337" dy="0">The</tspan><tspan x="337" dy="1.1em">Knitting</tspan><tspan x="337" dy="1.1em">Box</tspan></text><rect x="220" y="688" width="78" height="91" rx="5" ry="5" fill="#cfe1cf" stroke="#8ba38d" stroke-width="0.5"></rect><text x="259" y="724.4" text-anchor="middle" font-size="13" font-weight="bold" fill="#333" font-family="Arial">S30</text><text x="259" y="737.4" text-anchor="middle" font-size="13" fill="#444" font-family="Arial"><tspan x="259" dy="0">Furora</tspan><tspan x="259" dy="1.1em">Yarns</tspan></text><rect x="298" y="688" width="78" height="91" rx="5" ry="5" fill="#deeadb" stroke="#8ba38d" stroke-width="0.5"></rect><text x="337" y="724.4" text-anchor="middle" font-size="13" font-weight="bold" fill="#333" font-family="Arial">S31</text><text x="337" y="737.4" text-anchor="middle" font-size="13" fill="#444" font-family="Arial"><tspan x="337" dy="0">Mania</tspan><tspan x="337" dy="1.1em">Chomikuje</tspan></text><rect x="220" y="779" width="78" height="91" rx="5" ry="5" fill="#deeadb" stroke="#8ba38d" stroke-width="0.5"></rect><text x="259" y="821.9" text-anchor="middle" font-size="13" font-weight="bold" fill="#333" font-family="Arial">S32</text><text x="259" y="834.9" text-anchor="middle" font-size="13" fill="#444" font-family="Arial"><tspan x="259" dy="0">7oczek</tspan></text><rect x="298" y="779" width="78" height="91" rx="5" ry="5" fill="#cfe1cf" stroke="#8ba38d" stroke-width="0.5"></rect><text x="337" y="808.9" text-anchor="middle" font-size="13" font-weight="bold" fill="#333" font-family="Arial">S33</text><text x="337" y="821.9" text-anchor="middle" font-size="13" fill="#444" font-family="Arial"><tspan x="337" dy="0">Ale masz</tspan><tspan x="337" dy="1.1em">to cudne &amp;</tspan><tspan x="337" dy="1.1em">Koło Kniei</tspan></text><rect x="220" y="870" width="78" height="91" rx="5" ry="5" fill="#cfe1cf" stroke="#8ba38d" stroke-width="0.5"></rect><text x="259" y="912.9" text-anchor="middle" font-size="13" font-weight="bold" fill="#333" font-family="Arial">S34</text><text x="259" y="925.9" text-anchor="middle" font-size="13" fill="#444" font-family="Arial"><tspan x="259" dy="0">7oczek</tspan></text><rect x="298" y="870" width="78" height="91" rx="5" ry="5" fill="#deeadb" stroke="#8ba38d" stroke-width="0.5"></rect><text x="337" y="893.4" text-anchor="middle" font-size="13" font-weight="bold" fill="#333" font-family="Arial">S35</text><text x="337" y="906.4" text-anchor="middle" font-size="13" fill="#444" font-family="Arial"><tspan x="337" dy="0">Floral</tspan><tspan x="337" dy="1.1em">Fiber</tspan><tspan x="337" dy="1.1em">Fusion &amp;</tspan><tspan x="337" dy="1.1em">Halbanka</tspan></text><rect x="467" y="883" width="52" height="78" rx="5" ry="5" fill="#d6e6d1" stroke="#8ba38d" stroke-width="0.5"></rect><text x="493" y="916.26" text-anchor="middle" font-size="8.199999999999989" font-weight="bold" fill="#333" font-family="Arial">M7</text><text x="493" y="924.46" text-anchor="middle" font-size="8.199999999999989" fill="#444" font-family="Arial"><tspan x="493" dy="0">Wydawnictwo</tspan><tspan x="493" dy="1.1em">RM</tspan></text><rect x="467" y="805" width="52" height="78" rx="5" ry="5" fill="#bedec2" stroke="#8ba38d" stroke-width="0.5"></rect><text x="493" y="835.95" text-anchor="middle" font-size="11.499999999999996" font-weight="bold" fill="#333" font-family="Arial">M6</text><text x="493" y="847.45" text-anchor="middle" font-size="11.499999999999996" fill="#444" font-family="Arial"><tspan x="493" dy="0">Okki</tspan><tspan x="493" dy="1.1em">Handmade</tspan></text><rect x="467" y="727" width="52" height="78" rx="5" ry="5" fill="#d6e6d1" stroke="#8ba38d" stroke-width="0.5"></rect><text x="493" y="750.4" text-anchor="middle" font-size="13" font-weight="bold" fill="#333" font-family="Arial">M5</text><text x="493" y="763.4" text-anchor="middle" font-size="13" fill="#444" font-family="Arial"><tspan x="493" dy="0">Agna</tspan><tspan x="493" dy="1.1em">Wool</tspan><tspan x="493" dy="1.1em">Art</tspan></text><rect x="467" y="649" width="52" height="78" rx="5" ry="5" fill="#bedec2" stroke="#8ba38d" stroke-width="0.5"></rect><text x="493" y="685.7" text-anchor="middle" font-size="11.499999999999996" font-weight="bold" fill="#333" font-family="Arial">M4</text><text x="493" y="697.2" text-anchor="middle" font-size="11.499999999999996" fill="#444" font-family="Arial"><tspan x="493" dy="0">Szklarka</tspan></text></svg>
